# MagicaVoxel @ Ephtracy

# material
mtllib rocket.mtl
usemtl palette

# normals
vn -1 0 0
vn 1 0 0
vn 0 0 1
vn 0 0 -1
vn 0 -1 0
vn 0 1 0

# texcoords
vt 0.291016 0.5
vt 0.373047 0.5
vt 0.458984 0.5
vt 0.525391 0.5
vt 0.720703 0.5
vt 0.931641 0.5
vt 0.935547 0.5
vt 0.951172 0.5
vt 0.970703 0.5
vt 0.982422 0.5
vt 0.986328 0.5

# verts
v -3 2 7
v -3 2 6
v -3 2 5
v -3 3 -8
v -3 3 -12
v -3 4 -0
v -3 4 -8
v -3 4 -12
v -3 5 -0
v -3 5 -8
v -3 5 -12
v -3 7 7
v -3 7 6
v -3 7 5
v -3 7 -8
v -3 7 -12
v -2 3 5
v -2 3 4
v -2 3 3
v -2 3 1
v -2 3 -0
v -2 3 -8
v -2 4 1
v -2 4 -0
v -2 4 -8
v -2 5 3
v -2 5 1
v -2 5 -0
v -2 5 -8
v -2 6 5
v -2 6 4
v -2 6 3
v -2 6 1
v -2 6 -0
v -2 6 -8
v -2 7 7
v -2 7 6
v -2 7 5
v -2 8 7
v -2 8 6
v -2 8 5
v -1 0 -2
v -1 0 -3
v -1 2 -2
v -1 2 -3
v -1 2 -4
v -1 3 1
v -1 3 -0
v -1 3 -2
v -1 3 -4
v -1 4 1
v -1 4 -0
v -1 5 1
v -1 5 -0
v -1 6 1
v -1 6 -0
v -1 6 -8
v -1 7 -0
v -1 7 -1
v -1 7 -4
v -1 7 -5
v -1 7 -8
v -1 8 -1
v -1 8 -4
v -1 8 -5
v 0 4 -7
v 0 4 -8
v 0 4 -12
v 0 5 -7
v 0 5 -8
v 0 5 -12
v 1 3 7
v 1 3 6
v 1 3 5
v 1 6 7
v 1 6 6
v 1 6 5
v -2 3 7
v -2 3 6
v -2 3 5
v -2 6 7
v -2 6 6
v -2 6 5
v -1 4 -7
v -1 4 -8
v -1 4 -12
v -1 5 -7
v -1 5 -8
v -1 5 -12
v 0 0 -2
v 0 0 -3
v 0 2 -2
v 0 2 -3
v 0 2 -4
v 0 3 1
v 0 3 -0
v 0 3 -2
v 0 3 -4
v 0 4 1
v 0 4 -0
v 0 5 1
v 0 5 -0
v 0 6 1
v 0 6 -0
v 0 6 -8
v 0 7 -0
v 0 7 -1
v 0 7 -4
v 0 7 -5
v 0 7 -8
v 0 8 -1
v 0 8 -4
v 0 8 -5
v 1 3 5
v 1 3 4
v 1 3 3
v 1 3 1
v 1 3 -0
v 1 3 -8
v 1 4 1
v 1 4 -0
v 1 4 -8
v 1 5 3
v 1 5 1
v 1 5 -0
v 1 5 -8
v 1 6 5
v 1 6 4
v 1 6 3
v 1 6 1
v 1 6 -0
v 1 6 -8
v 1 7 7
v 1 7 6
v 1 7 5
v 1 8 7
v 1 8 6
v 1 8 5
v 2 2 7
v 2 2 6
v 2 2 5
v 2 3 -8
v 2 3 -12
v 2 4 -0
v 2 4 -8
v 2 4 -12
v 2 5 -0
v 2 5 -8
v 2 5 -12
v 2 7 7
v 2 7 6
v 2 7 5
v 2 7 -8
v 2 7 -12
v -3 2 7
v -3 7 7
v -2 3 7
v -2 6 7
v -2 7 7
v -2 8 7
v -1 7 7
v -1 8 7
v 0 7 7
v 0 8 7
v 1 3 7
v 1 6 7
v 1 7 7
v 1 8 7
v 2 2 7
v 2 7 7
v -2 3 5
v -2 6 5
v -1 4 5
v -1 5 5
v 0 4 5
v 0 5 5
v 1 3 5
v 1 6 5
v -3 4 -0
v -3 5 -0
v -2 3 -0
v -2 4 -0
v -2 5 -0
v -2 6 -0
v -1 3 -0
v -1 4 -0
v -1 5 -0
v -1 6 -0
v -1 7 -0
v 0 3 -0
v 0 4 -0
v 0 5 -0
v 0 6 -0
v 0 7 -0
v 1 3 -0
v 1 4 -0
v 1 5 -0
v 1 6 -0
v 2 4 -0
v 2 5 -0
v -1 7 -1
v -1 8 -1
v 0 7 -1
v 0 8 -1
v -1 0 -2
v -1 2 -2
v -1 3 -2
v 0 0 -2
v 0 2 -2
v 0 3 -2
v -3 3 -8
v -3 4 -8
v -3 5 -8
v -3 7 -8
v -2 3 -8
v -2 4 -8
v -2 5 -8
v -2 6 -8
v -2 7 -8
v -1 6 -8
v -1 7 -8
v 0 6 -8
v 0 7 -8
v 1 3 -8
v 1 4 -8
v 1 5 -8
v 1 6 -8
v 1 7 -8
v 2 3 -8
v 2 4 -8
v 2 5 -8
v 2 7 -8
v -3 2 5
v -3 7 5
v -2 3 5
v -2 6 5
v -2 7 5
v -2 8 5
v -1 7 5
v -1 8 5
v 0 7 5
v 0 8 5
v 1 3 5
v 1 6 5
v 1 7 5
v 1 8 5
v 2 2 5
v 2 7 5
v -2 3 1
v -2 4 1
v -2 5 1
v -2 6 1
v -1 3 1
v -1 4 1
v -1 5 1
v -1 6 1
v 0 3 1
v 0 4 1
v 0 5 1
v 0 6 1
v 1 3 1
v 1 4 1
v 1 5 1
v 1 6 1
v -1 0 -3
v -1 2 -3
v 0 0 -3
v 0 2 -3
v -1 2 -4
v -1 3 -4
v 0 2 -4
v 0 3 -4
v -1 7 -5
v -1 8 -5
v 0 7 -5
v 0 8 -5
v -1 4 -7
v -1 5 -7
v 0 4 -7
v 0 5 -7
v -3 3 -12
v -3 4 -12
v -3 5 -12
v -3 7 -12
v -2 3 -12
v -2 4 -12
v -2 5 -12
v -2 6 -12
v -2 7 -12
v -1 4 -12
v -1 5 -12
v -1 6 -12
v -1 7 -12
v 0 4 -12
v 0 5 -12
v 0 6 -12
v 0 7 -12
v 1 3 -12
v 1 4 -12
v 1 5 -12
v 1 6 -12
v 1 7 -12
v 2 3 -12
v 2 4 -12
v 2 5 -12
v 2 7 -12
v -1 0 -2
v 0 0 -2
v -1 0 -3
v 0 0 -3
v -3 2 7
v 2 2 7
v -3 2 6
v 2 2 6
v -3 2 5
v 2 2 5
v -1 2 -3
v 0 2 -3
v -1 2 -4
v 0 2 -4
v -2 3 5
v 1 3 5
v -2 3 4
v -1 3 4
v 0 3 4
v 1 3 4
v -2 3 3
v -1 3 3
v 0 3 3
v 1 3 3
v -2 3 1
v -1 3 1
v 0 3 1
v 1 3 1
v -2 3 -0
v -1 3 -0
v 0 3 -0
v 1 3 -0
v -1 3 -2
v 0 3 -2
v -1 3 -4
v 0 3 -4
v -3 3 -8
v -2 3 -8
v 1 3 -8
v 2 3 -8
v -3 3 -12
v -2 3 -12
v 1 3 -12
v 2 3 -12
v -2 4 1
v -1 4 1
v 0 4 1
v 1 4 1
v -3 4 -0
v -2 4 -0
v -1 4 -0
v 0 4 -0
v 1 4 -0
v 2 4 -0
v -3 4 -8
v -2 4 -8
v 1 4 -8
v 2 4 -8
v -1 5 -7
v 0 5 -7
v -1 5 -8
v 0 5 -8
v -1 5 -12
v 0 5 -12
v -2 6 7
v 1 6 7
v -2 6 6
v 1 6 6
v -2 6 5
v 1 6 5
v -2 3 7
v 1 3 7
v -2 3 6
v 1 3 6
v -2 3 5
v 1 3 5
v -1 4 -7
v 0 4 -7
v -1 4 -8
v 0 4 -8
v -1 4 -12
v 0 4 -12
v -2 5 1
v -1 5 1
v 0 5 1
v 1 5 1
v -3 5 -0
v -2 5 -0
v -1 5 -0
v 0 5 -0
v 1 5 -0
v 2 5 -0
v -3 5 -8
v -2 5 -8
v 1 5 -8
v 2 5 -8
v -2 6 5
v 1 6 5
v -2 6 4
v -1 6 4
v 0 6 4
v 1 6 4
v -2 6 3
v -1 6 3
v 0 6 3
v 1 6 3
v -2 6 1
v -1 6 1
v 0 6 1
v 1 6 1
v -2 6 -0
v -1 6 -0
v 0 6 -0
v 1 6 -0
v -2 6 -8
v -1 6 -8
v 0 6 -8
v 1 6 -8
v -3 7 7
v -2 7 7
v 1 7 7
v 2 7 7
v -3 7 6
v -2 7 6
v 1 7 6
v 2 7 6
v -3 7 5
v -2 7 5
v 1 7 5
v 2 7 5
v -1 7 -0
v 0 7 -0
v -1 7 -1
v 0 7 -1
v -1 7 -5
v 0 7 -5
v -3 7 -8
v -2 7 -8
v -1 7 -8
v 0 7 -8
v 1 7 -8
v 2 7 -8
v -3 7 -12
v -2 7 -12
v -1 7 -12
v 0 7 -12
v 1 7 -12
v 2 7 -12
v -2 8 7
v -1 8 7
v 0 8 7
v 1 8 7
v -2 8 6
v -1 8 6
v 0 8 6
v 1 8 6
v -2 8 5
v -1 8 5
v 0 8 5
v 1 8 5
v -1 8 -1
v 0 8 -1
v -1 8 -4
v 0 8 -4
v -1 8 -5
v 0 8 -5

# faces
f 7/3/1 5/3/1 4/3/1
f 8/3/1 5/3/1 7/3/1
f 9/3/1 7/3/1 6/3/1
f 10/4/1 8/4/1 7/4/1
f 10/3/1 7/3/1 9/3/1
f 11/4/1 8/4/1 10/4/1
f 12/8/1 2/8/1 1/8/1
f 13/11/1 3/11/1 2/11/1
f 13/8/1 2/8/1 12/8/1
f 14/11/1 3/11/1 13/11/1
f 15/3/1 11/3/1 10/3/1
f 16/3/1 11/3/1 15/3/1
f 23/8/1 20/8/1 19/8/1
f 24/8/1 22/8/1 21/8/1
f 25/8/1 22/8/1 24/8/1
f 26/1/1 19/1/1 18/1/1
f 26/8/1 23/8/1 19/8/1
f 26/8/1 24/8/1 23/8/1
f 27/8/1 24/8/1 26/8/1
f 28/8/1 24/8/1 27/8/1
f 30/8/1 18/8/1 17/8/1
f 31/1/1 26/1/1 18/1/1
f 31/8/1 18/8/1 30/8/1
f 32/2/1 27/2/1 26/2/1
f 32/1/1 26/1/1 31/1/1
f 33/2/1 27/2/1 32/2/1
f 34/11/1 29/11/1 28/11/1
f 35/11/1 29/11/1 34/11/1
f 39/8/1 37/8/1 36/8/1
f 40/11/1 38/11/1 37/11/1
f 40/8/1 37/8/1 39/8/1
f 41/11/1 38/11/1 40/11/1
f 44/7/1 43/7/1 42/7/1
f 45/7/1 43/7/1 44/7/1
f 49/1/1 45/1/1 44/1/1
f 49/1/1 46/1/1 45/1/1
f 50/1/1 46/1/1 49/1/1
f 51/8/1 48/8/1 47/8/1
f 52/8/1 48/8/1 51/8/1
f 55/11/1 54/11/1 53/11/1
f 56/11/1 54/11/1 55/11/1
f 58/11/1 57/11/1 56/11/1
f 59/11/1 57/11/1 58/11/1
f 60/11/1 57/11/1 59/11/1
f 61/11/1 57/11/1 60/11/1
f 62/11/1 57/11/1 61/11/1
f 63/6/1 60/6/1 59/6/1
f 64/5/1 61/5/1 60/5/1
f 64/6/1 60/6/1 63/6/1
f 65/5/1 61/5/1 64/5/1
f 69/4/1 67/4/1 66/4/1
f 70/10/1 68/10/1 67/10/1
f 70/4/1 67/4/1 69/4/1
f 71/10/1 68/10/1 70/10/1
f 75/8/1 73/8/1 72/8/1
f 76/11/1 74/11/1 73/11/1
f 76/8/1 73/8/1 75/8/1
f 77/11/1 74/11/1 76/11/1
f 78/8/2 79/8/2 81/8/2
f 79/11/2 80/11/2 82/11/2
f 81/8/2 79/8/2 82/8/2
f 82/11/2 80/11/2 83/11/2
f 84/4/2 85/4/2 87/4/2
f 85/10/2 86/10/2 88/10/2
f 87/4/2 85/4/2 88/4/2
f 88/10/2 86/10/2 89/10/2
f 90/7/2 91/7/2 92/7/2
f 92/7/2 91/7/2 93/7/2
f 92/1/2 93/1/2 97/1/2
f 93/1/2 94/1/2 97/1/2
f 97/1/2 94/1/2 98/1/2
f 95/8/2 96/8/2 99/8/2
f 99/8/2 96/8/2 100/8/2
f 101/11/2 102/11/2 103/11/2
f 103/11/2 102/11/2 104/11/2
f 104/11/2 105/11/2 106/11/2
f 106/11/2 105/11/2 107/11/2
f 107/11/2 105/11/2 108/11/2
f 108/11/2 105/11/2 109/11/2
f 109/11/2 105/11/2 110/11/2
f 107/6/2 108/6/2 111/6/2
f 108/5/2 109/5/2 112/5/2
f 111/6/2 108/6/2 112/6/2
f 112/5/2 109/5/2 113/5/2
f 116/8/2 117/8/2 120/8/2
f 118/8/2 119/8/2 121/8/2
f 121/8/2 119/8/2 122/8/2
f 115/1/2 116/1/2 123/1/2
f 116/8/2 120/8/2 123/8/2
f 120/8/2 121/8/2 123/8/2
f 123/8/2 121/8/2 124/8/2
f 124/8/2 121/8/2 125/8/2
f 114/8/2 115/8/2 127/8/2
f 115/1/2 123/1/2 128/1/2
f 127/8/2 115/8/2 128/8/2
f 123/2/2 124/2/2 129/2/2
f 128/1/2 123/1/2 129/1/2
f 129/2/2 124/2/2 130/2/2
f 125/11/2 126/11/2 131/11/2
f 131/11/2 126/11/2 132/11/2
f 133/8/2 134/8/2 136/8/2
f 134/11/2 135/11/2 137/11/2
f 136/8/2 134/8/2 137/8/2
f 137/11/2 135/11/2 138/11/2
f 142/3/2 143/3/2 145/3/2
f 145/3/2 143/3/2 146/3/2
f 144/3/2 145/3/2 147/3/2
f 145/4/2 146/4/2 148/4/2
f 147/3/2 145/3/2 148/3/2
f 148/4/2 146/4/2 149/4/2
f 139/8/2 140/8/2 150/8/2
f 140/11/2 141/11/2 151/11/2
f 150/8/2 140/8/2 151/8/2
f 151/11/2 141/11/2 152/11/2
f 148/3/2 149/3/2 153/3/2
f 153/3/2 149/3/2 154/3/2
f 157/8/3 156/8/3 155/8/3
f 158/8/3 156/8/3 157/8/3
f 159/8/3 156/8/3 158/8/3
f 161/8/3 160/8/3 159/8/3
f 161/8/3 159/8/3 158/8/3
f 162/8/3 160/8/3 161/8/3
f 163/8/3 161/8/3 158/8/3
f 163/5/3 162/5/3 161/5/3
f 164/5/3 162/5/3 163/5/3
f 165/8/3 157/8/3 155/8/3
f 166/8/3 163/8/3 158/8/3
f 166/8/3 164/8/3 163/8/3
f 167/8/3 164/8/3 166/8/3
f 168/8/3 164/8/3 167/8/3
f 169/8/3 165/8/3 155/8/3
f 169/8/3 166/8/3 165/8/3
f 169/8/3 167/8/3 166/8/3
f 170/8/3 167/8/3 169/8/3
f 173/8/3 172/8/3 171/8/3
f 174/8/3 172/8/3 173/8/3
f 175/8/3 173/8/3 171/8/3
f 175/9/3 174/9/3 173/9/3
f 176/8/3 172/8/3 174/8/3
f 176/9/3 174/9/3 175/9/3
f 177/8/3 175/8/3 171/8/3
f 177/8/3 176/8/3 175/8/3
f 178/8/3 172/8/3 176/8/3
f 178/8/3 176/8/3 177/8/3
f 182/3/3 180/3/3 179/3/3
f 183/3/3 180/3/3 182/3/3
f 185/8/3 182/8/3 181/8/3
f 186/8/3 182/8/3 185/8/3
f 187/11/3 184/11/3 183/11/3
f 188/11/3 184/11/3 187/11/3
f 193/11/3 189/11/3 188/11/3
f 194/11/3 189/11/3 193/11/3
f 195/8/3 191/8/3 190/8/3
f 196/8/3 191/8/3 195/8/3
f 197/11/3 193/11/3 192/11/3
f 198/11/3 193/11/3 197/11/3
f 199/3/3 197/3/3 196/3/3
f 200/3/3 197/3/3 199/3/3
f 203/6/3 202/6/3 201/6/3
f 204/6/3 202/6/3 203/6/3
f 208/7/3 206/7/3 205/7/3
f 209/1/3 207/1/3 206/1/3
f 209/7/3 206/7/3 208/7/3
f 210/1/3 207/1/3 209/1/3
f 215/3/3 212/3/3 211/3/3
f 216/3/3 212/3/3 215/3/3
f 217/3/3 214/3/3 213/3/3
f 218/3/3 214/3/3 217/3/3
f 219/3/3 214/3/3 218/3/3
f 220/4/3 219/4/3 218/4/3
f 221/4/3 219/4/3 220/4/3
f 227/4/3 223/4/3 222/4/3
f 228/4/3 223/4/3 227/4/3
f 229/3/3 225/3/3 224/3/3
f 230/3/3 225/3/3 229/3/3
f 231/3/3 227/3/3 226/3/3
f 231/3/3 228/3/3 227/3/3
f 232/3/3 228/3/3 231/3/3
f 233/11/4 234/11/4 235/11/4
f 235/11/4 234/11/4 236/11/4
f 236/11/4 234/11/4 237/11/4
f 237/11/4 238/11/4 239/11/4
f 236/11/4 237/11/4 239/11/4
f 239/11/4 238/11/4 240/11/4
f 236/11/4 239/11/4 241/11/4
f 239/5/4 240/5/4 241/5/4
f 241/5/4 240/5/4 242/5/4
f 233/11/4 235/11/4 243/11/4
f 236/11/4 241/11/4 244/11/4
f 241/11/4 242/11/4 244/11/4
f 244/11/4 242/11/4 245/11/4
f 245/11/4 242/11/4 246/11/4
f 233/11/4 243/11/4 247/11/4
f 243/11/4 244/11/4 247/11/4
f 244/11/4 245/11/4 247/11/4
f 247/11/4 245/11/4 248/11/4
f 249/8/4 250/8/4 253/8/4
f 253/8/4 250/8/4 254/8/4
f 251/2/4 252/2/4 255/2/4
f 255/2/4 252/2/4 256/2/4
f 257/8/4 258/8/4 261/8/4
f 261/8/4 258/8/4 262/8/4
f 259/2/4 260/2/4 263/2/4
f 263/2/4 260/2/4 264/2/4
f 265/7/4 266/7/4 267/7/4
f 267/7/4 266/7/4 268/7/4
f 269/1/4 270/1/4 271/1/4
f 271/1/4 270/1/4 272/1/4
f 273/5/4 274/5/4 275/5/4
f 275/5/4 274/5/4 276/5/4
f 277/9/4 278/9/4 279/9/4
f 279/9/4 278/9/4 280/9/4
f 281/3/4 282/3/4 285/3/4
f 282/4/4 283/4/4 286/4/4
f 285/3/4 282/3/4 286/3/4
f 283/3/4 284/3/4 287/3/4
f 286/4/4 283/4/4 287/4/4
f 287/3/4 284/3/4 288/3/4
f 288/3/4 284/3/4 289/3/4
f 285/10/4 286/10/4 290/10/4
f 286/10/4 287/10/4 290/10/4
f 287/10/4 288/10/4 290/10/4
f 290/10/4 288/10/4 291/10/4
f 288/4/4 289/4/4 292/4/4
f 291/10/4 288/10/4 292/10/4
f 292/4/4 289/4/4 293/4/4
f 285/10/4 290/10/4 294/10/4
f 291/10/4 292/10/4 295/10/4
f 292/3/4 293/3/4 296/3/4
f 295/10/4 292/10/4 296/10/4
f 296/3/4 293/3/4 297/3/4
f 294/10/4 295/10/4 298/10/4
f 285/10/4 294/10/4 298/10/4
f 295/10/4 296/10/4 298/10/4
f 298/10/4 296/10/4 299/10/4
f 299/10/4 296/10/4 300/10/4
f 296/4/4 297/4/4 301/4/4
f 300/10/4 296/10/4 301/10/4
f 301/4/4 297/4/4 302/4/4
f 298/3/4 299/3/4 303/3/4
f 299/4/4 300/4/4 304/4/4
f 303/3/4 299/3/4 304/3/4
f 300/3/4 301/3/4 305/3/4
f 304/4/4 300/4/4 305/4/4
f 301/3/4 302/3/4 305/3/4
f 305/3/4 302/3/4 306/3/4
f 309/7/5 308/7/5 307/7/5
f 310/7/5 308/7/5 309/7/5
f 313/8/5 312/8/5 311/8/5
f 314/8/5 312/8/5 313/8/5
f 315/11/5 314/11/5 313/11/5
f 316/11/5 314/11/5 315/11/5
f 319/1/5 318/1/5 317/1/5
f 320/1/5 318/1/5 319/1/5
f 323/8/5 322/8/5 321/8/5
f 324/8/5 322/8/5 323/8/5
f 325/8/5 322/8/5 324/8/5
f 326/8/5 322/8/5 325/8/5
f 327/1/5 324/1/5 323/1/5
f 328/8/5 325/8/5 324/8/5
f 328/1/5 324/1/5 327/1/5
f 329/1/5 326/1/5 325/1/5
f 329/8/5 325/8/5 328/8/5
f 330/1/5 326/1/5 329/1/5
f 331/8/5 328/8/5 327/8/5
f 331/8/5 329/8/5 328/8/5
f 331/8/5 330/8/5 329/8/5
f 332/8/5 330/8/5 331/8/5
f 333/8/5 330/8/5 332/8/5
f 334/8/5 330/8/5 333/8/5
f 336/8/5 333/8/5 332/8/5
f 337/8/5 333/8/5 336/8/5
f 339/8/5 336/8/5 335/8/5
f 339/8/5 338/8/5 337/8/5
f 339/8/5 337/8/5 336/8/5
f 340/8/5 338/8/5 339/8/5
f 341/8/5 339/8/5 335/8/5
f 342/8/5 338/8/5 340/8/5
f 344/8/5 341/8/5 335/8/5
f 344/8/5 342/8/5 341/8/5
f 345/8/5 338/8/5 342/8/5
f 345/8/5 342/8/5 344/8/5
f 347/3/5 344/3/5 343/3/5
f 348/10/5 345/10/5 344/10/5
f 348/3/5 344/3/5 347/3/5
f 349/3/5 346/3/5 345/3/5
f 349/10/5 345/10/5 348/10/5
f 350/3/5 346/3/5 349/3/5
f 356/8/5 352/8/5 351/8/5
f 357/8/5 352/8/5 356/8/5
f 358/8/5 354/8/5 353/8/5
f 359/8/5 354/8/5 358/8/5
f 361/3/5 356/3/5 355/3/5
f 362/3/5 356/3/5 361/3/5
f 363/3/5 360/3/5 359/3/5
f 364/3/5 360/3/5 363/3/5
f 367/8/5 366/8/5 365/8/5
f 368/8/5 366/8/5 367/8/5
f 369/10/5 368/10/5 367/10/5
f 370/10/5 368/10/5 369/10/5
f 373/8/5 372/8/5 371/8/5
f 374/8/5 372/8/5 373/8/5
f 375/11/5 374/11/5 373/11/5
f 376/11/5 374/11/5 375/11/5
f 377/8/6 378/8/6 379/8/6
f 379/8/6 378/8/6 380/8/6
f 379/11/6 380/11/6 381/11/6
f 381/11/6 380/11/6 382/11/6
f 383/8/6 384/8/6 385/8/6
f 385/8/6 384/8/6 386/8/6
f 385/10/6 386/10/6 387/10/6
f 387/10/6 386/10/6 388/10/6
f 389/8/6 390/8/6 394/8/6
f 394/8/6 390/8/6 395/8/6
f 391/8/6 392/8/6 396/8/6
f 396/8/6 392/8/6 397/8/6
f 393/3/6 394/3/6 399/3/6
f 399/3/6 394/3/6 400/3/6
f 397/3/6 398/3/6 401/3/6
f 401/3/6 398/3/6 402/3/6
f 403/8/6 404/8/6 405/8/6
f 405/8/6 404/8/6 406/8/6
f 406/8/6 404/8/6 407/8/6
f 407/8/6 404/8/6 408/8/6
f 405/1/6 406/1/6 409/1/6
f 406/11/6 407/11/6 410/11/6
f 409/1/6 406/1/6 410/1/6
f 407/1/6 408/1/6 411/1/6
f 410/11/6 407/11/6 411/11/6
f 411/1/6 408/1/6 412/1/6
f 409/2/6 410/2/6 413/2/6
f 410/11/6 411/11/6 414/11/6
f 413/2/6 410/2/6 414/2/6
f 411/2/6 412/2/6 415/2/6
f 414/11/6 411/11/6 415/11/6
f 415/2/6 412/2/6 416/2/6
f 414/11/6 415/11/6 418/11/6
f 418/11/6 415/11/6 419/11/6
f 417/11/6 418/11/6 421/11/6
f 421/11/6 418/11/6 422/11/6
f 419/11/6 420/11/6 423/11/6
f 423/11/6 420/11/6 424/11/6
f 425/8/6 426/8/6 429/8/6
f 429/8/6 426/8/6 430/8/6
f 427/8/6 428/8/6 431/8/6
f 431/8/6 428/8/6 432/8/6
f 429/11/6 430/11/6 433/11/6
f 433/11/6 430/11/6 434/11/6
f 431/11/6 432/11/6 435/11/6
f 435/11/6 432/11/6 436/11/6
f 437/11/6 438/11/6 439/11/6
f 439/11/6 438/11/6 440/11/6
f 441/11/6 442/11/6 445/11/6
f 445/11/6 442/11/6 446/11/6
f 443/3/6 444/3/6 449/3/6
f 444/4/6 445/4/6 450/4/6
f 449/3/6 444/3/6 450/3/6
f 445/3/6 446/3/6 451/3/6
f 450/4/6 445/4/6 451/4/6
f 446/4/6 447/4/6 452/4/6
f 451/3/6 446/3/6 452/3/6
f 447/3/6 448/3/6 453/3/6
f 452/4/6 447/4/6 453/4/6
f 453/3/6 448/3/6 454/3/6
f 455/8/6 456/8/6 459/8/6
f 456/5/6 457/5/6 460/5/6
f 459/8/6 456/8/6 460/8/6
f 457/8/6 458/8/6 461/8/6
f 460/5/6 457/5/6 461/5/6
f 461/8/6 458/8/6 462/8/6
f 459/11/6 460/11/6 463/11/6
f 460/5/6 461/5/6 464/5/6
f 463/11/6 460/11/6 464/11/6
f 461/11/6 462/11/6 465/11/6
f 464/5/6 461/5/6 465/5/6
f 465/11/6 462/11/6 466/11/6
f 467/6/6 468/6/6 469/6/6
f 469/6/6 468/6/6 470/6/6
f 469/5/6 470/5/6 471/5/6
f 471/5/6 470/5/6 472/5/6
