# MagicaVoxel @ Ephtracy

# material
mtllib body.mtl
usemtl palette

# normals
vn -1 0 0
vn 1 0 0
vn 0 0 1
vn 0 0 -1
vn 0 -1 0
vn 0 1 0

# texcoords
vt 0.0683594 0.5
vt 0.115234 0.5
vt 0.138672 0.5
vt 0.228516 0.5
vt 0.419922 0.5
vt 0.853516 0.5

# verts
v -2 21 -4
v -2 21 -17
v -2 23 -4
v -2 23 -17
v 1 10 8
v 1 10 -14
v 1 13 8
v 1 13 4
v 1 13 1
v 1 13 -8
v 1 13 -14
v 1 14 1
v 1 14 -8
v 1 15 8
v 1 15 4
v 1 17 8
v 1 17 4
v 1 19 8
v 1 19 4
v 1 20 8
v 1 20 4
v 1 21 4
v 1 21 -4
v 1 21 -10
v 1 21 -14
v 2 20 8
v 2 20 4
v 2 21 8
v 2 21 4
v 2 21 -0
v 2 22 4
v 2 22 -0
v 5 21 4
v 5 21 1
v 5 22 4
v 5 22 1
v 6 21 -4
v 6 21 -10
v 6 23 -4
v 6 23 -10
v 7 11 4
v 7 11 -11
v 7 13 4
v 7 13 1
v 7 13 -8
v 7 13 -11
v 7 14 1
v 7 14 -8
v 7 14 -11
v 7 14 -13
v 7 15 4
v 7 17 4
v 7 19 4
v 7 19 -0
v 7 19 -13
v 7 20 -0
v 7 21 4
v 7 21 -0
v 8 21 -5
v 8 21 -6
v 8 22 -5
v 8 22 -6
v 9 21 -10
v 9 21 -17
v 9 23 -10
v 9 23 -17
v 0 21 -10
v 0 21 -17
v 0 23 -10
v 0 23 -17
v 2 11 4
v 2 11 -11
v 2 13 4
v 2 13 1
v 2 13 -8
v 2 13 -11
v 2 14 1
v 2 14 -8
v 2 14 -11
v 2 14 -13
v 2 15 4
v 2 17 4
v 2 19 4
v 2 19 -0
v 2 19 -13
v 2 20 -0
v 2 21 4
v 2 21 -0
v 3 21 4
v 3 21 1
v 3 21 -4
v 3 21 -10
v 3 22 4
v 3 22 1
v 3 23 -4
v 3 23 -10
v 7 20 8
v 7 20 4
v 7 21 8
v 7 21 4
v 7 21 -0
v 7 21 -5
v 7 21 -6
v 7 22 4
v 7 22 -0
v 7 22 -5
v 7 22 -6
v 8 10 8
v 8 10 -14
v 8 13 8
v 8 13 4
v 8 13 1
v 8 13 -8
v 8 13 -14
v 8 14 1
v 8 14 -8
v 8 15 8
v 8 15 4
v 8 17 8
v 8 17 4
v 8 19 8
v 8 19 4
v 8 20 8
v 8 20 4
v 8 21 4
v 8 21 -4
v 8 21 -6
v 8 21 -10
v 8 21 -14
v 11 21 -4
v 11 21 -17
v 11 23 -4
v 11 23 -17
v 1 10 8
v 1 13 8
v 1 15 8
v 1 17 8
v 1 19 8
v 1 20 8
v 2 20 8
v 2 21 8
v 7 20 8
v 7 21 8
v 8 10 8
v 8 13 8
v 8 15 8
v 8 17 8
v 8 19 8
v 8 20 8
v 1 20 4
v 1 21 4
v 2 20 4
v 2 21 4
v 2 22 4
v 3 21 4
v 3 22 4
v 5 21 4
v 5 22 4
v 7 20 4
v 7 21 4
v 7 22 4
v 8 20 4
v 8 21 4
v 3 21 1
v 3 22 1
v 5 21 1
v 5 22 1
v 2 19 -0
v 2 20 -0
v 2 21 -0
v 7 19 -0
v 7 20 -0
v 7 21 -0
v -2 21 -4
v -2 23 -4
v 1 21 -4
v 3 21 -4
v 3 23 -4
v 6 21 -4
v 6 23 -4
v 7 21 -4
v 7 23 -4
v 8 21 -4
v 9 21 -4
v 9 23 -4
v 11 21 -4
v 11 23 -4
v 7 21 -6
v 7 22 -6
v 8 21 -6
v 8 22 -6
v 2 11 -11
v 2 13 -11
v 2 14 -11
v 7 11 -11
v 7 13 -11
v 7 14 -11
v 2 14 -13
v 2 19 -13
v 7 14 -13
v 7 19 -13
v 2 11 4
v 2 13 4
v 2 15 4
v 2 17 4
v 2 19 4
v 2 21 4
v 3 21 4
v 5 21 4
v 7 11 4
v 7 13 4
v 7 15 4
v 7 17 4
v 7 19 4
v 7 21 4
v 2 21 -0
v 2 22 -0
v 7 21 -0
v 7 22 -0
v 7 21 -5
v 7 22 -5
v 8 21 -5
v 8 22 -5
v 0 21 -10
v 0 23 -10
v 1 21 -10
v 3 21 -10
v 3 23 -10
v 6 21 -10
v 6 23 -10
v 8 21 -10
v 9 21 -10
v 9 23 -10
v 1 10 -14
v 1 13 -14
v 1 21 -14
v 2 13 -14
v 2 20 -14
v 7 13 -14
v 7 20 -14
v 8 10 -14
v 8 13 -14
v 8 21 -14
v -2 21 -17
v -2 23 -17
v 0 21 -17
v 0 23 -17
v 9 21 -17
v 9 23 -17
v 11 21 -17
v 11 23 -17
v 1 10 8
v 8 10 8
v 1 10 -14
v 8 10 -14
v 2 19 -0
v 7 19 -0
v 2 19 -13
v 7 19 -13
v 2 21 4
v 3 21 4
v 5 21 4
v 7 21 4
v 3 21 1
v 5 21 1
v 2 21 -0
v 7 21 -0
v -2 21 -4
v 1 21 -4
v 8 21 -4
v 9 21 -4
v 11 21 -4
v 8 21 -6
v 9 21 -6
v 0 21 -10
v 1 21 -10
v 8 21 -10
v 9 21 -10
v -2 21 -17
v 0 21 -17
v 9 21 -17
v 11 21 -17
v 7 22 -5
v 8 22 -5
v 7 22 -6
v 8 22 -6
v 2 11 4
v 7 11 4
v 2 11 -11
v 7 11 -11
v 2 14 -11
v 7 14 -11
v 2 14 -13
v 7 14 -13
v 1 20 8
v 2 20 8
v 7 20 8
v 8 20 8
v 1 20 4
v 2 20 4
v 7 20 4
v 8 20 4
v 2 21 8
v 7 21 8
v 1 21 4
v 2 21 4
v 3 21 4
v 5 21 4
v 7 21 4
v 8 21 4
v 2 21 -0
v 7 21 -0
v 1 21 -4
v 3 21 -4
v 6 21 -4
v 7 21 -4
v 8 21 -4
v 7 21 -5
v 8 21 -5
v 7 21 -6
v 8 21 -6
v 1 21 -10
v 3 21 -10
v 6 21 -10
v 8 21 -10
v 1 21 -14
v 8 21 -14
v 2 22 4
v 3 22 4
v 5 22 4
v 7 22 4
v 3 22 1
v 5 22 1
v 2 22 -0
v 7 22 -0
v -2 23 -4
v 3 23 -4
v 6 23 -4
v 7 23 -4
v 9 23 -4
v 11 23 -4
v 7 23 -5
v 9 23 -5
v 0 23 -10
v 3 23 -10
v 6 23 -10
v 9 23 -10
v -2 23 -17
v 0 23 -17
v 9 23 -17
v 11 23 -17

# faces
f 3/6/1 2/6/1 1/6/1
f 4/6/1 2/6/1 3/6/1
f 7/1/1 6/1/1 5/1/1
f 8/1/1 6/1/1 7/1/1
f 9/1/1 6/1/1 8/1/1
f 10/1/1 6/1/1 9/1/1
f 11/1/1 6/1/1 10/1/1
f 12/3/1 9/3/1 8/3/1
f 12/2/1 10/2/1 9/2/1
f 13/3/1 11/3/1 10/3/1
f 13/2/1 10/2/1 12/2/1
f 14/4/1 8/4/1 7/4/1
f 15/3/1 12/3/1 8/3/1
f 15/4/1 8/4/1 14/4/1
f 15/3/1 13/3/1 12/3/1
f 16/1/1 15/1/1 14/1/1
f 17/3/1 13/3/1 15/3/1
f 17/1/1 15/1/1 16/1/1
f 18/4/1 17/4/1 16/4/1
f 19/3/1 13/3/1 17/3/1
f 19/4/1 17/4/1 18/4/1
f 20/1/1 19/1/1 18/1/1
f 21/3/1 13/3/1 19/3/1
f 21/1/1 19/1/1 20/1/1
f 22/3/1 13/3/1 21/3/1
f 23/3/1 13/3/1 22/3/1
f 24/3/1 11/3/1 13/3/1
f 24/3/1 13/3/1 23/3/1
f 25/3/1 11/3/1 24/3/1
f 28/1/1 27/1/1 26/1/1
f 29/1/1 27/1/1 28/1/1
f 31/3/1 30/3/1 29/3/1
f 32/3/1 30/3/1 31/3/1
f 35/3/1 34/3/1 33/3/1
f 36/3/1 34/3/1 35/3/1
f 39/6/1 38/6/1 37/6/1
f 40/6/1 38/6/1 39/6/1
f 43/1/1 42/1/1 41/1/1
f 44/1/1 42/1/1 43/1/1
f 45/1/1 42/1/1 44/1/1
f 46/1/1 42/1/1 45/1/1
f 47/3/1 44/3/1 43/3/1
f 47/2/1 45/2/1 44/2/1
f 48/3/1 46/3/1 45/3/1
f 48/2/1 45/2/1 47/2/1
f 49/3/1 46/3/1 48/3/1
f 51/3/1 49/3/1 48/3/1
f 51/3/1 50/3/1 49/3/1
f 51/3/1 48/3/1 47/3/1
f 51/3/1 47/3/1 43/3/1
f 52/3/1 50/3/1 51/3/1
f 53/3/1 50/3/1 52/3/1
f 54/3/1 50/3/1 53/3/1
f 55/3/1 50/3/1 54/3/1
f 56/3/1 54/3/1 53/3/1
f 57/3/1 56/3/1 53/3/1
f 58/3/1 56/3/1 57/3/1
f 61/5/1 60/5/1 59/5/1
f 62/5/1 60/5/1 61/5/1
f 65/6/1 64/6/1 63/6/1
f 66/6/1 64/6/1 65/6/1
f 67/6/2 68/6/2 69/6/2
f 69/6/2 68/6/2 70/6/2
f 71/1/2 72/1/2 73/1/2
f 73/1/2 72/1/2 74/1/2
f 74/1/2 72/1/2 75/1/2
f 75/1/2 72/1/2 76/1/2
f 73/3/2 74/3/2 77/3/2
f 74/2/2 75/2/2 77/2/2
f 75/3/2 76/3/2 78/3/2
f 77/2/2 75/2/2 78/2/2
f 78/3/2 76/3/2 79/3/2
f 78/3/2 79/3/2 81/3/2
f 79/3/2 80/3/2 81/3/2
f 77/3/2 78/3/2 81/3/2
f 73/3/2 77/3/2 81/3/2
f 81/3/2 80/3/2 82/3/2
f 82/3/2 80/3/2 83/3/2
f 83/3/2 80/3/2 84/3/2
f 84/3/2 80/3/2 85/3/2
f 83/3/2 84/3/2 86/3/2
f 83/3/2 86/3/2 87/3/2
f 87/3/2 86/3/2 88/3/2
f 89/3/2 90/3/2 93/3/2
f 93/3/2 90/3/2 94/3/2
f 91/6/2 92/6/2 95/6/2
f 95/6/2 92/6/2 96/6/2
f 97/1/2 98/1/2 99/1/2
f 99/1/2 98/1/2 100/1/2
f 100/3/2 101/3/2 104/3/2
f 104/3/2 101/3/2 105/3/2
f 102/6/2 103/6/2 106/6/2
f 106/6/2 103/6/2 107/6/2
f 108/1/2 109/1/2 110/1/2
f 110/1/2 109/1/2 111/1/2
f 111/1/2 109/1/2 112/1/2
f 112/1/2 109/1/2 113/1/2
f 113/1/2 109/1/2 114/1/2
f 111/3/2 112/3/2 115/3/2
f 112/2/2 113/2/2 115/2/2
f 113/3/2 114/3/2 116/3/2
f 115/2/2 113/2/2 116/2/2
f 110/4/2 111/4/2 117/4/2
f 111/3/2 115/3/2 118/3/2
f 117/4/2 111/4/2 118/4/2
f 115/3/2 116/3/2 118/3/2
f 117/1/2 118/1/2 119/1/2
f 118/3/2 116/3/2 120/3/2
f 119/1/2 118/1/2 120/1/2
f 119/4/2 120/4/2 121/4/2
f 120/3/2 116/3/2 122/3/2
f 121/4/2 120/4/2 122/4/2
f 121/1/2 122/1/2 123/1/2
f 122/3/2 116/3/2 124/3/2
f 123/1/2 122/1/2 124/1/2
f 124/3/2 116/3/2 125/3/2
f 125/3/2 116/3/2 126/3/2
f 126/3/2 116/3/2 127/3/2
f 116/3/2 114/3/2 128/3/2
f 127/3/2 116/3/2 128/3/2
f 128/3/2 114/3/2 129/3/2
f 130/6/2 131/6/2 132/6/2
f 132/6/2 131/6/2 133/6/2
f 140/1/3 139/1/3 138/1/3
f 142/1/3 140/1/3 138/1/3
f 142/1/3 141/1/3 140/1/3
f 143/1/3 141/1/3 142/1/3
f 144/1/3 135/1/3 134/1/3
f 145/4/3 136/4/3 135/4/3
f 145/1/3 135/1/3 144/1/3
f 146/1/3 137/1/3 136/1/3
f 146/4/3 136/4/3 145/4/3
f 147/4/3 138/4/3 137/4/3
f 147/1/3 137/1/3 146/1/3
f 148/1/3 142/1/3 138/1/3
f 148/4/3 138/4/3 147/4/3
f 149/1/3 142/1/3 148/1/3
f 152/3/3 151/3/3 150/3/3
f 153/3/3 151/3/3 152/3/3
f 155/3/3 154/3/3 153/3/3
f 156/3/3 154/3/3 155/3/3
f 160/3/3 158/3/3 157/3/3
f 161/3/3 158/3/3 160/3/3
f 162/3/3 160/3/3 159/3/3
f 163/3/3 160/3/3 162/3/3
f 166/3/3 165/3/3 164/3/3
f 167/3/3 165/3/3 166/3/3
f 171/2/3 169/2/3 168/2/3
f 172/3/3 170/3/3 169/3/3
f 172/2/3 169/2/3 171/2/3
f 173/3/3 170/3/3 172/3/3
f 176/6/3 175/6/3 174/6/3
f 177/6/3 175/6/3 176/6/3
f 178/6/3 175/6/3 177/6/3
f 181/6/3 180/6/3 179/6/3
f 182/6/3 180/6/3 181/6/3
f 183/5/3 182/5/3 181/5/3
f 184/5/3 182/5/3 183/5/3
f 185/5/3 182/5/3 184/5/3
f 186/6/3 185/6/3 184/6/3
f 187/6/3 185/6/3 186/6/3
f 190/6/3 189/6/3 188/6/3
f 191/6/3 189/6/3 190/6/3
f 195/1/3 193/1/3 192/1/3
f 196/2/3 194/2/3 193/2/3
f 196/1/3 193/1/3 195/1/3
f 197/2/3 194/2/3 196/2/3
f 200/2/3 199/2/3 198/2/3
f 201/2/3 199/2/3 200/2/3
f 206/1/4 207/1/4 208/1/4
f 206/1/4 208/1/4 209/1/4
f 202/1/4 203/1/4 210/1/4
f 203/4/4 204/4/4 211/4/4
f 210/1/4 203/1/4 211/1/4
f 204/1/4 205/1/4 212/1/4
f 211/4/4 204/4/4 212/4/4
f 205/4/4 206/4/4 213/4/4
f 212/1/4 205/1/4 213/1/4
f 206/1/4 209/1/4 214/1/4
f 213/4/4 206/4/4 214/4/4
f 214/1/4 209/1/4 215/1/4
f 216/3/4 217/3/4 218/3/4
f 218/3/4 217/3/4 219/3/4
f 220/5/4 221/5/4 222/5/4
f 222/5/4 221/5/4 223/5/4
f 224/6/4 225/6/4 226/6/4
f 226/6/4 225/6/4 227/6/4
f 227/6/4 225/6/4 228/6/4
f 229/6/4 230/6/4 231/6/4
f 231/6/4 230/6/4 232/6/4
f 232/6/4 230/6/4 233/6/4
f 234/1/4 235/1/4 237/1/4
f 235/3/4 236/3/4 237/3/4
f 237/3/4 236/3/4 238/3/4
f 234/1/4 237/1/4 239/1/4
f 237/2/4 238/2/4 239/2/4
f 238/3/4 236/3/4 240/3/4
f 239/2/4 238/2/4 240/2/4
f 234/1/4 239/1/4 241/1/4
f 239/3/4 240/3/4 242/3/4
f 241/1/4 239/1/4 242/1/4
f 240/3/4 236/3/4 243/3/4
f 242/3/4 240/3/4 243/3/4
f 244/6/4 245/6/4 246/6/4
f 246/6/4 245/6/4 247/6/4
f 248/6/4 249/6/4 250/6/4
f 250/6/4 249/6/4 251/6/4
f 254/1/5 253/1/5 252/1/5
f 255/1/5 253/1/5 254/1/5
f 258/2/5 257/2/5 256/2/5
f 259/2/5 257/2/5 258/2/5
f 264/3/5 261/3/5 260/3/5
f 265/3/5 263/3/5 262/3/5
f 266/3/5 264/3/5 260/3/5
f 266/3/5 265/3/5 264/3/5
f 267/3/5 263/3/5 265/3/5
f 267/3/5 265/3/5 266/3/5
f 273/5/5 271/5/5 270/5/5
f 274/6/5 272/6/5 271/6/5
f 274/5/5 271/5/5 273/5/5
f 275/6/5 269/6/5 268/6/5
f 276/6/5 269/6/5 275/6/5
f 277/6/5 274/6/5 273/6/5
f 278/6/5 272/6/5 274/6/5
f 278/6/5 274/6/5 277/6/5
f 279/6/5 275/6/5 268/6/5
f 280/6/5 275/6/5 279/6/5
f 281/6/5 272/6/5 278/6/5
f 282/6/5 272/6/5 281/6/5
f 285/6/5 284/6/5 283/6/5
f 286/6/5 284/6/5 285/6/5
f 287/1/6 288/1/6 289/1/6
f 289/1/6 288/1/6 290/1/6
f 291/2/6 292/2/6 293/2/6
f 293/2/6 292/2/6 294/2/6
f 295/1/6 296/1/6 299/1/6
f 299/1/6 296/1/6 300/1/6
f 297/1/6 298/1/6 301/1/6
f 301/1/6 298/1/6 302/1/6
f 303/1/6 304/1/6 306/1/6
f 306/1/6 304/1/6 307/1/6
f 307/1/6 304/1/6 308/1/6
f 308/1/6 304/1/6 309/1/6
f 305/3/6 306/3/6 311/3/6
f 309/3/6 310/3/6 312/3/6
f 305/3/6 311/3/6 313/3/6
f 311/3/6 312/3/6 313/3/6
f 313/3/6 312/3/6 314/3/6
f 314/3/6 312/3/6 315/3/6
f 312/3/6 310/3/6 316/3/6
f 315/3/6 312/3/6 316/3/6
f 316/3/6 310/3/6 317/3/6
f 318/3/6 319/3/6 320/3/6
f 320/3/6 319/3/6 321/3/6
f 314/3/6 315/3/6 323/3/6
f 323/3/6 315/3/6 324/3/6
f 322/3/6 323/3/6 326/3/6
f 324/3/6 325/3/6 326/3/6
f 323/3/6 324/3/6 326/3/6
f 326/3/6 325/3/6 327/3/6
f 328/3/6 329/3/6 332/3/6
f 330/3/6 331/3/6 333/3/6
f 328/3/6 332/3/6 334/3/6
f 332/3/6 333/3/6 334/3/6
f 333/3/6 331/3/6 335/3/6
f 334/3/6 333/3/6 335/3/6
f 338/6/6 339/6/6 342/6/6
f 339/5/6 340/5/6 342/5/6
f 340/6/6 341/6/6 343/6/6
f 342/5/6 340/5/6 343/5/6
f 336/6/6 337/6/6 344/6/6
f 344/6/6 337/6/6 345/6/6
f 338/6/6 342/6/6 346/6/6
f 342/6/6 343/6/6 346/6/6
f 343/6/6 341/6/6 347/6/6
f 346/6/6 343/6/6 347/6/6
f 336/6/6 344/6/6 348/6/6
f 348/6/6 344/6/6 349/6/6
f 347/6/6 341/6/6 350/6/6
f 350/6/6 341/6/6 351/6/6
