# MagicaVoxel @ Ephtracy

# material
mtllib head.mtl
usemtl palette

# normals
vn -1 0 0
vn 1 0 0
vn 0 0 1
vn 0 0 -1
vn 0 -1 0
vn 0 1 0

# texcoords
vt 0.0644531 0.5
vt 0.0683594 0.5
vt 0.115234 0.5
vt 0.138672 0.5
vt 0.271484 0.5
vt 0.857422 0.5
vt 0.958984 0.5
vt 0.962891 0.5
vt 0.986328 0.5

# verts
v -2 28 4
v -2 28 3
v -2 31 4
v -2 31 3
v 0 27 9
v 0 27 5
v 0 28 8
v 0 28 6
v 0 30 8
v 0 30 6
v 0 31 9
v 0 31 5
v 1 21 16
v 1 21 4
v 1 22 4
v 1 22 -1
v 1 23 16
v 1 23 11
v 1 26 17
v 1 26 15
v 1 26 11
v 1 27 15
v 1 27 9
v 1 27 5
v 1 27 4
v 1 28 4
v 1 28 3
v 1 29 13
v 1 29 11
v 1 29 4
v 1 29 3
v 1 30 17
v 1 30 13
v 1 30 4
v 1 30 3
v 1 31 9
v 1 31 5
v 1 31 4
v 1 31 3
v 1 33 11
v 1 33 -1
v 2 23 15
v 2 23 11
v 2 24 16
v 2 24 15
v 2 24 11
v 2 25 16
v 2 25 11
v 2 30 -1
v 2 30 -9
v 2 33 2
v 2 33 -1
v 2 33 -6
v 2 33 -9
v 2 34 -4
v 2 34 -6
v 2 35 2
v 2 35 -4
v 3 27 17
v 3 27 16
v 3 29 17
v 3 29 16
v 6 23 11
v 6 23 10
v 6 24 11
v 6 25 11
v 6 25 10
v 6 27 16
v 6 27 15
v 6 28 16
v 6 28 15
v 6 30 -1
v 6 30 -9
v 6 32 -1
v 6 32 -2
v 6 33 2
v 6 33 -0
v 6 33 -6
v 6 33 -9
v 6 34 -0
v 6 34 -2
v 6 34 -4
v 6 34 -6
v 6 35 2
v 6 35 -4
v 7 21 7
v 7 21 4
v 7 22 4
v 7 22 -0
v 7 23 10
v 7 23 7
v 7 26 10
v 7 27 17
v 7 27 16
v 7 27 15
v 7 27 10
v 7 27 4
v 7 28 15
v 7 28 11
v 7 29 17
v 7 29 16
v 7 29 11
v 7 29 2
v 7 29 -0
v 2 21 7
v 2 21 4
v 2 22 4
v 2 22 -0
v 2 23 10
v 2 23 7
v 2 25 10
v 2 26 10
v 2 26 4
v 2 26 -0
v 2 27 17
v 2 27 16
v 2 27 15
v 2 27 -0
v 2 28 15
v 2 28 11
v 2 29 17
v 2 29 16
v 2 29 11
v 2 29 -0
v 3 23 11
v 3 23 10
v 3 24 11
v 3 24 10
v 3 30 -1
v 3 30 -9
v 3 32 -1
v 3 32 -2
v 3 33 2
v 3 33 -0
v 3 33 -6
v 3 33 -9
v 3 34 -0
v 3 34 -2
v 3 34 -4
v 3 34 -6
v 3 35 2
v 3 35 -4
v 5 24 11
v 5 24 10
v 5 25 11
v 5 25 10
v 5 27 16
v 5 27 15
v 5 28 16
v 5 28 15
v 6 24 16
v 6 24 15
v 6 24 11
v 6 25 16
v 6 25 11
v 6 26 10
v 6 26 -0
v 6 27 17
v 6 27 16
v 6 27 10
v 6 27 -0
v 6 29 17
v 6 29 16
v 7 23 15
v 7 23 11
v 7 24 15
v 7 24 11
v 7 30 -1
v 7 30 -9
v 7 33 2
v 7 33 -1
v 7 33 -6
v 7 33 -9
v 7 34 -4
v 7 34 -6
v 7 35 2
v 7 35 -4
v 8 21 16
v 8 21 4
v 8 22 4
v 8 22 -1
v 8 23 16
v 8 23 11
v 8 26 17
v 8 26 15
v 8 26 11
v 8 27 15
v 8 27 9
v 8 27 5
v 8 27 4
v 8 28 4
v 8 28 3
v 8 29 13
v 8 29 11
v 8 29 4
v 8 29 3
v 8 30 17
v 8 30 13
v 8 30 4
v 8 30 3
v 8 31 9
v 8 31 5
v 8 31 4
v 8 31 3
v 8 33 11
v 8 33 -1
v 9 27 9
v 9 27 5
v 9 28 8
v 9 28 6
v 9 30 8
v 9 30 6
v 9 31 9
v 9 31 5
v 11 28 4
v 11 28 3
v 11 31 4
v 11 31 3
v 1 26 17
v 1 30 17
v 2 27 17
v 2 29 17
v 3 27 17
v 3 29 17
v 6 27 17
v 6 29 17
v 7 27 17
v 7 29 17
v 8 26 17
v 8 30 17
v 1 21 16
v 1 23 16
v 2 24 16
v 2 25 16
v 2 27 16
v 2 29 16
v 3 27 16
v 3 29 16
v 6 24 16
v 6 25 16
v 6 27 16
v 6 29 16
v 7 27 16
v 7 29 16
v 8 21 16
v 8 23 16
v 2 23 15
v 2 24 15
v 6 24 15
v 7 23 15
v 7 24 15
v 1 23 11
v 1 26 11
v 1 29 11
v 1 33 11
v 2 23 11
v 2 24 11
v 2 25 11
v 2 26 11
v 2 31 11
v 2 32 11
v 3 25 11
v 3 26 11
v 6 24 11
v 6 25 11
v 7 23 11
v 7 24 11
v 7 26 11
v 7 31 11
v 7 32 11
v 8 23 11
v 8 26 11
v 8 29 11
v 8 33 11
v 0 27 9
v 0 31 9
v 1 27 9
v 1 31 9
v 8 27 9
v 8 31 9
v 9 27 9
v 9 31 9
v -2 28 4
v -2 31 4
v -1 29 4
v -1 30 4
v 1 28 4
v 1 29 4
v 1 30 4
v 1 31 4
v 8 28 4
v 8 29 4
v 8 30 4
v 8 31 4
v 10 29 4
v 10 30 4
v 11 28 4
v 11 31 4
v 2 33 2
v 2 35 2
v 3 33 2
v 3 35 2
v 6 33 2
v 6 35 2
v 7 33 2
v 7 35 2
v 2 22 -0
v 2 26 -0
v 2 27 -0
v 2 29 -0
v 3 33 -0
v 3 34 -0
v 6 26 -0
v 6 27 -0
v 6 29 -0
v 6 33 -0
v 6 34 -0
v 7 22 -0
v 7 29 -0
v 5 27 16
v 5 28 16
v 6 27 16
v 6 28 16
v 2 27 15
v 2 28 15
v 3 27 15
v 3 28 15
v 5 27 15
v 5 28 15
v 6 27 15
v 6 28 15
v 7 27 15
v 7 28 15
v 1 29 13
v 1 30 13
v 8 29 13
v 8 30 13
v 2 28 11
v 2 29 11
v 3 23 11
v 3 24 11
v 5 24 11
v 5 25 11
v 6 23 11
v 6 24 11
v 6 25 11
v 7 28 11
v 7 29 11
v 2 23 10
v 2 25 10
v 2 26 10
v 3 23 10
v 3 24 10
v 3 25 10
v 3 26 10
v 5 24 10
v 5 25 10
v 6 23 10
v 6 25 10
v 6 26 10
v 6 27 10
v 7 23 10
v 7 26 10
v 7 27 10
v 2 21 7
v 2 23 7
v 7 21 7
v 7 23 7
v 0 27 5
v 0 31 5
v 1 27 5
v 1 31 5
v 8 27 5
v 8 31 5
v 9 27 5
v 9 31 5
v 1 21 4
v 1 22 4
v 2 21 4
v 2 22 4
v 7 21 4
v 7 22 4
v 8 21 4
v 8 22 4
v -2 28 3
v -2 31 3
v -1 29 3
v -1 30 3
v 1 28 3
v 1 29 3
v 1 30 3
v 1 31 3
v 8 28 3
v 8 29 3
v 8 30 3
v 8 31 3
v 10 29 3
v 10 30 3
v 11 28 3
v 11 31 3
v 1 22 -1
v 1 33 -1
v 2 30 -1
v 2 33 -1
v 3 30 -1
v 3 32 -1
v 6 29 -1
v 6 30 -1
v 6 32 -1
v 7 29 -1
v 7 30 -1
v 7 33 -1
v 8 22 -1
v 8 33 -1
v 3 32 -2
v 3 34 -2
v 6 32 -2
v 6 34 -2
v 2 34 -4
v 2 35 -4
v 3 34 -4
v 3 35 -4
v 6 34 -4
v 6 35 -4
v 7 34 -4
v 7 35 -4
v 2 33 -6
v 2 34 -6
v 3 33 -6
v 3 34 -6
v 6 33 -6
v 6 34 -6
v 7 33 -6
v 7 34 -6
v 2 30 -9
v 2 33 -9
v 3 30 -9
v 3 33 -9
v 6 30 -9
v 6 33 -9
v 7 30 -9
v 7 33 -9
v 1 21 16
v 8 21 16
v 2 21 7
v 7 21 7
v 1 21 4
v 2 21 4
v 7 21 4
v 8 21 4
v 1 22 4
v 2 22 4
v 7 22 4
v 8 22 4
v 2 22 -0
v 7 22 -0
v 1 22 -1
v 8 22 -1
v 2 24 16
v 6 24 16
v 2 24 15
v 6 24 15
v 3 24 11
v 5 24 11
v 3 24 10
v 5 24 10
v 5 25 11
v 6 25 11
v 5 25 10
v 6 25 10
v 1 26 17
v 8 26 17
v 1 26 15
v 2 26 15
v 7 26 15
v 8 26 15
v 1 26 11
v 2 26 11
v 3 26 11
v 7 26 11
v 8 26 11
v 2 26 10
v 3 26 10
v 6 26 10
v 2 26 4
v 2 26 -0
v 6 26 -0
v 0 27 9
v 1 27 9
v 8 27 9
v 9 27 9
v 0 27 5
v 1 27 5
v 8 27 5
v 9 27 5
v 5 28 16
v 6 28 16
v 2 28 15
v 3 28 15
v 5 28 15
v 6 28 15
v 7 28 15
v 2 28 11
v 7 28 11
v -2 28 4
v 1 28 4
v 8 28 4
v 11 28 4
v -2 28 3
v 1 28 3
v 8 28 3
v 11 28 3
v 2 29 17
v 3 29 17
v 6 29 17
v 7 29 17
v 2 29 16
v 3 29 16
v 6 29 16
v 7 29 16
v 2 29 11
v 7 29 11
v 6 29 2
v 7 29 2
v 2 29 -0
v 6 29 -0
v 7 29 -0
v 2 30 -1
v 3 30 -1
v 6 30 -1
v 7 30 -1
v 2 30 -9
v 3 30 -9
v 6 30 -9
v 7 30 -9
v 3 32 -1
v 6 32 -1
v 3 32 -2
v 6 32 -2
v 1 23 16
v 8 23 16
v 2 23 15
v 7 23 15
v 1 23 11
v 2 23 11
v 3 23 11
v 6 23 11
v 7 23 11
v 8 23 11
v 2 23 10
v 3 23 10
v 6 23 10
v 7 23 10
v 2 23 7
v 7 23 7
v 6 24 15
v 7 24 15
v 6 24 11
v 7 24 11
v 2 25 16
v 6 25 16
v 2 25 11
v 3 25 11
v 6 25 11
v 2 27 17
v 3 27 17
v 6 27 17
v 7 27 17
v 2 27 16
v 3 27 16
v 5 27 16
v 6 27 16
v 7 27 16
v 2 27 15
v 3 27 15
v 5 27 15
v 6 27 15
v 7 27 15
v 6 27 10
v 7 27 10
v 2 27 -0
v 6 27 -0
v 1 29 13
v 8 29 13
v 1 29 11
v 8 29 11
v 1 30 17
v 8 30 17
v 1 30 13
v 8 30 13
v 0 31 9
v 1 31 9
v 8 31 9
v 9 31 9
v 0 31 5
v 1 31 5
v 8 31 5
v 9 31 5
v -2 31 4
v 1 31 4
v 8 31 4
v 11 31 4
v -2 31 3
v 1 31 3
v 8 31 3
v 11 31 3
v 1 33 11
v 8 33 11
v 2 33 2
v 3 33 2
v 6 33 2
v 7 33 2
v 3 33 -0
v 6 33 -0
v 1 33 -1
v 2 33 -1
v 7 33 -1
v 8 33 -1
v 2 33 -6
v 3 33 -6
v 6 33 -6
v 7 33 -6
v 2 33 -9
v 3 33 -9
v 6 33 -9
v 7 33 -9
v 3 34 -0
v 6 34 -0
v 3 34 -2
v 6 34 -2
v 2 34 -4
v 3 34 -4
v 6 34 -4
v 7 34 -4
v 2 34 -6
v 3 34 -6
v 6 34 -6
v 7 34 -6
v 2 35 2
v 3 35 2
v 6 35 2
v 7 35 2
v 2 35 -4
v 3 35 -4
v 6 35 -4
v 7 35 -4

# faces
f 3/4/1 2/4/1 1/4/1
f 4/4/1 2/4/1 3/4/1
f 7/8/1 6/8/1 5/8/1
f 8/8/1 6/8/1 7/8/1
f 9/8/1 7/8/1 5/8/1
f 9/9/1 8/9/1 7/9/1
f 10/8/1 6/8/1 8/8/1
f 10/9/1 8/9/1 9/9/1
f 11/8/1 9/8/1 5/8/1
f 11/8/1 10/8/1 9/8/1
f 12/8/1 6/8/1 10/8/1
f 12/8/1 10/8/1 11/8/1
f 15/2/1 14/2/1 13/2/1
f 17/2/1 15/2/1 13/2/1
f 18/2/1 15/2/1 17/2/1
f 21/2/1 15/2/1 18/2/1
f 22/4/1 20/4/1 19/4/1
f 22/2/1 21/2/1 20/2/1
f 23/2/1 15/2/1 21/2/1
f 23/2/1 21/2/1 22/2/1
f 24/2/1 15/2/1 23/2/1
f 25/4/1 16/4/1 15/4/1
f 25/2/1 15/2/1 24/2/1
f 26/4/1 16/4/1 25/4/1
f 26/4/1 25/4/1 24/4/1
f 27/4/1 16/4/1 26/4/1
f 28/4/1 23/4/1 22/4/1
f 29/4/1 23/4/1 28/4/1
f 30/4/1 26/4/1 24/4/1
f 31/4/1 16/4/1 27/4/1
f 32/4/1 22/4/1 19/4/1
f 32/4/1 28/4/1 22/4/1
f 33/4/1 28/4/1 32/4/1
f 34/4/1 30/4/1 24/4/1
f 35/4/1 16/4/1 31/4/1
f 36/4/1 23/4/1 29/4/1
f 37/4/1 34/4/1 24/4/1
f 38/4/1 34/4/1 37/4/1
f 39/4/1 16/4/1 35/4/1
f 40/4/1 38/4/1 37/4/1
f 40/4/1 39/4/1 38/4/1
f 40/4/1 36/4/1 29/4/1
f 40/4/1 37/4/1 36/4/1
f 41/4/1 16/4/1 39/4/1
f 41/4/1 39/4/1 40/4/1
f 45/7/1 43/7/1 42/7/1
f 46/7/1 43/7/1 45/7/1
f 47/5/1 45/5/1 44/5/1
f 47/5/1 46/5/1 45/5/1
f 48/5/1 46/5/1 47/5/1
f 52/7/1 50/7/1 49/7/1
f 53/7/1 50/7/1 52/7/1
f 54/7/1 50/7/1 53/7/1
f 55/7/1 52/7/1 51/7/1
f 55/7/1 53/7/1 52/7/1
f 56/7/1 53/7/1 55/7/1
f 57/7/1 55/7/1 51/7/1
f 58/7/1 55/7/1 57/7/1
f 61/4/1 60/4/1 59/4/1
f 62/4/1 60/4/1 61/4/1
f 65/2/1 64/2/1 63/2/1
f 66/2/1 64/2/1 65/2/1
f 67/2/1 64/2/1 66/2/1
f 70/6/1 69/6/1 68/6/1
f 71/6/1 69/6/1 70/6/1
f 74/7/1 73/7/1 72/7/1
f 75/7/1 73/7/1 74/7/1
f 78/7/1 73/7/1 75/7/1
f 79/7/1 73/7/1 78/7/1
f 80/7/1 77/7/1 76/7/1
f 81/7/1 78/7/1 75/7/1
f 82/7/1 78/7/1 81/7/1
f 83/7/1 78/7/1 82/7/1
f 84/7/1 80/7/1 76/7/1
f 84/7/1 81/7/1 80/7/1
f 84/7/1 82/7/1 81/7/1
f 85/7/1 82/7/1 84/7/1
f 88/2/1 87/2/1 86/2/1
f 91/2/1 88/2/1 86/2/1
f 92/2/1 91/2/1 90/2/1
f 96/2/1 91/2/1 92/2/1
f 97/4/1 89/4/1 88/4/1
f 97/2/1 88/2/1 91/2/1
f 97/2/1 91/2/1 96/2/1
f 98/4/1 96/4/1 95/4/1
f 98/4/1 97/4/1 96/4/1
f 99/4/1 97/4/1 98/4/1
f 100/4/1 94/4/1 93/4/1
f 101/4/1 94/4/1 100/4/1
f 102/4/1 97/4/1 99/4/1
f 103/4/1 89/4/1 97/4/1
f 103/4/1 97/4/1 102/4/1
f 104/4/1 89/4/1 103/4/1
f 105/2/2 106/2/2 107/2/2
f 105/2/2 107/2/2 110/2/2
f 109/2/2 110/2/2 111/2/2
f 111/2/2 110/2/2 112/2/2
f 107/4/2 108/4/2 113/4/2
f 112/2/2 110/2/2 113/2/2
f 110/2/2 107/2/2 113/2/2
f 113/4/2 108/4/2 114/4/2
f 117/4/2 118/4/2 119/4/2
f 119/4/2 118/4/2 120/4/2
f 115/4/2 116/4/2 121/4/2
f 121/4/2 116/4/2 122/4/2
f 120/4/2 118/4/2 123/4/2
f 123/4/2 118/4/2 124/4/2
f 125/2/2 126/2/2 127/2/2
f 127/2/2 126/2/2 128/2/2
f 129/7/2 130/7/2 131/7/2
f 131/7/2 130/7/2 132/7/2
f 132/7/2 130/7/2 135/7/2
f 135/7/2 130/7/2 136/7/2
f 133/7/2 134/7/2 137/7/2
f 132/7/2 135/7/2 138/7/2
f 138/7/2 135/7/2 139/7/2
f 139/7/2 135/7/2 140/7/2
f 133/7/2 137/7/2 141/7/2
f 137/7/2 138/7/2 141/7/2
f 138/7/2 139/7/2 141/7/2
f 141/7/2 139/7/2 142/7/2
f 143/2/2 144/2/2 145/2/2
f 145/2/2 144/2/2 146/2/2
f 147/4/2 148/4/2 149/4/2
f 149/4/2 148/4/2 150/4/2
f 151/5/2 152/5/2 154/5/2
f 152/5/2 153/5/2 154/5/2
f 154/5/2 153/5/2 155/5/2
f 156/4/2 157/4/2 160/4/2
f 160/4/2 157/4/2 161/4/2
f 158/4/2 159/4/2 162/4/2
f 162/4/2 159/4/2 163/4/2
f 164/7/2 165/7/2 166/7/2
f 166/7/2 165/7/2 167/7/2
f 168/7/2 169/7/2 171/7/2
f 171/7/2 169/7/2 172/7/2
f 172/7/2 169/7/2 173/7/2
f 170/7/2 171/7/2 174/7/2
f 171/7/2 172/7/2 174/7/2
f 174/7/2 172/7/2 175/7/2
f 170/7/2 174/7/2 176/7/2
f 176/7/2 174/7/2 177/7/2
f 178/2/2 179/2/2 180/2/2
f 178/2/2 180/2/2 182/2/2
f 182/2/2 180/2/2 183/2/2
f 183/2/2 180/2/2 186/2/2
f 184/4/2 185/4/2 187/4/2
f 185/2/2 186/2/2 187/2/2
f 186/2/2 180/2/2 188/2/2
f 187/2/2 186/2/2 188/2/2
f 188/2/2 180/2/2 189/2/2
f 180/4/2 181/4/2 190/4/2
f 189/2/2 180/2/2 190/2/2
f 190/4/2 181/4/2 191/4/2
f 189/4/2 190/4/2 191/4/2
f 191/4/2 181/4/2 192/4/2
f 187/4/2 188/4/2 193/4/2
f 193/4/2 188/4/2 194/4/2
f 189/4/2 191/4/2 195/4/2
f 192/4/2 181/4/2 196/4/2
f 184/4/2 187/4/2 197/4/2
f 187/4/2 193/4/2 197/4/2
f 197/4/2 193/4/2 198/4/2
f 189/4/2 195/4/2 199/4/2
f 196/4/2 181/4/2 200/4/2
f 194/4/2 188/4/2 201/4/2
f 189/4/2 199/4/2 202/4/2
f 202/4/2 199/4/2 203/4/2
f 200/4/2 181/4/2 204/4/2
f 202/4/2 203/4/2 205/4/2
f 203/4/2 204/4/2 205/4/2
f 194/4/2 201/4/2 205/4/2
f 201/4/2 202/4/2 205/4/2
f 204/4/2 181/4/2 206/4/2
f 205/4/2 204/4/2 206/4/2
f 207/8/2 208/8/2 209/8/2
f 209/8/2 208/8/2 210/8/2
f 207/8/2 209/8/2 211/8/2
f 209/9/2 210/9/2 211/9/2
f 210/8/2 208/8/2 212/8/2
f 211/9/2 210/9/2 212/9/2
f 207/8/2 211/8/2 213/8/2
f 211/8/2 212/8/2 213/8/2
f 212/8/2 208/8/2 214/8/2
f 213/8/2 212/8/2 214/8/2
f 215/4/2 216/4/2 217/4/2
f 217/4/2 216/4/2 218/4/2
f 221/4/3 220/4/3 219/4/3
f 222/4/3 220/4/3 221/4/3
f 223/4/3 221/4/3 219/4/3
f 224/4/3 220/4/3 222/4/3
f 225/4/3 223/4/3 219/4/3
f 225/4/3 224/4/3 223/4/3
f 226/4/3 220/4/3 224/4/3
f 226/4/3 224/4/3 225/4/3
f 227/4/3 225/4/3 219/4/3
f 228/4/3 220/4/3 226/4/3
f 229/4/3 227/4/3 219/4/3
f 229/4/3 228/4/3 227/4/3
f 230/4/3 220/4/3 228/4/3
f 230/4/3 228/4/3 229/4/3
f 237/6/3 236/6/3 235/6/3
f 238/6/3 236/6/3 237/6/3
f 239/5/3 234/5/3 233/5/3
f 240/5/3 234/5/3 239/5/3
f 243/6/3 242/6/3 241/6/3
f 244/6/3 242/6/3 243/6/3
f 245/2/3 232/2/3 231/2/3
f 246/2/3 232/2/3 245/2/3
f 249/7/3 248/7/3 247/7/3
f 250/7/3 249/7/3 247/7/3
f 251/7/3 249/7/3 250/7/3
f 256/2/3 253/2/3 252/2/3
f 257/2/3 253/2/3 256/2/3
f 258/2/3 253/2/3 257/2/3
f 259/2/3 253/2/3 258/2/3
f 260/4/3 255/4/3 254/4/3
f 261/4/3 255/4/3 260/4/3
f 262/4/3 259/4/3 258/4/3
f 263/4/3 259/4/3 262/4/3
f 265/2/3 263/2/3 262/2/3
f 267/2/3 265/2/3 264/2/3
f 268/2/3 263/2/3 265/2/3
f 268/2/3 265/2/3 267/2/3
f 269/3/3 261/3/3 260/3/3
f 269/4/3 260/4/3 254/4/3
f 270/4/3 255/4/3 261/4/3
f 270/3/3 261/3/3 269/3/3
f 271/2/3 268/2/3 267/2/3
f 271/2/3 267/2/3 266/2/3
f 272/2/3 268/2/3 271/2/3
f 273/4/3 269/4/3 254/4/3
f 273/4/3 270/4/3 269/4/3
f 274/4/3 255/4/3 270/4/3
f 274/4/3 270/4/3 273/4/3
f 277/8/3 276/8/3 275/8/3
f 278/8/3 276/8/3 277/8/3
f 281/8/3 280/8/3 279/8/3
f 282/8/3 280/8/3 281/8/3
f 285/4/3 284/4/3 283/4/3
f 286/4/3 284/4/3 285/4/3
f 287/4/3 285/4/3 283/4/3
f 288/1/3 286/1/3 285/1/3
f 288/4/3 285/4/3 287/4/3
f 289/4/3 284/4/3 286/4/3
f 289/1/3 286/1/3 288/1/3
f 290/4/3 284/4/3 289/4/3
f 295/4/3 292/4/3 291/4/3
f 295/1/3 293/1/3 292/1/3
f 296/4/3 294/4/3 293/4/3
f 296/1/3 293/1/3 295/1/3
f 297/4/3 295/4/3 291/4/3
f 297/4/3 296/4/3 295/4/3
f 298/4/3 294/4/3 296/4/3
f 298/4/3 296/4/3 297/4/3
f 301/7/3 300/7/3 299/7/3
f 302/7/3 300/7/3 301/7/3
f 305/7/3 304/7/3 303/7/3
f 306/7/3 304/7/3 305/7/3
f 313/4/3 308/4/3 307/4/3
f 314/4/3 310/4/3 309/4/3
f 315/4/3 310/4/3 314/4/3
f 316/7/3 312/7/3 311/7/3
f 317/7/3 312/7/3 316/7/3
f 318/4/3 315/4/3 314/4/3
f 318/4/3 313/4/3 307/4/3
f 318/4/3 314/4/3 313/4/3
f 319/4/3 315/4/3 318/4/3
f 320/4/4 321/4/4 322/4/4
f 322/4/4 321/4/4 323/4/4
f 324/6/4 325/6/4 326/6/4
f 326/6/4 325/6/4 327/6/4
f 326/4/4 327/4/4 328/4/4
f 328/4/4 327/4/4 329/4/4
f 330/6/4 331/6/4 332/6/4
f 332/6/4 331/6/4 333/6/4
f 334/4/4 335/4/4 336/4/4
f 336/4/4 335/4/4 337/4/4
f 340/7/4 341/7/4 342/7/4
f 340/7/4 342/7/4 344/7/4
f 342/5/4 343/5/4 345/5/4
f 344/7/4 342/7/4 345/7/4
f 345/5/4 343/5/4 346/5/4
f 338/4/4 339/4/4 347/4/4
f 347/4/4 339/4/4 348/4/4
f 349/2/4 350/2/4 352/2/4
f 352/2/4 350/2/4 353/2/4
f 350/4/4 351/4/4 354/4/4
f 353/2/4 350/2/4 354/2/4
f 354/4/4 351/4/4 355/4/4
f 353/2/4 354/2/4 356/2/4
f 354/2/4 355/2/4 356/2/4
f 356/2/4 355/2/4 357/2/4
f 357/2/4 355/2/4 359/2/4
f 359/2/4 355/2/4 360/2/4
f 359/2/4 360/2/4 362/2/4
f 358/2/4 359/2/4 362/2/4
f 360/4/4 361/4/4 363/4/4
f 362/2/4 360/2/4 363/2/4
f 363/4/4 361/4/4 364/4/4
f 365/2/4 366/2/4 367/2/4
f 367/2/4 366/2/4 368/2/4
f 369/8/4 370/8/4 371/8/4
f 371/8/4 370/8/4 372/8/4
f 373/8/4 374/8/4 375/8/4
f 375/8/4 374/8/4 376/8/4
f 377/2/4 378/2/4 379/2/4
f 379/2/4 378/2/4 380/2/4
f 381/2/4 382/2/4 383/2/4
f 383/2/4 382/2/4 384/2/4
f 385/4/4 386/4/4 387/4/4
f 387/4/4 386/4/4 388/4/4
f 385/4/4 387/4/4 389/4/4
f 387/1/4 388/1/4 390/1/4
f 389/4/4 387/4/4 390/4/4
f 388/4/4 386/4/4 391/4/4
f 390/1/4 388/1/4 391/1/4
f 391/4/4 386/4/4 392/4/4
f 393/4/4 394/4/4 397/4/4
f 394/1/4 395/1/4 397/1/4
f 395/4/4 396/4/4 398/4/4
f 397/1/4 395/1/4 398/1/4
f 393/4/4 397/4/4 399/4/4
f 397/4/4 398/4/4 399/4/4
f 398/4/4 396/4/4 400/4/4
f 399/4/4 398/4/4 400/4/4
f 401/4/4 402/4/4 403/4/4
f 403/4/4 402/4/4 404/4/4
f 401/4/4 403/4/4 405/4/4
f 401/4/4 405/4/4 407/4/4
f 405/4/4 406/4/4 407/4/4
f 407/4/4 406/4/4 408/4/4
f 408/4/4 406/4/4 409/4/4
f 401/4/4 407/4/4 410/4/4
f 407/3/4 408/3/4 410/3/4
f 410/3/4 408/3/4 411/3/4
f 410/4/4 411/4/4 413/4/4
f 411/4/4 412/4/4 413/4/4
f 401/4/4 410/4/4 413/4/4
f 413/4/4 412/4/4 414/4/4
f 415/7/4 416/7/4 417/7/4
f 417/7/4 416/7/4 418/7/4
f 419/7/4 420/7/4 421/7/4
f 421/7/4 420/7/4 422/7/4
f 423/7/4 424/7/4 425/7/4
f 425/7/4 424/7/4 426/7/4
f 427/7/4 428/7/4 429/7/4
f 429/7/4 428/7/4 430/7/4
f 431/7/4 432/7/4 433/7/4
f 433/7/4 432/7/4 434/7/4
f 435/7/4 436/7/4 437/7/4
f 437/7/4 436/7/4 438/7/4
f 439/7/4 440/7/4 441/7/4
f 441/7/4 440/7/4 442/7/4
f 445/2/5 444/2/5 443/2/5
f 446/2/5 444/2/5 445/2/5
f 447/2/5 445/2/5 443/2/5
f 448/2/5 445/2/5 447/2/5
f 449/2/5 444/2/5 446/2/5
f 450/2/5 444/2/5 449/2/5
f 455/4/5 452/4/5 451/4/5
f 456/4/5 454/4/5 453/4/5
f 457/4/5 455/4/5 451/4/5
f 457/4/5 456/4/5 455/4/5
f 458/4/5 454/4/5 456/4/5
f 458/4/5 456/4/5 457/4/5
f 461/5/5 460/5/5 459/5/5
f 462/5/5 460/5/5 461/5/5
f 465/2/5 464/2/5 463/2/5
f 466/2/5 464/2/5 465/2/5
f 469/2/5 468/2/5 467/2/5
f 470/2/5 468/2/5 469/2/5
f 473/4/5 472/4/5 471/4/5
f 474/4/5 472/4/5 473/4/5
f 475/4/5 472/4/5 474/4/5
f 476/4/5 472/4/5 475/4/5
f 477/2/5 474/2/5 473/2/5
f 478/4/5 475/4/5 474/4/5
f 478/2/5 474/2/5 477/2/5
f 479/4/5 475/4/5 478/4/5
f 480/2/5 476/2/5 475/2/5
f 480/4/5 475/4/5 479/4/5
f 481/2/5 476/2/5 480/2/5
f 485/4/5 483/4/5 482/4/5
f 485/4/5 484/4/5 483/4/5
f 486/4/5 484/4/5 485/4/5
f 487/4/5 484/4/5 486/4/5
f 492/8/5 489/8/5 488/8/5
f 493/8/5 489/8/5 492/8/5
f 494/8/5 491/8/5 490/8/5
f 495/8/5 491/8/5 494/8/5
f 500/4/5 497/4/5 496/4/5
f 501/4/5 497/4/5 500/4/5
f 503/4/5 499/4/5 498/4/5
f 503/4/5 502/4/5 501/4/5
f 503/4/5 501/4/5 500/4/5
f 503/4/5 500/4/5 499/4/5
f 504/4/5 502/4/5 503/4/5
f 509/4/5 506/4/5 505/4/5
f 510/4/5 506/4/5 509/4/5
f 511/4/5 508/4/5 507/4/5
f 512/4/5 508/4/5 511/4/5
f 517/4/5 514/4/5 513/4/5
f 518/4/5 514/4/5 517/4/5
f 519/4/5 516/4/5 515/4/5
f 520/4/5 516/4/5 519/4/5
f 523/4/5 522/4/5 521/4/5
f 524/4/5 522/4/5 523/4/5
f 525/4/5 523/4/5 521/4/5
f 526/3/5 524/3/5 523/3/5
f 526/4/5 523/4/5 525/4/5
f 527/3/5 524/3/5 526/3/5
f 532/7/5 529/7/5 528/7/5
f 533/7/5 529/7/5 532/7/5
f 534/7/5 531/7/5 530/7/5
f 535/7/5 531/7/5 534/7/5
f 538/7/5 537/7/5 536/7/5
f 539/7/5 537/7/5 538/7/5
f 540/2/6 541/2/6 542/2/6
f 542/2/6 541/2/6 543/2/6
f 540/2/6 542/2/6 544/2/6
f 544/2/6 542/2/6 545/2/6
f 543/2/6 541/2/6 548/2/6
f 548/2/6 541/2/6 549/2/6
f 546/2/6 547/2/6 551/2/6
f 551/2/6 547/2/6 552/2/6
f 550/2/6 551/2/6 554/2/6
f 552/2/6 553/2/6 554/2/6
f 551/2/6 552/2/6 554/2/6
f 554/2/6 553/2/6 555/2/6
f 556/7/6 557/7/6 558/7/6
f 558/7/6 557/7/6 559/7/6
f 560/5/6 561/5/6 562/5/6
f 562/5/6 561/5/6 563/5/6
f 563/5/6 561/5/6 564/5/6
f 565/4/6 566/4/6 569/4/6
f 569/4/6 566/4/6 570/4/6
f 567/4/6 568/4/6 572/4/6
f 572/4/6 568/4/6 573/4/6
f 571/4/6 572/4/6 576/4/6
f 576/4/6 572/4/6 577/4/6
f 574/4/6 575/4/6 579/4/6
f 577/4/6 578/4/6 579/4/6
f 576/4/6 577/4/6 579/4/6
f 575/4/6 576/4/6 579/4/6
f 579/4/6 578/4/6 580/4/6
f 574/4/6 579/4/6 581/4/6
f 581/4/6 579/4/6 582/4/6
f 583/4/6 584/4/6 585/4/6
f 585/4/6 584/4/6 586/4/6
f 587/4/6 588/4/6 589/4/6
f 589/4/6 588/4/6 590/4/6
f 591/8/6 592/8/6 595/8/6
f 595/8/6 592/8/6 596/8/6
f 593/8/6 594/8/6 597/8/6
f 597/8/6 594/8/6 598/8/6
f 599/4/6 600/4/6 603/4/6
f 603/4/6 600/4/6 604/4/6
f 601/4/6 602/4/6 605/4/6
f 605/4/6 602/4/6 606/4/6
f 607/4/6 608/4/6 609/4/6
f 609/4/6 608/4/6 610/4/6
f 610/4/6 608/4/6 611/4/6
f 611/4/6 608/4/6 612/4/6
f 610/4/6 611/4/6 613/4/6
f 613/4/6 611/4/6 614/4/6
f 607/4/6 609/4/6 615/4/6
f 615/4/6 609/4/6 616/4/6
f 612/4/6 608/4/6 617/4/6
f 617/4/6 608/4/6 618/4/6
f 619/7/6 620/7/6 623/7/6
f 623/7/6 620/7/6 624/7/6
f 621/7/6 622/7/6 625/7/6
f 625/7/6 622/7/6 626/7/6
f 627/7/6 628/7/6 629/7/6
f 629/7/6 628/7/6 630/7/6
f 631/7/6 632/7/6 635/7/6
f 635/7/6 632/7/6 636/7/6
f 633/7/6 634/7/6 637/7/6
f 637/7/6 634/7/6 638/7/6
f 639/7/6 640/7/6 643/7/6
f 643/7/6 640/7/6 644/7/6
f 641/7/6 642/7/6 645/7/6
f 645/7/6 642/7/6 646/7/6
