# MagicaVoxel @ Ephtracy

# material
mtllib rightarm.mtl
usemtl palette

# normals
vn -1 0 0
vn 1 0 0
vn 0 0 1
vn 0 0 -1
vn 0 -1 0
vn 0 1 0

# texcoords
vt 0.115234 0.5
vt 0.279297 0.5

# verts
v -1 7 13
v -1 7 8
v -1 7 4
v -1 10 13
v -1 10 8
v -1 10 7
v -1 14 7
v -1 14 4
v 1 10 7
v 1 10 4
v 1 14 7
v 1 14 4
v 2 7 13
v 2 7 8
v 2 7 4
v 2 10 13
v 2 10 8
v 2 10 4
v -1 7 13
v -1 10 13
v 2 7 13
v 2 10 13
v -1 10 7
v -1 14 7
v 1 10 7
v 1 14 7
v -1 7 4
v -1 14 4
v 1 10 4
v 1 14 4
v 2 7 4
v 2 10 4
v -1 7 13
v 2 7 13
v -1 7 8
v 2 7 8
v -1 7 4
v 2 7 4
v -1 10 13
v 2 10 13
v -1 10 8
v 2 10 8
v -1 10 7
v 1 10 7
v 1 10 4
v 2 10 4
v -1 14 7
v 1 14 7
v -1 14 4
v 1 14 4

# faces
f 4/2/1 2/2/1 1/2/1
f 5/1/1 3/1/1 2/1/1
f 5/2/1 2/2/1 4/2/1
f 6/1/1 3/1/1 5/1/1
f 7/1/1 3/1/1 6/1/1
f 8/1/1 3/1/1 7/1/1
f 9/1/2 10/1/2 11/1/2
f 11/1/2 10/1/2 12/1/2
f 13/2/2 14/2/2 16/2/2
f 14/1/2 15/1/2 17/1/2
f 16/2/2 14/2/2 17/2/2
f 17/1/2 15/1/2 18/1/2
f 21/2/3 20/2/3 19/2/3
f 22/2/3 20/2/3 21/2/3
f 25/1/3 24/1/3 23/1/3
f 26/1/3 24/1/3 25/1/3
f 27/1/4 28/1/4 29/1/4
f 29/1/4 28/1/4 30/1/4
f 27/1/4 29/1/4 31/1/4
f 31/1/4 29/1/4 32/1/4
f 35/2/5 34/2/5 33/2/5
f 36/2/5 34/2/5 35/2/5
f 37/1/5 36/1/5 35/1/5
f 38/1/5 36/1/5 37/1/5
f 39/2/6 40/2/6 41/2/6
f 41/2/6 40/2/6 42/2/6
f 41/1/6 42/1/6 43/1/6
f 43/1/6 42/1/6 44/1/6
f 44/1/6 42/1/6 45/1/6
f 45/1/6 42/1/6 46/1/6
f 47/1/6 48/1/6 49/1/6
f 49/1/6 48/1/6 50/1/6
