# MagicaVoxel @ Ephtracy

# material
mtllib rightleg.mtl
usemtl palette

# normals
vn -1 0 0
vn 1 0 0
vn 0 0 1
vn 0 0 -1
vn 0 -1 0
vn 0 1 0

# texcoords
vt 0.115234 0.5
vt 0.279297 0.5
vt 0.962891 0.5

# verts
v -1 7 -0
v -1 7 -1
v -1 7 -8
v -1 8 -0
v -1 8 -1
v -1 9 -1
v -1 9 -3
v -1 12 1
v -1 12 -3
v -1 12 -8
v -1 21 1
v -1 21 -8
v 1 7 -0
v 1 7 -1
v 1 8 -0
v 1 8 -1
v 0 7 -0
v 0 7 -1
v 0 8 -0
v 0 8 -1
v 1 17 1
v 1 17 -8
v 1 21 1
v 1 21 -8
v 2 7 -0
v 2 7 -1
v 2 7 -8
v 2 8 -0
v 2 8 -1
v 2 9 -1
v 2 9 -3
v 2 12 1
v 2 12 -3
v 2 12 -8
v 2 17 1
v 2 17 -8
v -1 12 1
v -1 21 1
v 1 17 1
v 1 21 1
v 2 12 1
v 2 17 1
v -1 7 -0
v -1 8 -0
v 0 7 -0
v 0 8 -0
v 1 7 -0
v 1 8 -0
v 2 7 -0
v 2 8 -0
v -1 8 -1
v -1 9 -1
v 0 7 -1
v 0 8 -1
v 1 7 -1
v 1 8 -1
v 2 8 -1
v 2 9 -1
v -1 9 -3
v -1 12 -3
v 2 9 -3
v 2 12 -3
v -1 7 -8
v -1 12 -8
v -1 21 -8
v 1 17 -8
v 1 21 -8
v 2 7 -8
v 2 12 -8
v 2 17 -8
v -1 7 -0
v 0 7 -0
v 1 7 -0
v 2 7 -0
v -1 7 -1
v 0 7 -1
v 1 7 -1
v 2 7 -1
v -1 7 -8
v 2 7 -8
v -1 12 1
v 2 12 1
v -1 12 -3
v 2 12 -3
v -1 8 -0
v 0 8 -0
v 1 8 -0
v 2 8 -0
v -1 8 -1
v 0 8 -1
v 1 8 -1
v 2 8 -1
v -1 9 -1
v 2 9 -1
v -1 9 -3
v 2 9 -3
v 1 17 1
v 2 17 1
v 1 17 -8
v 2 17 -8
v -1 21 1
v 1 21 1
v -1 21 -8
v 1 21 -8

# faces
f 4/3/1 2/3/1 1/3/1
f 5/2/1 3/2/1 2/2/1
f 5/3/1 2/3/1 4/3/1
f 6/2/1 3/2/1 5/2/1
f 7/2/1 3/2/1 6/2/1
f 9/2/1 3/2/1 7/2/1
f 10/2/1 3/2/1 9/2/1
f 11/1/1 9/1/1 8/1/1
f 11/1/1 10/1/1 9/1/1
f 12/1/1 10/1/1 11/1/1
f 15/3/1 14/3/1 13/3/1
f 16/3/1 14/3/1 15/3/1
f 17/3/2 18/3/2 19/3/2
f 19/3/2 18/3/2 20/3/2
f 21/1/2 22/1/2 23/1/2
f 23/1/2 22/1/2 24/1/2
f 25/3/2 26/3/2 28/3/2
f 26/2/2 27/2/2 29/2/2
f 28/3/2 26/3/2 29/3/2
f 29/2/2 27/2/2 30/2/2
f 30/2/2 27/2/2 31/2/2
f 31/2/2 27/2/2 33/2/2
f 33/2/2 27/2/2 34/2/2
f 32/1/2 33/1/2 35/1/2
f 33/1/2 34/1/2 35/1/2
f 35/1/2 34/1/2 36/1/2
f 39/1/3 38/1/3 37/1/3
f 40/1/3 38/1/3 39/1/3
f 41/1/3 39/1/3 37/1/3
f 42/1/3 39/1/3 41/1/3
f 45/3/3 44/3/3 43/3/3
f 46/3/3 44/3/3 45/3/3
f 49/3/3 48/3/3 47/3/3
f 50/3/3 48/3/3 49/3/3
f 54/2/3 52/2/3 51/2/3
f 55/2/3 54/2/3 53/2/3
f 56/2/3 52/2/3 54/2/3
f 56/2/3 54/2/3 55/2/3
f 57/2/3 52/2/3 56/2/3
f 58/2/3 52/2/3 57/2/3
f 61/2/3 60/2/3 59/2/3
f 62/2/3 60/2/3 61/2/3
f 64/1/4 65/1/4 66/1/4
f 66/1/4 65/1/4 67/1/4
f 63/2/4 64/2/4 68/2/4
f 64/1/4 66/1/4 69/1/4
f 68/2/4 64/2/4 69/2/4
f 69/1/4 66/1/4 70/1/4
f 75/3/5 72/3/5 71/3/5
f 76/3/5 72/3/5 75/3/5
f 77/3/5 74/3/5 73/3/5
f 78/3/5 74/3/5 77/3/5
f 79/2/5 76/2/5 75/2/5
f 79/2/5 77/2/5 76/2/5
f 79/2/5 78/2/5 77/2/5
f 80/2/5 78/2/5 79/2/5
f 83/1/5 82/1/5 81/1/5
f 84/1/5 82/1/5 83/1/5
f 85/3/6 86/3/6 89/3/6
f 89/3/6 86/3/6 90/3/6
f 87/3/6 88/3/6 91/3/6
f 91/3/6 88/3/6 92/3/6
f 93/2/6 94/2/6 95/2/6
f 95/2/6 94/2/6 96/2/6
f 97/1/6 98/1/6 99/1/6
f 99/1/6 98/1/6 100/1/6
f 101/1/6 102/1/6 103/1/6
f 103/1/6 102/1/6 104/1/6
