# MagicaVoxel @ Ephtracy

# material
mtllib tail.mtl
usemtl palette

# normals
vn -1 0 0
vn 1 0 0
vn 0 0 1
vn 0 0 -1
vn 0 -1 0
vn 0 1 0

# texcoords
vt 0.0683594 0.5
vt 0.138672 0.5

# verts
v 2 6 -16
v 2 6 -22
v 2 7 -18
v 2 7 -22
v 2 9 -20
v 2 9 -22
v 2 12 -14
v 2 12 -16
v 2 13 -14
v 2 13 -18
v 2 16 -14
v 2 16 -20
v 6 6 -16
v 6 6 -22
v 6 7 -18
v 6 7 -22
v 6 9 -20
v 6 9 -22
v 6 12 -14
v 6 12 -16
v 6 13 -14
v 6 13 -18
v 6 16 -14
v 6 16 -20
v 2 12 -14
v 2 13 -14
v 2 16 -14
v 6 12 -14
v 6 13 -14
v 6 16 -14
v 2 6 -16
v 2 12 -16
v 6 6 -16
v 6 12 -16
v 2 9 -20
v 2 16 -20
v 6 9 -20
v 6 16 -20
v 2 6 -22
v 2 7 -22
v 2 9 -22
v 6 6 -22
v 6 7 -22
v 6 9 -22
v 2 6 -16
v 6 6 -16
v 2 6 -22
v 6 6 -22
v 2 12 -14
v 6 12 -14
v 2 12 -16
v 6 12 -16
v 2 9 -20
v 6 9 -20
v 2 9 -22
v 6 9 -22
v 2 16 -14
v 6 16 -14
v 2 16 -20
v 6 16 -20

# faces
f 3/1/1 2/1/1 1/1/1
f 4/1/1 2/1/1 3/1/1
f 5/2/1 4/2/1 3/2/1
f 6/2/1 4/2/1 5/2/1
f 8/1/1 3/1/1 1/1/1
f 9/1/1 8/1/1 7/1/1
f 10/2/1 5/2/1 3/2/1
f 10/1/1 8/1/1 9/1/1
f 10/1/1 3/1/1 8/1/1
f 11/2/1 10/2/1 9/2/1
f 12/2/1 5/2/1 10/2/1
f 12/2/1 10/2/1 11/2/1
f 13/1/2 14/1/2 15/1/2
f 15/1/2 14/1/2 16/1/2
f 15/2/2 16/2/2 17/2/2
f 17/2/2 16/2/2 18/2/2
f 13/1/2 15/1/2 20/1/2
f 19/1/2 20/1/2 21/1/2
f 15/2/2 17/2/2 22/2/2
f 21/1/2 20/1/2 22/1/2
f 20/1/2 15/1/2 22/1/2
f 21/2/2 22/2/2 23/2/2
f 22/2/2 17/2/2 24/2/2
f 23/2/2 22/2/2 24/2/2
f 28/1/3 26/1/3 25/1/3
f 29/2/3 27/2/3 26/2/3
f 29/1/3 26/1/3 28/1/3
f 30/2/3 27/2/3 29/2/3
f 33/1/3 32/1/3 31/1/3
f 34/1/3 32/1/3 33/1/3
f 35/2/4 36/2/4 37/2/4
f 37/2/4 36/2/4 38/2/4
f 39/1/4 40/1/4 42/1/4
f 40/2/4 41/2/4 43/2/4
f 42/1/4 40/1/4 43/1/4
f 43/2/4 41/2/4 44/2/4
f 47/1/5 46/1/5 45/1/5
f 48/1/5 46/1/5 47/1/5
f 51/1/5 50/1/5 49/1/5
f 52/1/5 50/1/5 51/1/5
f 53/2/6 54/2/6 55/2/6
f 55/2/6 54/2/6 56/2/6
f 57/2/6 58/2/6 59/2/6
f 59/2/6 58/2/6 60/2/6
