# MagicaVoxel @ Ephtracy

# material
mtllib car_2.mtl
usemtl palette

# normals
vn -1 0 0
vn 1 0 0
vn 0 0 1
vn 0 0 -1
vn 0 -1 0
vn 0 1 0

# texcoords
vt 0.0644531 0.5
vt 0.0683594 0.5
vt 0.279297 0.5
vt 0.845703 0.5
vt 0.958984 0.5
vt 0.962891 0.5
vt 0.966797 0.5
vt 0.982422 0.5
vt 0.990234 0.5
vt 0.994141 0.5

# verts
v -23 13 31
v -23 13 30
v -23 13 10
v -23 13 9
v -23 13 -12
v -23 13 -13
v -23 13 -33
v -23 13 -34
v -23 17 30
v -23 17 10
v -23 17 -13
v -23 17 -33
v -23 18 31
v -23 18 9
v -23 18 -12
v -23 18 -34
v -22 0 30
v -22 0 10
v -22 0 -13
v -22 0 -33
v -22 4 25
v -22 4 15
v -22 4 -18
v -22 4 -28
v -22 13 30
v -22 13 25
v -22 13 15
v -22 13 10
v -22 13 -13
v -22 13 -18
v -22 13 -28
v -22 13 -33
v -22 17 30
v -22 17 10
v -22 17 -13
v -22 17 -33
v -20 6 -33
v -20 6 -35
v -20 13 -33
v -20 13 -34
v -20 18 -33
v -20 18 -34
v -20 18 -35
v -20 18 -36
v -20 21 -33
v -20 21 -36
v -19 6 35
v -19 6 30
v -19 6 10
v -19 6 -13
v -19 6 -35
v -19 6 -38
v -19 10 -35
v -19 10 -38
v -19 13 31
v -19 13 30
v -19 13 10
v -19 13 9
v -19 13 -12
v -19 13 -13
v -19 18 31
v -19 18 9
v -19 18 -12
v -19 18 -33
v -19 19 35
v -19 19 31
v -19 21 -33
v -19 21 -35
v -19 24 31
v -19 24 -35
v -18 24 12
v -18 24 -33
v -18 28 -19
v -18 28 -20
v -18 29 -19
v -18 29 -20
v -18 37 12
v -18 37 -33
v -18 39 12
v -18 39 -33
v -16 10 -35
v -16 10 -36
v -16 18 -35
v -16 18 -36
v -16 28 -19
v -16 28 -20
v -16 29 -19
v -16 29 -20
v 8 23 31
v 8 23 29
v 8 24 31
v 8 24 29
v 16 0 30
v 16 0 10
v 16 0 -13
v 16 0 -33
v 16 4 25
v 16 4 15
v 16 4 -18
v 16 4 -28
v 16 6 30
v 16 6 10
v 16 6 -13
v 16 6 -33
v 16 10 -35
v 16 10 -36
v 16 13 25
v 16 13 15
v 16 13 -18
v 16 13 -28
v 16 17 30
v 16 17 10
v 16 17 -13
v 16 17 -33
v 16 18 -35
v 16 18 -36
v 16 21 -35
v 16 21 -36
v -13 0 30
v -13 0 10
v -13 0 -13
v -13 0 -33
v -13 4 25
v -13 4 15
v -13 4 -18
v -13 4 -28
v -13 6 30
v -13 6 10
v -13 6 -13
v -13 6 -33
v -13 10 -35
v -13 10 -36
v -13 13 25
v -13 13 15
v -13 13 -18
v -13 13 -28
v -13 17 30
v -13 17 10
v -13 17 -13
v -13 17 -33
v -13 18 -35
v -13 18 -36
v -13 21 -35
v -13 21 -36
v -6 23 31
v -6 23 29
v -6 24 31
v -6 24 29
v 19 10 -35
v 19 10 -36
v 19 18 -35
v 19 18 -36
v 21 24 12
v 21 24 -33
v 21 37 12
v 21 37 -33
v 21 39 12
v 21 39 -33
v 22 6 35
v 22 6 30
v 22 6 10
v 22 6 -13
v 22 13 31
v 22 13 30
v 22 13 10
v 22 13 9
v 22 13 -12
v 22 13 -13
v 22 18 31
v 22 18 9
v 22 18 -12
v 22 18 -33
v 22 19 35
v 22 19 31
v 22 19 10
v 22 19 3
v 22 21 -33
v 22 21 -35
v 22 24 31
v 22 24 10
v 22 24 3
v 22 24 -35
v 23 6 -33
v 23 6 -38
v 23 10 -35
v 23 10 -38
v 23 13 -33
v 23 13 -34
v 23 18 -33
v 23 18 -34
v 23 18 -35
v 23 18 -36
v 23 21 -33
v 23 21 -36
v 25 0 30
v 25 0 10
v 25 0 -13
v 25 0 -33
v 25 4 25
v 25 4 15
v 25 4 -18
v 25 4 -28
v 25 13 30
v 25 13 25
v 25 13 15
v 25 13 10
v 25 13 -13
v 25 13 -18
v 25 13 -28
v 25 13 -33
v 25 17 30
v 25 17 10
v 25 17 -13
v 25 17 -33
v 26 13 31
v 26 13 30
v 26 13 10
v 26 13 9
v 26 13 -12
v 26 13 -13
v 26 13 -33
v 26 13 -34
v 26 17 30
v 26 17 10
v 26 17 -13
v 26 17 -33
v 26 18 31
v 26 18 9
v 26 18 -12
v 26 18 -34
v 26 19 10
v 26 19 3
v 26 24 10
v 26 24 3
v -19 6 35
v -19 19 35
v -18 15 35
v -18 19 35
v -17 8 35
v -17 10 35
v -15 8 35
v -15 10 35
v -13 15 35
v -13 17 35
v -13 19 35
v -11 7 35
v -11 9 35
v -11 12 35
v -11 17 35
v -6 17 35
v -6 19 35
v 8 17 35
v 8 19 35
v 13 7 35
v 13 9 35
v 13 12 35
v 13 17 35
v 15 15 35
v 15 17 35
v 15 19 35
v 17 8 35
v 17 10 35
v 19 8 35
v 19 10 35
v 21 15 35
v 21 19 35
v 22 6 35
v 22 19 35
v -23 13 31
v -23 18 31
v -19 13 31
v -19 18 31
v -19 19 31
v -19 24 31
v -14 19 31
v -14 24 31
v -6 19 31
v -6 23 31
v -6 24 31
v 8 19 31
v 8 23 31
v 8 24 31
v 16 19 31
v 16 24 31
v 22 13 31
v 22 18 31
v 22 19 31
v 22 24 31
v 26 13 31
v 26 18 31
v -22 0 30
v -22 13 30
v -19 6 30
v -19 13 30
v -13 0 30
v -13 6 30
v 16 0 30
v 16 6 30
v 22 6 30
v 22 13 30
v 25 0 30
v 25 13 30
v -6 23 29
v -6 24 29
v 8 23 29
v 8 24 29
v -18 24 12
v -18 37 12
v -18 39 12
v -14 24 12
v -6 24 12
v 8 24 12
v 16 24 12
v 21 24 12
v 21 37 12
v 21 39 12
v -23 13 10
v -23 17 10
v -22 13 10
v -22 17 10
v -13 6 10
v -13 17 10
v 16 6 10
v 16 17 10
v 22 19 10
v 22 24 10
v 25 13 10
v 25 17 10
v 26 13 10
v 26 17 10
v 26 19 10
v 26 24 10
v -23 13 -12
v -23 18 -12
v -19 13 -12
v -19 18 -12
v 22 13 -12
v 22 18 -12
v 26 13 -12
v 26 18 -12
v -22 0 -13
v -22 13 -13
v -19 6 -13
v -19 13 -13
v -13 0 -13
v -13 6 -13
v 16 0 -13
v 16 6 -13
v 22 6 -13
v 22 13 -13
v 25 0 -13
v 25 13 -13
v -18 28 -20
v -18 29 -20
v -16 28 -20
v -16 29 -20
v -23 13 -33
v -23 17 -33
v -22 13 -33
v -22 17 -33
v -20 18 -33
v -20 21 -33
v -19 18 -33
v -19 21 -33
v -13 6 -33
v -13 17 -33
v 16 6 -33
v 16 17 -33
v 22 18 -33
v 22 21 -33
v 23 18 -33
v 23 21 -33
v 25 13 -33
v 25 17 -33
v 26 13 -33
v 26 17 -33
v -23 13 30
v -23 17 30
v -22 13 30
v -22 17 30
v -13 6 30
v -13 17 30
v 16 6 30
v 16 17 30
v 25 13 30
v 25 17 30
v 26 13 30
v 26 17 30
v -22 0 10
v -22 13 10
v -19 6 10
v -19 13 10
v -13 0 10
v -13 6 10
v 16 0 10
v 16 6 10
v 22 6 10
v 22 13 10
v 25 0 10
v 25 13 10
v -23 13 9
v -23 18 9
v -19 13 9
v -19 18 9
v 22 13 9
v 22 18 9
v 26 13 9
v 26 18 9
v 22 19 3
v 22 24 3
v 26 19 3
v 26 24 3
v -23 13 -13
v -23 17 -13
v -22 13 -13
v -22 17 -13
v -13 6 -13
v -13 17 -13
v 16 6 -13
v 16 17 -13
v 25 13 -13
v 25 17 -13
v 26 13 -13
v 26 17 -13
v -18 28 -19
v -18 29 -19
v -16 28 -19
v -16 29 -19
v -22 0 -33
v -22 13 -33
v -20 6 -33
v -20 13 -33
v -19 6 -33
v -18 24 -33
v -18 37 -33
v -18 39 -33
v -13 0 -33
v -13 6 -33
v 16 0 -33
v 16 6 -33
v 21 24 -33
v 21 37 -33
v 21 39 -33
v 22 6 -33
v 23 6 -33
v 23 13 -33
v 25 0 -33
v 25 13 -33
v -23 13 -34
v -23 18 -34
v -20 13 -34
v -20 18 -34
v 23 13 -34
v 23 18 -34
v 26 13 -34
v 26 18 -34
v -20 6 -35
v -20 18 -35
v -19 6 -35
v -19 10 -35
v -19 18 -35
v -19 21 -35
v -19 24 -35
v -16 10 -35
v -16 18 -35
v -13 10 -35
v -13 18 -35
v -13 21 -35
v 16 10 -35
v 16 18 -35
v 16 21 -35
v 19 10 -35
v 19 18 -35
v 22 10 -35
v 22 18 -35
v 22 21 -35
v 22 24 -35
v 23 10 -35
v 23 18 -35
v -20 18 -36
v -20 21 -36
v -16 10 -36
v -16 18 -36
v -13 10 -36
v -13 18 -36
v -13 21 -36
v 16 10 -36
v 16 18 -36
v 16 21 -36
v 19 10 -36
v 19 18 -36
v 23 18 -36
v 23 21 -36
v -19 6 -38
v -19 10 -38
v 23 6 -38
v 23 10 -38
v -22 0 30
v -13 0 30
v 16 0 30
v 25 0 30
v -22 0 10
v -13 0 10
v 16 0 10
v 25 0 10
v -22 0 -13
v -13 0 -13
v 16 0 -13
v 25 0 -13
v -22 0 -33
v -13 0 -33
v 16 0 -33
v 25 0 -33
v -19 6 35
v 22 6 35
v -19 6 30
v -13 6 30
v 16 6 30
v 22 6 30
v -19 6 10
v -13 6 10
v 16 6 10
v 22 6 10
v -19 6 -13
v -13 6 -13
v 16 6 -13
v 22 6 -13
v -20 6 -33
v -19 6 -33
v -13 6 -33
v 16 6 -33
v 22 6 -33
v 23 6 -33
v -20 6 -35
v -19 6 -35
v 22 6 -35
v -19 6 -38
v 23 6 -38
v -23 13 31
v -19 13 31
v 22 13 31
v 26 13 31
v -23 13 30
v -22 13 30
v -19 13 30
v 22 13 30
v 25 13 30
v 26 13 30
v -23 13 10
v -22 13 10
v -19 13 10
v 22 13 10
v 25 13 10
v 26 13 10
v -23 13 9
v -19 13 9
v 22 13 9
v 26 13 9
v -23 13 -12
v -19 13 -12
v 22 13 -12
v 26 13 -12
v -23 13 -13
v -22 13 -13
v -19 13 -13
v 22 13 -13
v 25 13 -13
v 26 13 -13
v -23 13 -33
v -22 13 -33
v -20 13 -33
v 23 13 -33
v 25 13 -33
v 26 13 -33
v -23 13 -34
v -20 13 -34
v 23 13 -34
v 26 13 -34
v -23 17 30
v -22 17 30
v -13 17 30
v 16 17 30
v 25 17 30
v 26 17 30
v -23 17 10
v -22 17 10
v -13 17 10
v 16 17 10
v 25 17 10
v 26 17 10
v -23 17 -13
v -22 17 -13
v -13 17 -13
v 16 17 -13
v 25 17 -13
v 26 17 -13
v -23 17 -33
v -22 17 -33
v -13 17 -33
v 16 17 -33
v 25 17 -33
v 26 17 -33
v -20 18 -35
v -19 18 -35
v -16 18 -35
v 19 18 -35
v 22 18 -35
v 23 18 -35
v -20 18 -36
v -16 18 -36
v 19 18 -36
v 23 18 -36
v 22 19 10
v 26 19 10
v 22 19 3
v 26 19 3
v -18 29 -19
v -16 29 -19
v -18 29 -20
v -16 29 -20
v -19 10 -35
v -16 10 -35
v -13 10 -35
v 16 10 -35
v 19 10 -35
v 22 10 -35
v 23 10 -35
v -16 10 -36
v -13 10 -36
v 16 10 -36
v 19 10 -36
v -19 10 -38
v 23 10 -38
v -23 18 31
v -19 18 31
v 22 18 31
v 26 18 31
v -23 18 9
v -19 18 9
v 22 18 9
v 26 18 9
v -23 18 -12
v -19 18 -12
v 22 18 -12
v 26 18 -12
v -20 18 -33
v -19 18 -33
v 22 18 -33
v 23 18 -33
v -23 18 -34
v -20 18 -34
v 23 18 -34
v 26 18 -34
v -19 19 35
v -18 19 35
v -13 19 35
v -6 19 35
v 8 19 35
v 15 19 35
v 21 19 35
v 22 19 35
v -18 19 34
v -14 19 34
v -13 19 34
v 15 19 34
v 16 19 34
v 21 19 34
v -19 19 31
v -14 19 31
v -6 19 31
v 8 19 31
v 16 19 31
v 22 19 31
v -20 21 -33
v -19 21 -33
v 22 21 -33
v 23 21 -33
v -19 21 -35
v -13 21 -35
v 16 21 -35
v 22 21 -35
v -20 21 -36
v -13 21 -36
v 16 21 -36
v 23 21 -36
v -6 23 31
v 8 23 31
v -6 23 29
v 8 23 29
v -19 24 31
v -14 24 31
v -6 24 31
v 8 24 31
v 16 24 31
v 22 24 31
v -6 24 29
v 8 24 29
v -18 24 12
v -14 24 12
v -6 24 12
v 8 24 12
v 16 24 12
v 21 24 12
v 22 24 10
v 26 24 10
v 22 24 3
v 26 24 3
v -18 24 -33
v 21 24 -33
v -19 24 -35
v 22 24 -35
v -18 28 -19
v -16 28 -19
v -18 28 -20
v -16 28 -20
v -18 39 12
v 21 39 12
v -18 39 -33
v 21 39 -33

# faces
f 9/8/1 2/8/1 1/8/1
f 10/8/1 4/8/1 3/8/1
f 11/8/1 6/8/1 5/8/1
f 12/8/1 8/8/1 7/8/1
f 13/8/1 9/8/1 1/8/1
f 13/8/1 10/8/1 9/8/1
f 14/8/1 4/8/1 10/8/1
f 14/8/1 10/8/1 13/8/1
f 15/8/1 11/8/1 5/8/1
f 15/8/1 12/8/1 11/8/1
f 16/8/1 8/8/1 12/8/1
f 16/8/1 12/8/1 15/8/1
f 21/10/1 18/10/1 17/10/1
f 22/10/1 18/10/1 21/10/1
f 23/10/1 20/10/1 19/10/1
f 24/10/1 20/10/1 23/10/1
f 25/10/1 21/10/1 17/10/1
f 26/6/1 22/6/1 21/6/1
f 26/10/1 21/10/1 25/10/1
f 27/10/1 18/10/1 22/10/1
f 27/6/1 22/6/1 26/6/1
f 28/10/1 18/10/1 27/10/1
f 29/10/1 23/10/1 19/10/1
f 30/6/1 24/6/1 23/6/1
f 30/10/1 23/10/1 29/10/1
f 31/10/1 20/10/1 24/10/1
f 31/6/1 24/6/1 30/6/1
f 32/10/1 20/10/1 31/10/1
f 33/10/1 26/10/1 25/10/1
f 33/10/1 28/10/1 27/10/1
f 33/10/1 27/10/1 26/10/1
f 34/10/1 28/10/1 33/10/1
f 35/10/1 30/10/1 29/10/1
f 35/10/1 32/10/1 31/10/1
f 35/10/1 31/10/1 30/10/1
f 36/10/1 32/10/1 35/10/1
f 39/7/1 38/7/1 37/7/1
f 40/7/1 38/7/1 39/7/1
f 42/7/1 38/7/1 40/7/1
f 43/7/1 38/7/1 42/7/1
f 45/2/1 42/2/1 41/2/1
f 45/2/1 44/2/1 43/2/1
f 45/2/1 43/2/1 42/2/1
f 46/2/1 44/2/1 45/2/1
f 53/7/1 52/7/1 51/7/1
f 54/7/1 52/7/1 53/7/1
f 55/3/1 48/3/1 47/3/1
f 56/3/1 48/3/1 55/3/1
f 57/3/1 50/3/1 49/3/1
f 58/3/1 50/3/1 57/3/1
f 59/3/1 50/3/1 58/3/1
f 60/3/1 50/3/1 59/3/1
f 61/3/1 55/3/1 47/3/1
f 62/3/1 59/3/1 58/3/1
f 63/3/1 59/3/1 62/3/1
f 65/3/1 63/3/1 62/3/1
f 65/3/1 64/3/1 63/3/1
f 65/3/1 62/3/1 61/3/1
f 65/3/1 61/3/1 47/3/1
f 66/3/1 64/3/1 65/3/1
f 67/3/1 64/3/1 66/3/1
f 69/3/1 67/3/1 66/3/1
f 69/3/1 68/3/1 67/3/1
f 70/3/1 68/3/1 69/3/1
f 73/10/1 72/10/1 71/10/1
f 74/10/1 72/10/1 73/10/1
f 75/10/1 73/10/1 71/10/1
f 76/10/1 72/10/1 74/10/1
f 77/10/1 75/10/1 71/10/1
f 77/10/1 76/10/1 75/10/1
f 78/10/1 72/10/1 76/10/1
f 78/10/1 76/10/1 77/10/1
f 79/5/1 78/5/1 77/5/1
f 80/5/1 78/5/1 79/5/1
f 83/4/1 82/4/1 81/4/1
f 84/4/1 82/4/1 83/4/1
f 87/10/1 86/10/1 85/10/1
f 88/10/1 86/10/1 87/10/1
f 91/5/1 90/5/1 89/5/1
f 92/5/1 90/5/1 91/5/1
f 97/10/1 94/10/1 93/10/1
f 98/10/1 94/10/1 97/10/1
f 99/10/1 96/10/1 95/10/1
f 100/10/1 96/10/1 99/10/1
f 101/10/1 97/10/1 93/10/1
f 102/10/1 94/10/1 98/10/1
f 103/10/1 99/10/1 95/10/1
f 104/10/1 96/10/1 100/10/1
f 107/10/1 97/10/1 101/10/1
f 107/6/1 98/6/1 97/6/1
f 108/10/1 102/10/1 98/10/1
f 108/6/1 98/6/1 107/6/1
f 109/10/1 99/10/1 103/10/1
f 109/6/1 100/6/1 99/6/1
f 110/10/1 104/10/1 100/10/1
f 110/6/1 100/6/1 109/6/1
f 111/10/1 107/10/1 101/10/1
f 111/10/1 108/10/1 107/10/1
f 112/10/1 102/10/1 108/10/1
f 112/10/1 108/10/1 111/10/1
f 113/10/1 109/10/1 103/10/1
f 113/10/1 110/10/1 109/10/1
f 114/10/1 104/10/1 110/10/1
f 114/10/1 110/10/1 113/10/1
f 115/4/1 106/4/1 105/4/1
f 116/4/1 106/4/1 115/4/1
f 117/2/1 116/2/1 115/2/1
f 118/2/1 116/2/1 117/2/1
f 119/10/2 120/10/2 123/10/2
f 123/10/2 120/10/2 124/10/2
f 121/10/2 122/10/2 125/10/2
f 125/10/2 122/10/2 126/10/2
f 119/10/2 123/10/2 127/10/2
f 124/10/2 120/10/2 128/10/2
f 121/10/2 125/10/2 129/10/2
f 126/10/2 122/10/2 130/10/2
f 127/10/2 123/10/2 133/10/2
f 123/6/2 124/6/2 133/6/2
f 124/10/2 128/10/2 134/10/2
f 133/6/2 124/6/2 134/6/2
f 129/10/2 125/10/2 135/10/2
f 125/6/2 126/6/2 135/6/2
f 126/10/2 130/10/2 136/10/2
f 135/6/2 126/6/2 136/6/2
f 127/10/2 133/10/2 137/10/2
f 133/10/2 134/10/2 137/10/2
f 134/10/2 128/10/2 138/10/2
f 137/10/2 134/10/2 138/10/2
f 129/10/2 135/10/2 139/10/2
f 135/10/2 136/10/2 139/10/2
f 136/10/2 130/10/2 140/10/2
f 139/10/2 136/10/2 140/10/2
f 131/4/2 132/4/2 141/4/2
f 141/4/2 132/4/2 142/4/2
f 141/2/2 142/2/2 143/2/2
f 143/2/2 142/2/2 144/2/2
f 145/5/2 146/5/2 147/5/2
f 147/5/2 146/5/2 148/5/2
f 149/4/2 150/4/2 151/4/2
f 151/4/2 150/4/2 152/4/2
f 153/10/2 154/10/2 155/10/2
f 155/10/2 154/10/2 156/10/2
f 155/5/2 156/5/2 157/5/2
f 157/5/2 156/5/2 158/5/2
f 159/3/2 160/3/2 163/3/2
f 163/3/2 160/3/2 164/3/2
f 161/3/2 162/3/2 165/3/2
f 165/3/2 162/3/2 166/3/2
f 166/3/2 162/3/2 167/3/2
f 167/3/2 162/3/2 168/3/2
f 159/3/2 163/3/2 169/3/2
f 166/3/2 167/3/2 170/3/2
f 170/3/2 167/3/2 171/3/2
f 170/3/2 171/3/2 173/3/2
f 171/3/2 172/3/2 173/3/2
f 169/3/2 170/3/2 173/3/2
f 159/3/2 169/3/2 173/3/2
f 173/3/2 172/3/2 174/3/2
f 174/3/2 172/3/2 175/3/2
f 175/3/2 172/3/2 176/3/2
f 176/3/2 172/3/2 177/3/2
f 174/3/2 175/3/2 179/3/2
f 179/3/2 175/3/2 180/3/2
f 177/3/2 178/3/2 181/3/2
f 176/3/2 177/3/2 181/3/2
f 181/3/2 178/3/2 182/3/2
f 183/7/2 184/7/2 185/7/2
f 185/7/2 184/7/2 186/7/2
f 183/7/2 185/7/2 187/7/2
f 187/7/2 185/7/2 188/7/2
f 188/7/2 185/7/2 190/7/2
f 190/7/2 185/7/2 191/7/2
f 189/2/2 190/2/2 193/2/2
f 191/2/2 192/2/2 193/2/2
f 190/2/2 191/2/2 193/2/2
f 193/2/2 192/2/2 194/2/2
f 195/10/2 196/10/2 199/10/2
f 199/10/2 196/10/2 200/10/2
f 197/10/2 198/10/2 201/10/2
f 201/10/2 198/10/2 202/10/2
f 195/10/2 199/10/2 203/10/2
f 199/6/2 200/6/2 204/6/2
f 203/10/2 199/10/2 204/10/2
f 200/10/2 196/10/2 205/10/2
f 204/6/2 200/6/2 205/6/2
f 205/10/2 196/10/2 206/10/2
f 197/10/2 201/10/2 207/10/2
f 201/6/2 202/6/2 208/6/2
f 207/10/2 201/10/2 208/10/2
f 202/10/2 198/10/2 209/10/2
f 208/6/2 202/6/2 209/6/2
f 209/10/2 198/10/2 210/10/2
f 203/10/2 204/10/2 211/10/2
f 205/10/2 206/10/2 211/10/2
f 204/10/2 205/10/2 211/10/2
f 211/10/2 206/10/2 212/10/2
f 207/10/2 208/10/2 213/10/2
f 209/10/2 210/10/2 213/10/2
f 208/10/2 209/10/2 213/10/2
f 213/10/2 210/10/2 214/10/2
f 215/8/2 216/8/2 223/8/2
f 217/8/2 218/8/2 224/8/2
f 219/8/2 220/8/2 225/8/2
f 221/8/2 222/8/2 226/8/2
f 215/8/2 223/8/2 227/8/2
f 223/8/2 224/8/2 227/8/2
f 224/8/2 218/8/2 228/8/2
f 227/8/2 224/8/2 228/8/2
f 219/8/2 225/8/2 229/8/2
f 225/8/2 226/8/2 229/8/2
f 226/8/2 222/8/2 230/8/2
f 229/8/2 226/8/2 230/8/2
f 231/5/2 232/5/2 233/5/2
f 233/5/2 232/5/2 234/5/2
f 237/3/3 236/3/3 235/3/3
f 238/3/3 236/3/3 237/3/3
f 239/3/3 237/3/3 235/3/3
f 240/3/3 237/3/3 239/3/3
f 241/3/3 239/3/3 235/3/3
f 241/1/3 240/1/3 239/1/3
f 242/3/3 237/3/3 240/3/3
f 242/1/3 240/1/3 241/1/3
f 243/1/3 238/1/3 237/1/3
f 243/3/3 237/3/3 242/3/3
f 243/3/3 242/3/3 241/3/3
f 244/1/3 238/1/3 243/1/3
f 245/1/3 238/1/3 244/1/3
f 246/3/3 241/3/3 235/3/3
f 246/3/3 243/3/3 241/3/3
f 246/3/3 244/3/3 243/3/3
f 247/3/3 244/3/3 246/3/3
f 248/3/3 244/3/3 247/3/3
f 249/5/3 245/5/3 244/5/3
f 249/3/3 244/3/3 248/3/3
f 250/9/3 249/9/3 248/9/3
f 250/5/3 245/5/3 249/5/3
f 251/5/3 245/5/3 250/5/3
f 252/9/3 250/9/3 248/9/3
f 252/3/3 251/3/3 250/3/3
f 253/3/3 251/3/3 252/3/3
f 254/3/3 246/3/3 235/3/3
f 254/9/3 247/9/3 246/9/3
f 255/3/3 248/3/3 247/3/3
f 255/9/3 247/9/3 254/9/3
f 256/9/3 252/9/3 248/9/3
f 256/3/3 248/3/3 255/3/3
f 257/5/3 253/5/3 252/5/3
f 257/9/3 252/9/3 256/9/3
f 258/3/3 256/3/3 255/3/3
f 258/3/3 255/3/3 254/3/3
f 258/3/3 257/3/3 256/3/3
f 259/5/3 253/5/3 257/5/3
f 259/3/3 257/3/3 258/3/3
f 260/5/3 253/5/3 259/5/3
f 261/3/3 258/3/3 254/3/3
f 262/3/3 258/3/3 261/3/3
f 263/3/3 261/3/3 254/3/3
f 263/1/3 262/1/3 261/1/3
f 264/3/3 258/3/3 262/3/3
f 264/1/3 262/1/3 263/1/3
f 265/1/3 259/1/3 258/1/3
f 265/3/3 258/3/3 264/3/3
f 265/3/3 264/3/3 263/3/3
f 265/1/3 260/1/3 259/1/3
f 266/1/3 260/1/3 265/1/3
f 267/3/3 254/3/3 235/3/3
f 267/3/3 263/3/3 254/3/3
f 267/3/3 266/3/3 265/3/3
f 267/3/3 265/3/3 263/3/3
f 268/3/3 266/3/3 267/3/3
f 271/8/3 270/8/3 269/8/3
f 272/8/3 270/8/3 271/8/3
f 275/3/3 274/3/3 273/3/3
f 276/3/3 274/3/3 275/3/3
f 277/5/3 276/5/3 275/5/3
f 278/5/3 276/5/3 277/5/3
f 279/5/3 276/5/3 278/5/3
f 280/3/3 278/3/3 277/3/3
f 281/3/3 278/3/3 280/3/3
f 283/5/3 281/5/3 280/5/3
f 283/5/3 282/5/3 281/5/3
f 284/5/3 282/5/3 283/5/3
f 287/3/3 284/3/3 283/3/3
f 288/3/3 284/3/3 287/3/3
f 289/8/3 286/8/3 285/8/3
f 290/8/3 286/8/3 289/8/3
f 293/10/3 292/10/3 291/10/3
f 294/10/3 292/10/3 293/10/3
f 295/10/3 293/10/3 291/10/3
f 296/10/3 293/10/3 295/10/3
f 299/10/3 298/10/3 297/10/3
f 301/10/3 299/10/3 297/10/3
f 301/10/3 300/10/3 299/10/3
f 302/10/3 300/10/3 301/10/3
f 305/3/3 304/3/3 303/3/3
f 306/3/3 304/3/3 305/3/3
f 310/10/3 308/10/3 307/10/3
f 311/10/3 308/10/3 310/10/3
f 312/10/3 308/10/3 311/10/3
f 313/10/3 308/10/3 312/10/3
f 314/10/3 308/10/3 313/10/3
f 315/5/3 309/5/3 308/5/3
f 315/10/3 308/10/3 314/10/3
f 316/5/3 309/5/3 315/5/3
f 319/8/3 318/8/3 317/8/3
f 320/8/3 318/8/3 319/8/3
f 323/3/3 322/3/3 321/3/3
f 324/3/3 322/3/3 323/3/3
f 329/8/3 328/8/3 327/8/3
f 330/8/3 328/8/3 329/8/3
f 331/5/3 326/5/3 325/5/3
f 332/5/3 326/5/3 331/5/3
f 335/8/3 334/8/3 333/8/3
f 336/8/3 334/8/3 335/8/3
f 339/8/3 338/8/3 337/8/3
f 340/8/3 338/8/3 339/8/3
f 343/10/3 342/10/3 341/10/3
f 344/10/3 342/10/3 343/10/3
f 345/10/3 343/10/3 341/10/3
f 346/10/3 343/10/3 345/10/3
f 349/10/3 348/10/3 347/10/3
f 351/10/3 349/10/3 347/10/3
f 351/10/3 350/10/3 349/10/3
f 352/10/3 350/10/3 351/10/3
f 355/10/3 354/10/3 353/10/3
f 356/10/3 354/10/3 355/10/3
f 359/8/3 358/8/3 357/8/3
f 360/8/3 358/8/3 359/8/3
f 363/2/3 362/2/3 361/2/3
f 364/2/3 362/2/3 363/2/3
f 367/3/3 366/3/3 365/3/3
f 368/3/3 366/3/3 367/3/3
f 371/2/3 370/2/3 369/2/3
f 372/2/3 370/2/3 371/2/3
f 375/8/3 374/8/3 373/8/3
f 376/8/3 374/8/3 375/8/3
f 377/8/4 378/8/4 379/8/4
f 379/8/4 378/8/4 380/8/4
f 381/3/4 382/3/4 383/3/4
f 383/3/4 382/3/4 384/3/4
f 385/8/4 386/8/4 387/8/4
f 387/8/4 386/8/4 388/8/4
f 389/10/4 390/10/4 391/10/4
f 391/10/4 390/10/4 392/10/4
f 389/10/4 391/10/4 393/10/4
f 393/10/4 391/10/4 394/10/4
f 395/10/4 396/10/4 397/10/4
f 395/10/4 397/10/4 399/10/4
f 397/10/4 398/10/4 399/10/4
f 399/10/4 398/10/4 400/10/4
f 401/8/4 402/8/4 403/8/4
f 403/8/4 402/8/4 404/8/4
f 405/8/4 406/8/4 407/8/4
f 407/8/4 406/8/4 408/8/4
f 409/5/4 410/5/4 411/5/4
f 411/5/4 410/5/4 412/5/4
f 413/8/4 414/8/4 415/8/4
f 415/8/4 414/8/4 416/8/4
f 417/3/4 418/3/4 419/3/4
f 419/3/4 418/3/4 420/3/4
f 421/8/4 422/8/4 423/8/4
f 423/8/4 422/8/4 424/8/4
f 425/10/4 426/10/4 427/10/4
f 427/10/4 426/10/4 428/10/4
f 429/10/4 430/10/4 431/10/4
f 431/10/4 430/10/4 432/10/4
f 429/10/4 431/10/4 433/10/4
f 429/10/4 433/10/4 437/10/4
f 437/10/4 433/10/4 438/10/4
f 434/10/4 435/10/4 441/10/4
f 435/5/4 436/5/4 442/5/4
f 441/10/4 435/10/4 442/10/4
f 442/5/4 436/5/4 443/5/4
f 439/10/4 440/10/4 444/10/4
f 439/10/4 444/10/4 445/10/4
f 439/10/4 445/10/4 447/10/4
f 445/10/4 446/10/4 447/10/4
f 447/10/4 446/10/4 448/10/4
f 449/8/4 450/8/4 451/8/4
f 451/8/4 450/8/4 452/8/4
f 453/8/4 454/8/4 455/8/4
f 455/8/4 454/8/4 456/8/4
f 457/7/4 458/7/4 459/7/4
f 459/7/4 458/7/4 460/7/4
f 460/7/4 458/7/4 461/7/4
f 460/3/4 461/3/4 464/3/4
f 464/3/4 461/3/4 465/3/4
f 462/3/4 463/3/4 468/3/4
f 466/3/4 467/3/4 469/3/4
f 467/3/4 468/3/4 469/3/4
f 469/3/4 468/3/4 470/3/4
f 468/3/4 463/3/4 471/3/4
f 470/3/4 468/3/4 471/3/4
f 472/3/4 473/3/4 474/3/4
f 474/3/4 473/3/4 475/3/4
f 471/3/4 463/3/4 476/3/4
f 476/3/4 463/3/4 477/3/4
f 474/7/4 475/7/4 478/7/4
f 478/7/4 475/7/4 479/7/4
f 480/2/4 481/2/4 483/2/4
f 482/4/4 483/4/4 484/4/4
f 483/2/4 481/2/4 485/2/4
f 484/4/4 483/4/4 485/4/4
f 485/2/4 481/2/4 486/2/4
f 487/4/4 488/4/4 490/4/4
f 488/2/4 489/2/4 491/2/4
f 490/4/4 488/4/4 491/4/4
f 491/2/4 489/2/4 492/2/4
f 492/2/4 489/2/4 493/2/4
f 494/7/4 495/7/4 496/7/4
f 496/7/4 495/7/4 497/7/4
f 502/10/5 499/10/5 498/10/5
f 503/10/5 499/10/5 502/10/5
f 504/10/5 501/10/5 500/10/5
f 505/10/5 501/10/5 504/10/5
f 510/10/5 507/10/5 506/10/5
f 511/10/5 507/10/5 510/10/5
f 512/10/5 509/10/5 508/10/5
f 513/10/5 509/10/5 512/10/5
f 516/3/5 515/3/5 514/3/5
f 517/3/5 515/3/5 516/3/5
f 518/3/5 515/3/5 517/3/5
f 519/3/5 515/3/5 518/3/5
f 524/3/5 521/3/5 520/3/5
f 524/3/5 523/3/5 522/3/5
f 524/3/5 522/3/5 521/3/5
f 525/3/5 523/3/5 524/3/5
f 526/3/5 523/3/5 525/3/5
f 527/3/5 523/3/5 526/3/5
f 534/7/5 529/7/5 528/7/5
f 535/3/5 532/3/5 531/3/5
f 535/7/5 529/7/5 534/7/5
f 535/3/5 531/3/5 530/3/5
f 535/3/5 530/3/5 529/3/5
f 536/7/5 533/7/5 532/7/5
f 536/3/5 532/3/5 535/3/5
f 537/7/5 536/7/5 535/7/5
f 538/7/5 533/7/5 536/7/5
f 538/7/5 536/7/5 537/7/5
f 543/8/5 540/8/5 539/8/5
f 544/8/5 540/8/5 543/8/5
f 545/8/5 540/8/5 544/8/5
f 546/8/5 542/8/5 541/8/5
f 547/8/5 542/8/5 546/8/5
f 548/8/5 542/8/5 547/8/5
f 555/8/5 550/8/5 549/8/5
f 555/8/5 551/8/5 550/8/5
f 556/8/5 551/8/5 555/8/5
f 557/8/5 554/8/5 553/8/5
f 557/8/5 553/8/5 552/8/5
f 558/8/5 554/8/5 557/8/5
f 563/8/5 560/8/5 559/8/5
f 564/8/5 560/8/5 563/8/5
f 565/8/5 560/8/5 564/8/5
f 566/8/5 562/8/5 561/8/5
f 567/8/5 562/8/5 566/8/5
f 568/8/5 562/8/5 567/8/5
f 575/8/5 570/8/5 569/8/5
f 575/8/5 571/8/5 570/8/5
f 576/8/5 571/8/5 575/8/5
f 577/8/5 574/8/5 573/8/5
f 577/8/5 573/8/5 572/8/5
f 578/8/5 574/8/5 577/8/5
f 585/8/5 580/8/5 579/8/5
f 586/8/5 580/8/5 585/8/5
f 587/3/5 582/3/5 581/3/5
f 588/3/5 582/3/5 587/3/5
f 589/8/5 584/8/5 583/8/5
f 590/8/5 584/8/5 589/8/5
f 597/8/5 592/8/5 591/8/5
f 598/8/5 592/8/5 597/8/5
f 599/3/5 594/3/5 593/3/5
f 600/3/5 594/3/5 599/3/5
f 601/8/5 596/8/5 595/8/5
f 602/8/5 596/8/5 601/8/5
f 609/2/5 604/2/5 603/2/5
f 609/2/5 605/2/5 604/2/5
f 610/2/5 605/2/5 609/2/5
f 611/2/5 608/2/5 607/2/5
f 611/2/5 607/2/5 606/2/5
f 612/2/5 608/2/5 611/2/5
f 615/5/5 614/5/5 613/5/5
f 616/5/5 614/5/5 615/5/5
f 619/10/5 618/10/5 617/10/5
f 620/10/5 618/10/5 619/10/5
f 621/7/6 622/7/6 628/7/6
f 623/7/6 624/7/6 629/7/6
f 629/7/6 624/7/6 630/7/6
f 626/7/6 627/7/6 631/7/6
f 625/7/6 626/7/6 631/7/6
f 629/7/6 630/7/6 632/7/6
f 630/7/6 631/7/6 632/7/6
f 621/7/6 628/7/6 632/7/6
f 628/7/6 629/7/6 632/7/6
f 631/7/6 627/7/6 633/7/6
f 632/7/6 631/7/6 633/7/6
f 634/8/6 635/8/6 638/8/6
f 638/8/6 635/8/6 639/8/6
f 636/8/6 637/8/6 640/8/6
f 640/8/6 637/8/6 641/8/6
f 642/8/6 643/8/6 646/8/6
f 646/8/6 643/8/6 647/8/6
f 644/8/6 645/8/6 648/8/6
f 648/8/6 645/8/6 649/8/6
f 642/8/6 646/8/6 650/8/6
f 650/8/6 646/8/6 651/8/6
f 649/8/6 645/8/6 652/8/6
f 652/8/6 645/8/6 653/8/6
f 654/3/6 655/3/6 662/3/6
f 655/1/6 656/1/6 662/1/6
f 662/1/6 656/1/6 663/1/6
f 656/5/6 657/5/6 664/5/6
f 663/1/6 656/1/6 664/1/6
f 659/1/6 660/1/6 665/1/6
f 658/5/6 659/5/6 665/5/6
f 665/1/6 660/1/6 666/1/6
f 660/3/6 661/3/6 667/3/6
f 666/1/6 660/1/6 667/1/6
f 662/3/6 663/3/6 668/3/6
f 654/3/6 662/3/6 668/3/6
f 663/5/6 664/5/6 669/5/6
f 668/3/6 663/3/6 669/3/6
f 664/5/6 657/5/6 670/5/6
f 669/5/6 664/5/6 670/5/6
f 657/3/6 658/3/6 670/3/6
f 665/5/6 666/5/6 671/5/6
f 670/3/6 658/3/6 671/3/6
f 658/5/6 665/5/6 671/5/6
f 666/3/6 667/3/6 672/3/6
f 671/5/6 666/5/6 672/5/6
f 667/3/6 661/3/6 673/3/6
f 672/3/6 667/3/6 673/3/6
f 674/2/6 675/2/6 678/2/6
f 676/2/6 677/2/6 681/2/6
f 678/2/6 679/2/6 682/2/6
f 674/2/6 678/2/6 682/2/6
f 682/2/6 679/2/6 683/2/6
f 680/2/6 681/2/6 684/2/6
f 681/2/6 677/2/6 685/2/6
f 684/2/6 681/2/6 685/2/6
f 686/3/6 687/3/6 688/3/6
f 688/3/6 687/3/6 689/3/6
f 691/5/6 692/5/6 696/5/6
f 693/5/6 694/5/6 697/5/6
f 690/3/6 691/3/6 698/3/6
f 691/5/6 696/5/6 699/5/6
f 698/3/6 691/3/6 699/3/6
f 696/3/6 697/3/6 700/3/6
f 699/5/6 696/5/6 700/5/6
f 697/5/6 694/5/6 701/5/6
f 700/3/6 697/3/6 701/3/6
f 694/3/6 695/3/6 702/3/6
f 701/5/6 694/5/6 702/5/6
f 702/3/6 695/3/6 703/3/6
f 703/3/6 695/3/6 704/3/6
f 703/3/6 704/3/6 706/3/6
f 704/5/6 705/5/6 706/5/6
f 706/5/6 705/5/6 707/5/6
f 690/3/6 698/3/6 708/3/6
f 703/3/6 706/3/6 709/3/6
f 690/3/6 708/3/6 710/3/6
f 708/3/6 709/3/6 710/3/6
f 709/3/6 706/3/6 711/3/6
f 710/3/6 709/3/6 711/3/6
f 712/10/6 713/10/6 714/10/6
f 714/10/6 713/10/6 715/10/6
f 716/5/6 717/5/6 718/5/6
f 718/5/6 717/5/6 719/5/6
