# MagicaVoxel @ Ephtracy

# material
mtllib afterleft.mtl
usemtl palette

# normals
vn -1 0 0
vn 1 0 0
vn 0 0 1
vn 0 0 -1
vn 0 -1 0
vn 0 1 0

# texcoords
vt 0.224609 0.5
vt 0.248047 0.5
vt 0.330078 0.5
vt 0.376953 0.5
vt 0.384766 0.5
vt 0.873047 0.5

# verts
v 8 0 -3
v 8 0 -7
v 8 2 -3
v 8 2 -7
v 8 5 -3
v 8 5 -7
v 8 6 -5
v 8 6 -6
v 8 7 -3
v 8 7 -5
v 8 7 -6
v 8 7 -7
v 12 0 -3
v 12 0 -7
v 12 2 -3
v 12 2 -7
v 12 5 -3
v 12 5 -7
v 12 7 -3
v 12 7 -7
v 8 0 -3
v 8 2 -3
v 8 5 -3
v 8 7 -3
v 12 0 -3
v 12 2 -3
v 12 5 -3
v 12 7 -3
v 8 0 -7
v 8 2 -7
v 8 5 -7
v 8 7 -7
v 12 0 -7
v 12 2 -7
v 12 5 -7
v 12 7 -7
v 8 0 -3
v 12 0 -3
v 9 0 -4
v 11 0 -4
v 9 0 -6
v 11 0 -6
v 8 0 -7
v 12 0 -7
v 8 7 -3
v 12 7 -3
v 8 7 -5
v 11 7 -5
v 8 7 -6
v 11 7 -6
v 8 7 -7
v 12 7 -7

# faces
f 3/6/1 2/6/1 1/6/1
f 4/6/1 2/6/1 3/6/1
f 5/5/1 4/5/1 3/5/1
f 6/5/1 4/5/1 5/5/1
f 7/4/1 6/4/1 5/4/1
f 8/4/1 6/4/1 7/4/1
f 9/4/1 7/4/1 5/4/1
f 10/2/1 8/2/1 7/2/1
f 10/4/1 7/4/1 9/4/1
f 11/4/1 6/4/1 8/4/1
f 11/2/1 8/2/1 10/2/1
f 12/4/1 6/4/1 11/4/1
f 13/6/2 14/6/2 15/6/2
f 15/6/2 14/6/2 16/6/2
f 15/5/2 16/5/2 17/5/2
f 17/5/2 16/5/2 18/5/2
f 17/4/2 18/4/2 19/4/2
f 19/4/2 18/4/2 20/4/2
f 25/6/3 22/6/3 21/6/3
f 26/5/3 23/5/3 22/5/3
f 26/6/3 22/6/3 25/6/3
f 27/4/3 24/4/3 23/4/3
f 27/5/3 23/5/3 26/5/3
f 28/4/3 24/4/3 27/4/3
f 29/6/4 30/6/4 33/6/4
f 30/5/4 31/5/4 34/5/4
f 33/6/4 30/6/4 34/6/4
f 31/4/4 32/4/4 35/4/4
f 34/5/4 31/5/4 35/5/4
f 35/4/4 32/4/4 36/4/4
f 39/6/5 38/6/5 37/6/5
f 40/6/5 38/6/5 39/6/5
f 41/6/5 39/6/5 37/6/5
f 41/1/5 40/1/5 39/1/5
f 42/6/5 38/6/5 40/6/5
f 42/1/5 40/1/5 41/1/5
f 43/6/5 41/6/5 37/6/5
f 43/6/5 42/6/5 41/6/5
f 44/6/5 38/6/5 42/6/5
f 44/6/5 42/6/5 43/6/5
f 45/4/6 46/4/6 47/4/6
f 47/4/6 46/4/6 48/4/6
f 47/2/6 48/2/6 49/2/6
f 48/4/6 46/4/6 50/4/6
f 49/2/6 48/2/6 50/2/6
f 49/4/6 50/4/6 51/4/6
f 50/4/6 46/4/6 52/4/6
f 51/4/6 50/4/6 52/4/6
