# MagicaVoxel @ Ephtracy

# material
mtllib body.mtl
usemtl palette

# normals
vn -1 0 0
vn 1 0 0
vn 0 0 1
vn 0 0 -1
vn 0 -1 0
vn 0 1 0

# texcoords
vt 0.0996094 0.5
vt 0.208984 0.5
vt 0.248047 0.5
vt 0.271484 0.5

# verts
v -10 7 18
v -10 7 -12
v -10 16 18
v -10 16 13
v -10 26 13
v -10 26 -12
v -3 12 -12
v -3 12 -14
v -3 16 -12
v -3 16 -14
v 11 8 18
v 11 8 17
v 11 8 16
v 11 8 13
v 11 14 18
v 11 14 13
v -9 8 18
v -9 8 17
v -9 8 16
v -9 8 13
v -9 16 18
v -9 16 13
v 3 12 -12
v 3 12 -14
v 3 16 -12
v 3 16 -14
v 12 7 18
v 12 7 -12
v 12 14 18
v 12 14 13
v 12 26 13
v 12 26 -12
v -10 7 18
v -10 16 18
v -9 8 18
v -9 16 18
v 11 8 18
v 11 14 18
v 12 7 18
v 12 14 18
v -10 16 13
v -10 26 13
v -9 8 13
v -9 16 13
v -9 24 13
v -9 25 13
v 11 8 13
v 11 14 13
v 11 24 13
v 11 25 13
v 12 14 13
v 12 26 13
v -10 7 -12
v -10 26 -12
v -3 12 -12
v -3 16 -12
v 3 12 -12
v 3 16 -12
v 12 7 -12
v 12 26 -12
v -3 12 -14
v -3 16 -14
v 3 12 -14
v 3 16 -14
v -10 7 18
v 12 7 18
v -9 7 17
v -6 7 17
v 8 7 17
v 11 7 17
v -9 7 16
v -6 7 16
v 8 7 16
v 11 7 16
v -10 7 -12
v 12 7 -12
v -3 12 -12
v 3 12 -12
v -3 12 -14
v 3 12 -14
v -9 8 18
v 11 8 18
v -9 8 17
v -6 8 17
v 8 8 17
v 11 8 17
v -9 8 16
v -6 8 16
v 8 8 16
v 11 8 16
v -9 8 13
v 11 8 13
v 11 14 18
v 12 14 18
v 11 14 13
v 12 14 13
v -10 16 18
v -9 16 18
v -10 16 13
v -9 16 13
v -3 16 -12
v 3 16 -12
v -3 16 -14
v 3 16 -14
v -10 26 13
v 12 26 13
v -10 26 -12
v 12 26 -12

# faces
f 3/3/1 2/3/1 1/3/1
f 4/3/1 2/3/1 3/3/1
f 5/3/1 2/3/1 4/3/1
f 6/3/1 2/3/1 5/3/1
f 9/4/1 8/4/1 7/4/1
f 10/4/1 8/4/1 9/4/1
f 15/3/1 12/3/1 11/3/1
f 15/3/1 14/3/1 13/3/1
f 15/3/1 13/3/1 12/3/1
f 16/3/1 14/3/1 15/3/1
f 17/3/2 18/3/2 21/3/2
f 19/3/2 20/3/2 21/3/2
f 18/3/2 19/3/2 21/3/2
f 21/3/2 20/3/2 22/3/2
f 23/4/2 24/4/2 25/4/2
f 25/4/2 24/4/2 26/4/2
f 27/3/2 28/3/2 29/3/2
f 29/3/2 28/3/2 30/3/2
f 30/3/2 28/3/2 31/3/2
f 31/3/2 28/3/2 32/3/2
f 35/3/3 34/3/3 33/3/3
f 36/3/3 34/3/3 35/3/3
f 37/3/3 35/3/3 33/3/3
f 39/3/3 37/3/3 33/3/3
f 39/3/3 38/3/3 37/3/3
f 40/3/3 38/3/3 39/3/3
f 44/3/3 42/3/3 41/3/3
f 45/3/3 42/3/3 44/3/3
f 46/3/3 42/3/3 45/3/3
f 47/2/3 44/2/3 43/2/3
f 47/2/3 45/2/3 44/2/3
f 48/2/3 45/2/3 47/2/3
f 49/1/3 46/1/3 45/1/3
f 49/2/3 45/2/3 48/2/3
f 50/3/3 42/3/3 46/3/3
f 50/1/3 46/1/3 49/1/3
f 51/3/3 49/3/3 48/3/3
f 51/3/3 50/3/3 49/3/3
f 52/3/3 42/3/3 50/3/3
f 52/3/3 50/3/3 51/3/3
f 53/3/4 54/3/4 55/3/4
f 55/3/4 54/3/4 56/3/4
f 53/3/4 55/3/4 57/3/4
f 56/3/4 54/3/4 58/3/4
f 53/3/4 57/3/4 59/3/4
f 57/3/4 58/3/4 59/3/4
f 58/3/4 54/3/4 60/3/4
f 59/3/4 58/3/4 60/3/4
f 61/4/4 62/4/4 63/4/4
f 63/4/4 62/4/4 64/4/4
f 67/3/5 66/3/5 65/3/5
f 68/3/5 66/3/5 67/3/5
f 69/3/5 66/3/5 68/3/5
f 70/3/5 66/3/5 69/3/5
f 71/3/5 67/3/5 65/3/5
f 71/2/5 68/2/5 67/2/5
f 72/3/5 69/3/5 68/3/5
f 72/2/5 68/2/5 71/2/5
f 73/2/5 70/2/5 69/2/5
f 73/3/5 69/3/5 72/3/5
f 74/3/5 66/3/5 70/3/5
f 74/2/5 70/2/5 73/2/5
f 75/3/5 73/3/5 72/3/5
f 75/3/5 72/3/5 71/3/5
f 75/3/5 74/3/5 73/3/5
f 75/3/5 71/3/5 65/3/5
f 76/3/5 66/3/5 74/3/5
f 76/3/5 74/3/5 75/3/5
f 79/4/5 78/4/5 77/4/5
f 80/4/5 78/4/5 79/4/5
f 81/3/6 82/3/6 83/3/6
f 83/3/6 82/3/6 84/3/6
f 84/3/6 82/3/6 85/3/6
f 85/3/6 82/3/6 86/3/6
f 83/2/6 84/2/6 87/2/6
f 84/3/6 85/3/6 88/3/6
f 87/2/6 84/2/6 88/2/6
f 85/2/6 86/2/6 89/2/6
f 88/3/6 85/3/6 89/3/6
f 89/2/6 86/2/6 90/2/6
f 87/3/6 88/3/6 91/3/6
f 88/3/6 89/3/6 91/3/6
f 89/3/6 90/3/6 91/3/6
f 91/3/6 90/3/6 92/3/6
f 93/3/6 94/3/6 95/3/6
f 95/3/6 94/3/6 96/3/6
f 97/3/6 98/3/6 99/3/6
f 99/3/6 98/3/6 100/3/6
f 101/4/6 102/4/6 103/4/6
f 103/4/6 102/4/6 104/4/6
f 105/3/6 106/3/6 107/3/6
f 107/3/6 106/3/6 108/3/6
