# MagicaVoxel @ Ephtracy

# material
mtllib +1s.mtl
usemtl palette

# normals
vn -1 0 0
vn 1 0 0
vn 0 0 1
vn 0 0 -1
vn 0 -1 0
vn 0 1 0

# texcoords
vt 0.0175781 0.5
vt 0.482422 0.5
vt 0.560547 0.5
vt 0.583984 0.5
vt 0.916016 0.5
vt 0.951172 0.5

# verts
v -8 14 1
v -8 14 -0
v -8 22 1
v -8 22 -0
v -7 13 1
v -7 13 -0
v -7 14 1
v -7 14 -0
v -7 22 1
v -7 22 -0
v -7 23 1
v -7 23 -0
v -6 12 1
v -6 12 -0
v -6 13 1
v -6 13 -0
v -6 23 1
v -6 23 -0
v -6 24 1
v -6 24 -0
v -5 24 1
v -5 24 -0
v -5 27 1
v -5 27 -0
v -4 0 1
v -4 0 -0
v -4 12 1
v -4 12 -0
v 1 24 1
v 1 24 -0
v 1 27 1
v 1 27 -0
v 2 0 1
v 2 0 -0
v 2 12 1
v 2 12 -0
v -3 0 1
v -3 0 -0
v -3 12 1
v -3 12 -0
v -2 24 1
v -2 24 -0
v -2 27 1
v -2 27 -0
v 3 0 1
v 3 0 -0
v 3 12 1
v 3 12 -0
v 4 24 1
v 4 24 -0
v 4 27 1
v 4 27 -0
v 5 12 1
v 5 12 -0
v 5 13 1
v 5 13 -0
v 5 23 1
v 5 23 -0
v 5 24 1
v 5 24 -0
v 6 13 1
v 6 13 -0
v 6 14 1
v 6 14 -0
v 6 22 1
v 6 22 -0
v 6 23 1
v 6 23 -0
v 7 14 1
v 7 14 -0
v 7 22 1
v 7 22 -0
v -8 14 1
v -8 22 1
v -7 13 1
v -7 14 1
v -7 16 1
v -7 22 1
v -7 23 1
v -6 12 1
v -6 13 1
v -6 14 1
v -6 16 1
v -6 17 1
v -6 21 1
v -6 23 1
v -6 24 1
v -5 12 1
v -5 13 1
v -5 17 1
v -5 18 1
v -5 20 1
v -5 21 1
v -5 24 1
v -5 27 1
v -4 0 1
v -4 12 1
v -4 21 1
v -4 22 1
v -4 23 1
v -4 25 1
v -4 26 1
v -3 0 1
v -3 12 1
v -3 19 1
v -3 20 1
v -3 22 1
v -3 25 1
v -3 26 1
v -2 24 1
v -2 27 1
v 1 24 1
v 1 27 1
v 2 0 1
v 2 12 1
v 2 19 1
v 2 20 1
v 2 22 1
v 2 25 1
v 2 26 1
v 3 0 1
v 3 12 1
v 3 21 1
v 3 22 1
v 3 23 1
v 3 25 1
v 3 26 1
v 4 12 1
v 4 13 1
v 4 17 1
v 4 18 1
v 4 20 1
v 4 21 1
v 4 24 1
v 4 27 1
v 5 12 1
v 5 13 1
v 5 14 1
v 5 16 1
v 5 17 1
v 5 21 1
v 5 23 1
v 5 24 1
v 6 13 1
v 6 14 1
v 6 16 1
v 6 22 1
v 6 23 1
v 7 14 1
v 7 22 1
v -8 14 -0
v -8 22 -0
v -7 13 -0
v -7 14 -0
v -7 16 -0
v -7 22 -0
v -7 23 -0
v -6 12 -0
v -6 13 -0
v -6 14 -0
v -6 16 -0
v -6 17 -0
v -6 21 -0
v -6 23 -0
v -6 24 -0
v -5 12 -0
v -5 13 -0
v -5 17 -0
v -5 18 -0
v -5 20 -0
v -5 21 -0
v -5 24 -0
v -5 27 -0
v -4 0 -0
v -4 12 -0
v -4 21 -0
v -4 22 -0
v -4 23 -0
v -4 25 -0
v -4 26 -0
v -3 0 -0
v -3 12 -0
v -3 19 -0
v -3 20 -0
v -3 22 -0
v -3 25 -0
v -3 26 -0
v -2 24 -0
v -2 27 -0
v 1 24 -0
v 1 27 -0
v 2 0 -0
v 2 12 -0
v 2 19 -0
v 2 20 -0
v 2 22 -0
v 2 25 -0
v 2 26 -0
v 3 0 -0
v 3 12 -0
v 3 21 -0
v 3 22 -0
v 3 23 -0
v 3 25 -0
v 3 26 -0
v 4 12 -0
v 4 13 -0
v 4 17 -0
v 4 18 -0
v 4 20 -0
v 4 21 -0
v 4 24 -0
v 4 27 -0
v 5 12 -0
v 5 13 -0
v 5 14 -0
v 5 16 -0
v 5 17 -0
v 5 21 -0
v 5 23 -0
v 5 24 -0
v 6 13 -0
v 6 14 -0
v 6 16 -0
v 6 22 -0
v 6 23 -0
v 7 14 -0
v 7 22 -0
v -4 0 1
v -3 0 1
v 2 0 1
v 3 0 1
v -4 0 -0
v -3 0 -0
v 2 0 -0
v 3 0 -0
v -6 12 1
v -5 12 1
v -4 12 1
v -3 12 1
v 2 12 1
v 3 12 1
v 4 12 1
v 5 12 1
v -6 12 -0
v -5 12 -0
v -4 12 -0
v -3 12 -0
v 2 12 -0
v 3 12 -0
v 4 12 -0
v 5 12 -0
v -7 13 1
v -6 13 1
v 5 13 1
v 6 13 1
v -7 13 -0
v -6 13 -0
v 5 13 -0
v 6 13 -0
v -8 14 1
v -7 14 1
v 6 14 1
v 7 14 1
v -8 14 -0
v -7 14 -0
v 6 14 -0
v 7 14 -0
v -8 22 1
v -7 22 1
v 6 22 1
v 7 22 1
v -8 22 -0
v -7 22 -0
v 6 22 -0
v 7 22 -0
v -7 23 1
v -6 23 1
v 5 23 1
v 6 23 1
v -7 23 -0
v -6 23 -0
v 5 23 -0
v 6 23 -0
v -6 24 1
v -5 24 1
v -2 24 1
v 1 24 1
v 4 24 1
v 5 24 1
v -6 24 -0
v -5 24 -0
v -2 24 -0
v 1 24 -0
v 4 24 -0
v 5 24 -0
v -5 27 1
v -2 27 1
v 1 27 1
v 4 27 1
v -5 27 -0
v -2 27 -0
v 1 27 -0
v 4 27 -0

# faces
f 3/3/1 2/3/1 1/3/1
f 4/3/1 2/3/1 3/3/1
f 7/3/1 6/3/1 5/3/1
f 8/3/1 6/3/1 7/3/1
f 11/3/1 10/3/1 9/3/1
f 12/3/1 10/3/1 11/3/1
f 15/3/1 14/3/1 13/3/1
f 16/3/1 14/3/1 15/3/1
f 19/3/1 18/3/1 17/3/1
f 20/3/1 18/3/1 19/3/1
f 23/5/1 22/5/1 21/5/1
f 24/5/1 22/5/1 23/5/1
f 27/3/1 26/3/1 25/3/1
f 28/3/1 26/3/1 27/3/1
f 31/5/1 30/5/1 29/5/1
f 32/5/1 30/5/1 31/5/1
f 35/3/1 34/3/1 33/3/1
f 36/3/1 34/3/1 35/3/1
f 37/3/2 38/3/2 39/3/2
f 39/3/2 38/3/2 40/3/2
f 41/5/2 42/5/2 43/5/2
f 43/5/2 42/5/2 44/5/2
f 45/3/2 46/3/2 47/3/2
f 47/3/2 46/3/2 48/3/2
f 49/5/2 50/5/2 51/5/2
f 51/5/2 50/5/2 52/5/2
f 53/3/2 54/3/2 55/3/2
f 55/3/2 54/3/2 56/3/2
f 57/3/2 58/3/2 59/3/2
f 59/3/2 58/3/2 60/3/2
f 61/3/2 62/3/2 63/3/2
f 63/3/2 62/3/2 64/3/2
f 65/3/2 66/3/2 67/3/2
f 67/3/2 66/3/2 68/3/2
f 69/3/2 70/3/2 71/3/2
f 71/3/2 70/3/2 72/3/2
f 76/3/3 74/3/3 73/3/3
f 77/3/3 74/3/3 76/3/3
f 78/3/3 74/3/3 77/3/3
f 81/3/3 76/3/3 75/3/3
f 82/2/3 77/2/3 76/2/3
f 82/3/3 76/3/3 81/3/3
f 83/3/3 79/3/3 78/3/3
f 83/2/3 77/2/3 82/2/3
f 83/3/3 78/3/3 77/3/3
f 84/3/3 79/3/3 83/3/3
f 85/3/3 79/3/3 84/3/3
f 86/3/3 79/3/3 85/3/3
f 88/3/3 81/3/3 80/3/3
f 89/2/3 82/2/3 81/2/3
f 89/3/3 81/3/3 88/3/3
f 89/2/3 83/2/3 82/2/3
f 89/2/3 84/2/3 83/2/3
f 90/3/3 85/3/3 84/3/3
f 90/2/3 84/2/3 89/2/3
f 91/3/3 85/3/3 90/3/3
f 92/3/3 85/3/3 91/3/3
f 93/1/3 86/1/3 85/1/3
f 93/3/3 85/3/3 92/3/3
f 94/3/3 87/3/3 86/3/3
f 97/2/3 89/2/3 88/2/3
f 97/2/3 90/2/3 89/2/3
f 97/2/3 91/2/3 90/2/3
f 98/1/3 86/1/3 93/1/3
f 98/4/3 93/4/3 92/4/3
f 99/1/3 86/1/3 98/1/3
f 100/3/3 94/3/3 86/3/3
f 100/1/3 86/1/3 99/1/3
f 101/5/3 95/5/3 94/5/3
f 102/5/3 95/5/3 101/5/3
f 103/3/3 97/3/3 96/3/3
f 104/2/3 91/2/3 97/2/3
f 104/3/3 97/3/3 103/3/3
f 105/3/3 92/3/3 91/3/3
f 106/4/3 99/4/3 98/4/3
f 106/3/3 92/3/3 105/3/3
f 106/4/3 98/4/3 92/4/3
f 107/3/3 100/3/3 99/3/3
f 107/4/3 99/4/3 106/4/3
f 108/5/3 101/5/3 94/5/3
f 108/6/3 102/6/3 101/6/3
f 109/5/3 95/5/3 102/5/3
f 109/6/3 102/6/3 108/6/3
f 110/5/3 108/5/3 94/5/3
f 110/3/3 94/3/3 100/3/3
f 110/5/3 109/5/3 108/5/3
f 110/3/3 107/3/3 106/3/3
f 110/3/3 100/3/3 107/3/3
f 111/5/3 95/5/3 109/5/3
f 111/5/3 109/5/3 110/5/3
f 112/3/3 110/3/3 106/3/3
f 115/2/3 91/2/3 104/2/3
f 116/4/3 106/4/3 105/4/3
f 116/3/3 105/3/3 91/3/3
f 117/3/3 112/3/3 106/3/3
f 117/4/3 106/4/3 116/4/3
f 118/3/3 112/3/3 117/3/3
f 119/5/3 113/5/3 112/5/3
f 120/5/3 113/5/3 119/5/3
f 121/3/3 115/3/3 114/3/3
f 122/2/3 91/2/3 115/2/3
f 122/3/3 115/3/3 121/3/3
f 123/4/3 118/4/3 117/4/3
f 124/3/3 112/3/3 118/3/3
f 124/4/3 118/4/3 123/4/3
f 125/3/3 112/3/3 124/3/3
f 126/5/3 119/5/3 112/5/3
f 126/6/3 120/6/3 119/6/3
f 127/5/3 113/5/3 120/5/3
f 127/6/3 120/6/3 126/6/3
f 128/2/3 91/2/3 122/2/3
f 129/2/3 91/2/3 128/2/3
f 130/2/3 91/2/3 129/2/3
f 131/3/3 116/3/3 91/3/3
f 131/2/3 91/2/3 130/2/3
f 131/3/3 117/3/3 116/3/3
f 132/4/3 123/4/3 117/4/3
f 132/3/3 117/3/3 131/3/3
f 133/1/3 125/1/3 124/1/3
f 133/4/3 123/4/3 132/4/3
f 133/1/3 124/1/3 123/1/3
f 134/5/3 126/5/3 112/5/3
f 134/3/3 112/3/3 125/3/3
f 134/5/3 127/5/3 126/5/3
f 135/5/3 113/5/3 127/5/3
f 135/5/3 127/5/3 134/5/3
f 136/3/3 129/3/3 128/3/3
f 137/2/3 130/2/3 129/2/3
f 137/3/3 129/3/3 136/3/3
f 138/2/3 130/2/3 137/2/3
f 139/2/3 130/2/3 138/2/3
f 140/3/3 131/3/3 130/3/3
f 140/2/3 130/2/3 139/2/3
f 140/3/3 133/3/3 132/3/3
f 140/3/3 132/3/3 131/3/3
f 141/1/3 125/1/3 133/1/3
f 141/3/3 133/3/3 140/3/3
f 142/3/3 134/3/3 125/3/3
f 142/1/3 125/1/3 141/1/3
f 143/3/3 134/3/3 142/3/3
f 144/3/3 138/3/3 137/3/3
f 145/2/3 139/2/3 138/2/3
f 145/3/3 138/3/3 144/3/3
f 146/3/3 140/3/3 139/3/3
f 146/2/3 139/2/3 145/2/3
f 146/3/3 141/3/3 140/3/3
f 146/3/3 142/3/3 141/3/3
f 147/3/3 142/3/3 146/3/3
f 148/3/3 142/3/3 147/3/3
f 149/3/3 146/3/3 145/3/3
f 149/3/3 147/3/3 146/3/3
f 150/3/3 147/3/3 149/3/3
f 151/3/4 152/3/4 154/3/4
f 154/3/4 152/3/4 155/3/4
f 155/3/4 152/3/4 156/3/4
f 153/3/4 154/3/4 159/3/4
f 154/2/4 155/2/4 160/2/4
f 159/3/4 154/3/4 160/3/4
f 156/3/4 157/3/4 161/3/4
f 160/2/4 155/2/4 161/2/4
f 155/3/4 156/3/4 161/3/4
f 161/3/4 157/3/4 162/3/4
f 162/3/4 157/3/4 163/3/4
f 163/3/4 157/3/4 164/3/4
f 158/3/4 159/3/4 166/3/4
f 159/2/4 160/2/4 167/2/4
f 166/3/4 159/3/4 167/3/4
f 160/2/4 161/2/4 167/2/4
f 161/2/4 162/2/4 167/2/4
f 162/3/4 163/3/4 168/3/4
f 167/2/4 162/2/4 168/2/4
f 168/3/4 163/3/4 169/3/4
f 169/3/4 163/3/4 170/3/4
f 163/1/4 164/1/4 171/1/4
f 170/3/4 163/3/4 171/3/4
f 164/3/4 165/3/4 172/3/4
f 166/2/4 167/2/4 175/2/4
f 167/2/4 168/2/4 175/2/4
f 168/2/4 169/2/4 175/2/4
f 171/1/4 164/1/4 176/1/4
f 170/4/4 171/4/4 176/4/4
f 176/1/4 164/1/4 177/1/4
f 164/3/4 172/3/4 178/3/4
f 177/1/4 164/1/4 178/1/4
f 172/5/4 173/5/4 179/5/4
f 179/5/4 173/5/4 180/5/4
f 174/3/4 175/3/4 181/3/4
f 175/2/4 169/2/4 182/2/4
f 181/3/4 175/3/4 182/3/4
f 169/3/4 170/3/4 183/3/4
f 176/4/4 177/4/4 184/4/4
f 183/3/4 170/3/4 184/3/4
f 170/4/4 176/4/4 184/4/4
f 177/3/4 178/3/4 185/3/4
f 184/4/4 177/4/4 185/4/4
f 172/5/4 179/5/4 186/5/4
f 179/6/4 180/6/4 186/6/4
f 180/5/4 173/5/4 187/5/4
f 186/6/4 180/6/4 187/6/4
f 172/5/4 186/5/4 188/5/4
f 178/3/4 172/3/4 188/3/4
f 186/5/4 187/5/4 188/5/4
f 184/3/4 185/3/4 188/3/4
f 185/3/4 178/3/4 188/3/4
f 187/5/4 173/5/4 189/5/4
f 188/5/4 187/5/4 189/5/4
f 184/3/4 188/3/4 190/3/4
f 182/2/4 169/2/4 193/2/4
f 183/4/4 184/4/4 194/4/4
f 169/3/4 183/3/4 194/3/4
f 184/3/4 190/3/4 195/3/4
f 194/4/4 184/4/4 195/4/4
f 195/3/4 190/3/4 196/3/4
f 190/5/4 191/5/4 197/5/4
f 197/5/4 191/5/4 198/5/4
f 192/3/4 193/3/4 199/3/4
f 193/2/4 169/2/4 200/2/4
f 199/3/4 193/3/4 200/3/4
f 195/4/4 196/4/4 201/4/4
f 196/3/4 190/3/4 202/3/4
f 201/4/4 196/4/4 202/4/4
f 202/3/4 190/3/4 203/3/4
f 190/5/4 197/5/4 204/5/4
f 197/6/4 198/6/4 204/6/4
f 198/5/4 191/5/4 205/5/4
f 204/6/4 198/6/4 205/6/4
f 200/2/4 169/2/4 206/2/4
f 206/2/4 169/2/4 207/2/4
f 207/2/4 169/2/4 208/2/4
f 169/3/4 194/3/4 209/3/4
f 208/2/4 169/2/4 209/2/4
f 194/3/4 195/3/4 209/3/4
f 195/4/4 201/4/4 210/4/4
f 209/3/4 195/3/4 210/3/4
f 202/1/4 203/1/4 211/1/4
f 210/4/4 201/4/4 211/4/4
f 201/1/4 202/1/4 211/1/4
f 190/5/4 204/5/4 212/5/4
f 203/3/4 190/3/4 212/3/4
f 204/5/4 205/5/4 212/5/4
f 205/5/4 191/5/4 213/5/4
f 212/5/4 205/5/4 213/5/4
f 206/3/4 207/3/4 214/3/4
f 207/2/4 208/2/4 215/2/4
f 214/3/4 207/3/4 215/3/4
f 215/2/4 208/2/4 216/2/4
f 216/2/4 208/2/4 217/2/4
f 208/3/4 209/3/4 218/3/4
f 217/2/4 208/2/4 218/2/4
f 210/3/4 211/3/4 218/3/4
f 209/3/4 210/3/4 218/3/4
f 211/1/4 203/1/4 219/1/4
f 218/3/4 211/3/4 219/3/4
f 203/3/4 212/3/4 220/3/4
f 219/1/4 203/1/4 220/1/4
f 220/3/4 212/3/4 221/3/4
f 215/3/4 216/3/4 222/3/4
f 216/2/4 217/2/4 223/2/4
f 222/3/4 216/3/4 223/3/4
f 217/3/4 218/3/4 224/3/4
f 223/2/4 217/2/4 224/2/4
f 218/3/4 219/3/4 224/3/4
f 219/3/4 220/3/4 224/3/4
f 224/3/4 220/3/4 225/3/4
f 225/3/4 220/3/4 226/3/4
f 223/3/4 224/3/4 227/3/4
f 224/3/4 225/3/4 227/3/4
f 227/3/4 225/3/4 228/3/4
f 233/3/5 230/3/5 229/3/5
f 234/3/5 230/3/5 233/3/5
f 235/3/5 232/3/5 231/3/5
f 236/3/5 232/3/5 235/3/5
f 245/3/5 238/3/5 237/3/5
f 246/2/5 239/2/5 238/2/5
f 246/3/5 238/3/5 245/3/5
f 247/2/5 239/2/5 246/2/5
f 248/2/5 241/2/5 240/2/5
f 249/2/5 241/2/5 248/2/5
f 250/2/5 243/2/5 242/2/5
f 251/3/5 244/3/5 243/3/5
f 251/2/5 243/2/5 250/2/5
f 252/3/5 244/3/5 251/3/5
f 257/3/5 254/3/5 253/3/5
f 258/3/5 254/3/5 257/3/5
f 259/3/5 256/3/5 255/3/5
f 260/3/5 256/3/5 259/3/5
f 265/3/5 262/3/5 261/3/5
f 266/3/5 262/3/5 265/3/5
f 267/3/5 264/3/5 263/3/5
f 268/3/5 264/3/5 267/3/5
f 269/3/6 270/3/6 273/3/6
f 273/3/6 270/3/6 274/3/6
f 271/3/6 272/3/6 275/3/6
f 275/3/6 272/3/6 276/3/6
f 277/3/6 278/3/6 281/3/6
f 281/3/6 278/3/6 282/3/6
f 279/3/6 280/3/6 283/3/6
f 283/3/6 280/3/6 284/3/6
f 285/3/6 286/3/6 291/3/6
f 291/3/6 286/3/6 292/3/6
f 287/3/6 288/3/6 293/3/6
f 293/3/6 288/3/6 294/3/6
f 289/3/6 290/3/6 295/3/6
f 295/3/6 290/3/6 296/3/6
f 297/5/6 298/5/6 301/5/6
f 301/5/6 298/5/6 302/5/6
f 299/5/6 300/5/6 303/5/6
f 303/5/6 300/5/6 304/5/6
