# MagicaVoxel @ Ephtracy

# material
mtllib roadLock_1.mtl
usemtl palette

# normals
vn -1 0 0
vn 1 0 0
vn 0 0 1
vn 0 0 -1
vn 0 -1 0
vn 0 1 0

# texcoords
vt 0.458984 0.5
vt 0.478516 0.5
vt 0.990234 0.5

# verts
v -3.5 6 2.5
v -3.5 6 -3.5
v -3.5 7 2.5
v -3.5 7 -3.5
v -2.5 6 3.5
v -2.5 6 2.5
v -2.5 6 -3.5
v -2.5 6 -4.5
v -2.5 7 3.5
v -2.5 7 2.5
v -2.5 7 1.5
v -2.5 7 -2.5
v -2.5 7 -3.5
v -2.5 7 -4.5
v -2.5 8 1.5
v -2.5 8 0.5
v -2.5 8 -1.5
v -2.5 8 -2.5
v -2.5 9 2.5
v -2.5 9 1.5
v -2.5 9 -1.5
v -2.5 9 -2.5
v -2.5 9 -3.5
v -2.5 10 1.5
v -2.5 10 0.5
v -2.5 10 -0.5
v -2.5 10 -1.5
v -2.5 11 1.5
v -2.5 11 0.5
v -2.5 11 -1.5
v -2.5 11 -2.5
v -2.5 12 0.5
v -2.5 12 -0.5
v -2.5 12 -1.5
v -1.5 9 2.5
v -1.5 9 1.5
v -1.5 9 -2.5
v -1.5 9 -3.5
v -1.5 10 2.5
v -1.5 10 1.5
v -1.5 11 2.5
v -1.5 11 1.5
v -1.5 11 0.5
v -1.5 11 -1.5
v -1.5 11 -2.5
v -1.5 11 -3.5
v -1.5 12 0.5
v -1.5 12 -0.5
v -1.5 12 -1.5
v -1.5 13 1.5
v -1.5 13 0.5
v -1.5 13 -0.5
v -1.5 13 -1.5
v -1.5 13 -2.5
v -1.5 14 -0.5
v -1.5 14 -1.5
v -1.5 15 0.5
v -1.5 15 -1.5
v -0.5 11 2.5
v -0.5 11 1.5
v -0.5 11 -2.5
v -0.5 11 -3.5
v -0.5 12 2.5
v -0.5 12 1.5
v -0.5 12 -2.5
v -0.5 12 -3.5
v -0.5 13 1.5
v -0.5 13 0.5
v -0.5 13 -1.5
v -0.5 13 -2.5
v -0.5 14 1.5
v -0.5 14 0.5
v -0.5 14 -1.5
v -0.5 14 -2.5
v -0.5 15 1.5
v -0.5 15 0.5
v -0.5 15 -1.5
v -0.5 15 -2.5
v -0.5 17 0.5
v -0.5 17 -1.5
v -0.5 18 0.5
v -0.5 18 -1.5
v 1.5 8 0.5
v 1.5 8 -1.5
v 1.5 9 0.5
v 1.5 9 -1.5
v 1.5 13 0.5
v 1.5 13 -1.5
v 2.5 7 1.5
v 2.5 7 -2.5
v 2.5 8 1.5
v 2.5 8 -2.5
v 3.5 6 2.5
v 3.5 6 -3.5
v 3.5 7 2.5
v 3.5 7 1.5
v 3.5 7 -2.5
v 3.5 7 -3.5
v -2.5 6 2.5
v -2.5 6 -3.5
v -2.5 7 2.5
v -2.5 7 1.5
v -2.5 7 -2.5
v -2.5 7 -3.5
v -1.5 7 1.5
v -1.5 7 -2.5
v -1.5 8 1.5
v -1.5 8 -2.5
v -0.5 8 0.5
v -0.5 8 -1.5
v -0.5 9 0.5
v -0.5 9 -1.5
v -0.5 13 0.5
v -0.5 13 -1.5
v 1.5 11 2.5
v 1.5 11 1.5
v 1.5 11 -2.5
v 1.5 11 -3.5
v 1.5 12 2.5
v 1.5 12 1.5
v 1.5 12 -2.5
v 1.5 12 -3.5
v 1.5 13 1.5
v 1.5 13 0.5
v 1.5 13 -1.5
v 1.5 13 -2.5
v 1.5 14 -1.5
v 1.5 15 1.5
v 1.5 15 0.5
v 1.5 15 -0.5
v 1.5 15 -1.5
v 1.5 15 -2.5
v 1.5 16 0.5
v 1.5 16 -0.5
v 1.5 17 -0.5
v 1.5 17 -1.5
v 1.5 18 0.5
v 1.5 18 -1.5
v 2.5 9 2.5
v 2.5 9 1.5
v 2.5 9 -2.5
v 2.5 9 -3.5
v 2.5 10 -2.5
v 2.5 10 -3.5
v 2.5 11 2.5
v 2.5 11 1.5
v 2.5 11 0.5
v 2.5 11 -1.5
v 2.5 11 -2.5
v 2.5 11 -3.5
v 2.5 12 0.5
v 2.5 12 -1.5
v 2.5 13 1.5
v 2.5 13 0.5
v 2.5 13 -1.5
v 2.5 13 -2.5
v 2.5 14 -0.5
v 2.5 14 -1.5
v 2.5 15 0.5
v 2.5 15 -0.5
v 2.5 15 -1.5
v 3.5 6 3.5
v 3.5 6 2.5
v 3.5 6 -3.5
v 3.5 6 -4.5
v 3.5 7 3.5
v 3.5 7 2.5
v 3.5 7 1.5
v 3.5 7 -2.5
v 3.5 7 -3.5
v 3.5 7 -4.5
v 3.5 8 2.5
v 3.5 8 1.5
v 3.5 8 -2.5
v 3.5 9 2.5
v 3.5 9 1.5
v 3.5 9 -1.5
v 3.5 9 -2.5
v 3.5 9 -3.5
v 3.5 11 1.5
v 3.5 11 0.5
v 3.5 11 -1.5
v 3.5 11 -2.5
v 3.5 12 0.5
v 3.5 12 -1.5
v 4.5 6 2.5
v 4.5 6 -3.5
v 4.5 7 2.5
v 4.5 7 -3.5
v -2.5 6 3.5
v -2.5 7 3.5
v 3.5 6 3.5
v 3.5 7 3.5
v -3.5 6 2.5
v -3.5 7 2.5
v -2.5 6 2.5
v -2.5 7 2.5
v -2.5 9 2.5
v -1.5 7 2.5
v -1.5 9 2.5
v -1.5 10 2.5
v -1.5 11 2.5
v -0.5 10 2.5
v -0.5 11 2.5
v -0.5 12 2.5
v 1.5 11 2.5
v 1.5 12 2.5
v 2.5 7 2.5
v 2.5 8 2.5
v 2.5 9 2.5
v 2.5 11 2.5
v 3.5 6 2.5
v 3.5 7 2.5
v 3.5 8 2.5
v 3.5 9 2.5
v 4.5 6 2.5
v 4.5 7 2.5
v -2.5 9 1.5
v -2.5 10 1.5
v -2.5 11 1.5
v -1.5 9 1.5
v -1.5 10 1.5
v -1.5 11 1.5
v -1.5 13 1.5
v -0.5 11 1.5
v -0.5 12 1.5
v -0.5 13 1.5
v -0.5 14 1.5
v -0.5 15 1.5
v 0.5 14 1.5
v 0.5 15 1.5
v 1.5 11 1.5
v 1.5 12 1.5
v 1.5 13 1.5
v 1.5 15 1.5
v 2.5 9 1.5
v 2.5 11 1.5
v 2.5 13 1.5
v 3.5 9 1.5
v 3.5 11 1.5
v -2.5 11 0.5
v -2.5 12 0.5
v -1.5 11 0.5
v -1.5 12 0.5
v -1.5 13 0.5
v -1.5 15 0.5
v -0.5 13 0.5
v -0.5 14 0.5
v -0.5 15 0.5
v -0.5 17 0.5
v -0.5 18 0.5
v 0.5 15 0.5
v 0.5 16 0.5
v 0.5 17 0.5
v 1.5 13 0.5
v 1.5 15 0.5
v 1.5 16 0.5
v 1.5 18 0.5
v 2.5 11 0.5
v 2.5 12 0.5
v 2.5 13 0.5
v 2.5 15 0.5
v 3.5 11 0.5
v 3.5 12 0.5
v -0.5 8 -1.5
v -0.5 9 -1.5
v -0.5 13 -1.5
v 1.5 8 -1.5
v 1.5 9 -1.5
v 1.5 13 -1.5
v -1.5 7 -2.5
v -1.5 8 -2.5
v -0.5 8 -2.5
v 1.5 8 -2.5
v 2.5 7 -2.5
v 2.5 8 -2.5
v -2.5 6 -3.5
v -2.5 7 -3.5
v -1.5 7 -3.5
v 2.5 7 -3.5
v 3.5 6 -3.5
v 3.5 7 -3.5
v -2.5 6 2.5
v -2.5 7 2.5
v -1.5 7 2.5
v 2.5 7 2.5
v 3.5 6 2.5
v 3.5 7 2.5
v -1.5 7 1.5
v -1.5 8 1.5
v -0.5 8 1.5
v 1.5 8 1.5
v 2.5 7 1.5
v 2.5 8 1.5
v -0.5 8 0.5
v -0.5 9 0.5
v -0.5 13 0.5
v 1.5 8 0.5
v 1.5 9 0.5
v 1.5 13 0.5
v -2.5 11 -1.5
v -2.5 12 -1.5
v -1.5 11 -1.5
v -1.5 12 -1.5
v -1.5 13 -1.5
v -1.5 14 -1.5
v -1.5 15 -1.5
v -0.5 13 -1.5
v -0.5 14 -1.5
v -0.5 15 -1.5
v -0.5 17 -1.5
v -0.5 18 -1.5
v 1.5 13 -1.5
v 1.5 14 -1.5
v 1.5 15 -1.5
v 1.5 17 -1.5
v 1.5 18 -1.5
v 2.5 11 -1.5
v 2.5 12 -1.5
v 2.5 13 -1.5
v 2.5 14 -1.5
v 2.5 15 -1.5
v 3.5 11 -1.5
v 3.5 12 -1.5
v -2.5 9 -2.5
v -2.5 11 -2.5
v -1.5 9 -2.5
v -1.5 11 -2.5
v -1.5 13 -2.5
v -0.5 11 -2.5
v -0.5 12 -2.5
v -0.5 13 -2.5
v -0.5 14 -2.5
v -0.5 15 -2.5
v 0.5 13 -2.5
v 0.5 14 -2.5
v 1.5 11 -2.5
v 1.5 12 -2.5
v 1.5 13 -2.5
v 1.5 15 -2.5
v 2.5 9 -2.5
v 2.5 10 -2.5
v 2.5 11 -2.5
v 2.5 13 -2.5
v 3.5 9 -2.5
v 3.5 11 -2.5
v -3.5 6 -3.5
v -3.5 7 -3.5
v -2.5 6 -3.5
v -2.5 7 -3.5
v -2.5 9 -3.5
v -1.5 7 -3.5
v -1.5 9 -3.5
v -1.5 11 -3.5
v -0.5 11 -3.5
v -0.5 12 -3.5
v 1.5 10 -3.5
v 1.5 11 -3.5
v 1.5 12 -3.5
v 2.5 7 -3.5
v 2.5 9 -3.5
v 2.5 10 -3.5
v 2.5 11 -3.5
v 3.5 6 -3.5
v 3.5 7 -3.5
v 3.5 9 -3.5
v 4.5 6 -3.5
v 4.5 7 -3.5
v -2.5 6 -4.5
v -2.5 7 -4.5
v 3.5 6 -4.5
v 3.5 7 -4.5
v -2.5 6 3.5
v 3.5 6 3.5
v -3.5 6 2.5
v -2.5 6 2.5
v 3.5 6 2.5
v 4.5 6 2.5
v -3.5 6 -3.5
v -2.5 6 -3.5
v 3.5 6 -3.5
v 4.5 6 -3.5
v -2.5 6 -4.5
v 3.5 6 -4.5
v -2.5 7 2.5
v -1.5 7 2.5
v 2.5 7 2.5
v 3.5 7 2.5
v -2.5 7 1.5
v -1.5 7 1.5
v 2.5 7 1.5
v 3.5 7 1.5
v -2.5 7 -2.5
v -1.5 7 -2.5
v 2.5 7 -2.5
v 3.5 7 -2.5
v -2.5 7 -3.5
v -1.5 7 -3.5
v 2.5 7 -3.5
v 3.5 7 -3.5
v -1.5 8 1.5
v -0.5 8 1.5
v 1.5 8 1.5
v 2.5 8 1.5
v -0.5 8 0.5
v 1.5 8 0.5
v -0.5 8 -1.5
v 1.5 8 -1.5
v -1.5 8 -2.5
v -0.5 8 -2.5
v 1.5 8 -2.5
v 2.5 8 -2.5
v -0.5 13 0.5
v 1.5 13 0.5
v -0.5 13 -1.5
v 1.5 13 -1.5
v -2.5 7 3.5
v 3.5 7 3.5
v -3.5 7 2.5
v -2.5 7 2.5
v -1.5 7 2.5
v 2.5 7 2.5
v 3.5 7 2.5
v 4.5 7 2.5
v -2.5 7 1.5
v 3.5 7 1.5
v -2.5 7 -2.5
v 3.5 7 -2.5
v -3.5 7 -3.5
v -2.5 7 -3.5
v -1.5 7 -3.5
v 2.5 7 -3.5
v 3.5 7 -3.5
v 4.5 7 -3.5
v -2.5 7 -4.5
v 3.5 7 -4.5
v -2.5 9 2.5
v -1.5 9 2.5
v 2.5 9 2.5
v 3.5 9 2.5
v -2.5 9 1.5
v -1.5 9 1.5
v 2.5 9 1.5
v 3.5 9 1.5
v -2.5 9 -2.5
v -1.5 9 -2.5
v 2.5 9 -2.5
v 3.5 9 -2.5
v -2.5 9 -3.5
v -1.5 9 -3.5
v 2.5 9 -3.5
v 3.5 9 -3.5
v -1.5 11 2.5
v -0.5 11 2.5
v 1.5 11 2.5
v 2.5 11 2.5
v -2.5 11 1.5
v -1.5 11 1.5
v -0.5 11 1.5
v 1.5 11 1.5
v 2.5 11 1.5
v 3.5 11 1.5
v -2.5 11 0.5
v -1.5 11 0.5
v 2.5 11 0.5
v 3.5 11 0.5
v -2.5 11 -1.5
v -1.5 11 -1.5
v 2.5 11 -1.5
v 3.5 11 -1.5
v -2.5 11 -2.5
v -1.5 11 -2.5
v -0.5 11 -2.5
v 1.5 11 -2.5
v 2.5 11 -2.5
v 3.5 11 -2.5
v -1.5 11 -3.5
v -0.5 11 -3.5
v 1.5 11 -3.5
v 2.5 11 -3.5
v -0.5 12 2.5
v 1.5 12 2.5
v -0.5 12 1.5
v 1.5 12 1.5
v -2.5 12 0.5
v -1.5 12 0.5
v 2.5 12 0.5
v 3.5 12 0.5
v -2.5 12 -0.5
v -1.5 12 -0.5
v -2.5 12 -1.5
v -1.5 12 -1.5
v 2.5 12 -1.5
v 3.5 12 -1.5
v -0.5 12 -2.5
v 1.5 12 -2.5
v -0.5 12 -3.5
v 1.5 12 -3.5
v -1.5 13 1.5
v -0.5 13 1.5
v 1.5 13 1.5
v 2.5 13 1.5
v -1.5 13 0.5
v -0.5 13 0.5
v 1.5 13 0.5
v 2.5 13 0.5
v -1.5 13 -1.5
v -0.5 13 -1.5
v 1.5 13 -1.5
v 2.5 13 -1.5
v -1.5 13 -2.5
v -0.5 13 -2.5
v 1.5 13 -2.5
v 2.5 13 -2.5
v -0.5 15 1.5
v 0.5 15 1.5
v 1.5 15 1.5
v -1.5 15 0.5
v -0.5 15 0.5
v 0.5 15 0.5
v 1.5 15 0.5
v 2.5 15 0.5
v 1.5 15 -0.5
v 2.5 15 -0.5
v -1.5 15 -1.5
v -0.5 15 -1.5
v 1.5 15 -1.5
v 2.5 15 -1.5
v -0.5 15 -2.5
v 1.5 15 -2.5
v -0.5 18 0.5
v 1.5 18 0.5
v -0.5 18 -1.5
v 1.5 18 -1.5

# faces
f 3/3/1 2/3/1 1/3/1
f 4/3/1 2/3/1 3/3/1
f 9/3/1 6/3/1 5/3/1
f 10/3/1 6/3/1 9/3/1
f 13/3/1 8/3/1 7/3/1
f 14/3/1 8/3/1 13/3/1
f 15/1/1 12/1/1 11/1/1
f 15/3/1 11/3/1 10/3/1
f 16/1/1 12/1/1 15/1/1
f 17/1/1 12/1/1 16/1/1
f 18/3/1 13/3/1 12/3/1
f 18/1/1 12/1/1 17/1/1
f 19/3/1 15/3/1 10/3/1
f 19/3/1 16/3/1 15/3/1
f 20/3/1 16/3/1 19/3/1
f 21/2/1 17/2/1 16/2/1
f 21/3/1 18/3/1 17/3/1
f 22/3/1 13/3/1 18/3/1
f 22/3/1 18/3/1 21/3/1
f 23/3/1 13/3/1 22/3/1
f 24/3/1 16/3/1 20/3/1
f 25/2/1 21/2/1 16/2/1
f 25/3/1 16/3/1 24/3/1
f 25/2/1 22/2/1 21/2/1
f 26/2/1 22/2/1 25/2/1
f 27/2/1 22/2/1 26/2/1
f 28/2/1 25/2/1 24/2/1
f 28/2/1 26/2/1 25/2/1
f 29/2/1 26/2/1 28/2/1
f 30/2/1 22/2/1 27/2/1
f 30/3/1 27/3/1 26/3/1
f 31/2/1 22/2/1 30/2/1
f 32/2/1 26/2/1 29/2/1
f 33/3/1 30/3/1 26/3/1
f 33/2/1 26/2/1 32/2/1
f 34/3/1 30/3/1 33/3/1
f 39/2/1 36/2/1 35/2/1
f 40/2/1 36/2/1 39/2/1
f 41/3/1 40/3/1 39/3/1
f 42/3/1 40/3/1 41/3/1
f 45/2/1 38/2/1 37/2/1
f 46/2/1 38/2/1 45/2/1
f 47/2/1 43/2/1 42/2/1
f 49/2/1 45/2/1 44/2/1
f 50/2/1 48/2/1 47/2/1
f 50/2/1 49/2/1 48/2/1
f 50/2/1 47/2/1 42/2/1
f 51/2/1 49/2/1 50/2/1
f 52/2/1 49/2/1 51/2/1
f 53/2/1 45/2/1 49/2/1
f 53/2/1 49/2/1 52/2/1
f 54/2/1 45/2/1 53/2/1
f 55/3/1 52/3/1 51/3/1
f 55/2/1 53/2/1 52/2/1
f 56/2/1 53/2/1 55/2/1
f 57/3/1 55/3/1 51/3/1
f 57/3/1 56/3/1 55/3/1
f 58/3/1 56/3/1 57/3/1
f 63/3/1 60/3/1 59/3/1
f 64/3/1 60/3/1 63/3/1
f 65/3/1 62/3/1 61/3/1
f 66/3/1 62/3/1 65/3/1
f 71/2/1 68/2/1 67/2/1
f 72/2/1 68/2/1 71/2/1
f 73/2/1 70/2/1 69/2/1
f 74/2/1 70/2/1 73/2/1
f 75/3/1 72/3/1 71/3/1
f 76/3/1 72/3/1 75/3/1
f 77/3/1 74/3/1 73/3/1
f 78/3/1 74/3/1 77/3/1
f 79/2/1 77/2/1 76/2/1
f 80/2/1 77/2/1 79/2/1
f 81/3/1 80/3/1 79/3/1
f 82/3/1 80/3/1 81/3/1
f 85/2/1 84/2/1 83/2/1
f 86/2/1 84/2/1 85/2/1
f 87/2/1 86/2/1 85/2/1
f 88/2/1 86/2/1 87/2/1
f 91/1/1 90/1/1 89/1/1
f 92/1/1 90/1/1 91/1/1
f 95/3/1 94/3/1 93/3/1
f 96/3/1 94/3/1 95/3/1
f 97/3/1 94/3/1 96/3/1
f 98/3/1 94/3/1 97/3/1
f 99/3/2 100/3/2 101/3/2
f 101/3/2 100/3/2 102/3/2
f 102/3/2 100/3/2 103/3/2
f 103/3/2 100/3/2 104/3/2
f 105/1/2 106/1/2 107/1/2
f 107/1/2 106/1/2 108/1/2
f 109/2/2 110/2/2 111/2/2
f 111/2/2 110/2/2 112/2/2
f 111/2/2 112/2/2 113/2/2
f 113/2/2 112/2/2 114/2/2
f 115/3/2 116/3/2 119/3/2
f 119/3/2 116/3/2 120/3/2
f 117/3/2 118/3/2 121/3/2
f 121/3/2 118/3/2 122/3/2
f 125/3/2 126/3/2 127/3/2
f 123/2/2 124/2/2 128/2/2
f 128/2/2 124/2/2 129/2/2
f 127/3/2 126/3/2 131/3/2
f 131/3/2 126/3/2 132/3/2
f 129/2/2 130/2/2 133/2/2
f 130/2/2 131/2/2 133/2/2
f 133/2/2 131/2/2 134/2/2
f 133/3/2 134/3/2 135/3/2
f 134/2/2 131/2/2 135/2/2
f 135/2/2 131/2/2 136/2/2
f 133/3/2 135/3/2 137/3/2
f 135/3/2 136/3/2 137/3/2
f 137/3/2 136/3/2 138/3/2
f 141/2/2 142/2/2 143/2/2
f 143/2/2 142/2/2 144/2/2
f 139/2/2 140/2/2 145/2/2
f 145/2/2 140/2/2 146/2/2
f 143/3/2 144/3/2 149/3/2
f 149/3/2 144/3/2 150/3/2
f 146/2/2 147/2/2 151/2/2
f 148/2/2 149/2/2 152/2/2
f 146/2/2 151/2/2 153/2/2
f 151/2/2 152/2/2 153/2/2
f 153/2/2 152/2/2 154/2/2
f 152/2/2 149/2/2 155/2/2
f 154/2/2 152/2/2 155/2/2
f 155/2/2 149/2/2 156/2/2
f 154/2/2 155/2/2 157/2/2
f 157/2/2 155/2/2 158/2/2
f 154/2/2 157/2/2 159/2/2
f 157/3/2 158/3/2 160/3/2
f 159/2/2 157/2/2 160/2/2
f 160/3/2 158/3/2 161/3/2
f 162/3/2 163/3/2 166/3/2
f 166/3/2 163/3/2 167/3/2
f 164/3/2 165/3/2 170/3/2
f 170/3/2 165/3/2 171/3/2
f 167/3/2 168/3/2 172/3/2
f 168/1/2 169/1/2 173/1/2
f 172/3/2 168/3/2 173/3/2
f 169/3/2 170/3/2 174/3/2
f 173/1/2 169/1/2 174/1/2
f 172/2/2 173/2/2 175/2/2
f 173/2/2 174/2/2 175/2/2
f 175/2/2 174/2/2 176/2/2
f 176/2/2 174/2/2 177/2/2
f 174/3/2 170/3/2 178/3/2
f 177/2/2 174/2/2 178/2/2
f 178/3/2 170/3/2 179/3/2
f 176/2/2 177/2/2 180/2/2
f 180/2/2 177/2/2 181/2/2
f 177/3/2 178/3/2 182/3/2
f 181/2/2 177/2/2 182/2/2
f 182/3/2 178/3/2 183/3/2
f 181/3/2 182/3/2 184/3/2
f 184/3/2 182/3/2 185/3/2
f 186/3/2 187/3/2 188/3/2
f 188/3/2 187/3/2 189/3/2
f 192/3/3 191/3/3 190/3/3
f 193/3/3 191/3/3 192/3/3
f 196/3/3 195/3/3 194/3/3
f 197/3/3 195/3/3 196/3/3
f 199/3/3 198/3/3 197/3/3
f 200/3/3 198/3/3 199/3/3
f 203/2/3 201/2/3 200/2/3
f 203/3/3 202/3/3 201/3/3
f 204/3/3 202/3/3 203/3/3
f 206/2/3 204/2/3 203/2/3
f 206/3/3 205/3/3 204/3/3
f 207/3/3 205/3/3 206/3/3
f 208/1/3 200/1/3 199/1/3
f 209/1/3 200/1/3 208/1/3
f 210/2/3 203/2/3 200/2/3
f 210/1/3 200/1/3 209/1/3
f 210/2/3 206/2/3 203/2/3
f 211/2/3 206/2/3 210/2/3
f 213/3/3 209/3/3 208/3/3
f 214/2/3 210/2/3 209/2/3
f 214/3/3 209/3/3 213/3/3
f 215/2/3 210/2/3 214/2/3
f 216/3/3 213/3/3 212/3/3
f 217/3/3 213/3/3 216/3/3
f 221/3/3 219/3/3 218/3/3
f 222/2/3 220/2/3 219/2/3
f 222/3/3 219/3/3 221/3/3
f 223/2/3 220/2/3 222/2/3
f 225/2/3 224/2/3 223/2/3
f 226/2/3 224/2/3 225/2/3
f 227/2/3 224/2/3 226/2/3
f 230/3/3 229/3/3 228/3/3
f 230/2/3 228/2/3 227/2/3
f 230/2/3 227/2/3 226/2/3
f 231/3/3 229/3/3 230/3/3
f 233/2/3 230/2/3 226/2/3
f 233/2/3 231/2/3 230/2/3
f 234/2/3 231/2/3 233/2/3
f 235/2/3 231/2/3 234/2/3
f 237/2/3 233/2/3 232/2/3
f 237/2/3 234/2/3 233/2/3
f 238/2/3 234/2/3 237/2/3
f 239/2/3 237/2/3 236/2/3
f 240/2/3 237/2/3 239/2/3
f 243/2/3 242/2/3 241/2/3
f 244/2/3 242/2/3 243/2/3
f 247/3/3 246/3/3 245/3/3
f 248/3/3 246/3/3 247/3/3
f 249/3/3 246/3/3 248/3/3
f 252/2/3 250/2/3 249/2/3
f 253/2/3 250/2/3 252/2/3
f 254/3/3 251/3/3 250/3/3
f 254/2/3 250/2/3 253/2/3
f 256/2/3 253/2/3 252/2/3
f 257/3/3 254/3/3 253/3/3
f 257/2/3 253/2/3 256/2/3
f 258/3/3 251/3/3 254/3/3
f 258/3/3 254/3/3 257/3/3
f 261/2/3 256/2/3 255/2/3
f 262/2/3 256/2/3 261/2/3
f 263/3/3 260/3/3 259/3/3
f 264/3/3 260/3/3 263/3/3
f 268/1/3 266/1/3 265/1/3
f 269/2/3 267/2/3 266/2/3
f 269/1/3 266/1/3 268/1/3
f 270/2/3 267/2/3 269/2/3
f 273/1/3 272/1/3 271/1/3
f 274/1/3 273/1/3 271/1/3
f 275/1/3 274/1/3 271/1/3
f 276/1/3 274/1/3 275/1/3
f 279/3/3 278/3/3 277/3/3
f 280/3/3 279/3/3 277/3/3
f 281/3/3 280/3/3 277/3/3
f 282/3/3 280/3/3 281/3/3
f 283/3/4 284/3/4 285/3/4
f 283/3/4 285/3/4 286/3/4
f 283/3/4 286/3/4 287/3/4
f 287/3/4 286/3/4 288/3/4
f 289/1/4 290/1/4 291/1/4
f 289/1/4 291/1/4 292/1/4
f 289/1/4 292/1/4 293/1/4
f 293/1/4 292/1/4 294/1/4
f 295/1/4 296/1/4 298/1/4
f 296/2/4 297/2/4 299/2/4
f 298/1/4 296/1/4 299/1/4
f 299/2/4 297/2/4 300/2/4
f 301/3/4 302/3/4 303/3/4
f 303/3/4 302/3/4 304/3/4
f 305/2/4 306/2/4 308/2/4
f 306/3/4 307/3/4 309/3/4
f 308/2/4 306/2/4 309/2/4
f 309/3/4 307/3/4 310/3/4
f 310/2/4 311/2/4 315/2/4
f 311/3/4 312/3/4 316/3/4
f 315/2/4 311/2/4 316/2/4
f 316/3/4 312/3/4 317/3/4
f 313/2/4 314/2/4 320/2/4
f 314/3/4 315/3/4 321/3/4
f 320/2/4 314/2/4 321/2/4
f 321/3/4 315/3/4 322/3/4
f 318/3/4 319/3/4 323/3/4
f 323/3/4 319/3/4 324/3/4
f 325/2/4 326/2/4 327/2/4
f 327/2/4 326/2/4 328/2/4
f 328/2/4 329/2/4 330/2/4
f 330/2/4 329/2/4 331/2/4
f 331/2/4 329/2/4 332/2/4
f 331/2/4 332/2/4 335/2/4
f 332/2/4 333/2/4 335/2/4
f 333/3/4 334/3/4 336/3/4
f 335/2/4 333/2/4 336/2/4
f 331/2/4 335/2/4 338/2/4
f 335/3/4 336/3/4 339/3/4
f 338/2/4 335/2/4 339/2/4
f 336/3/4 334/3/4 340/3/4
f 339/3/4 336/3/4 340/3/4
f 338/2/4 339/2/4 343/2/4
f 337/2/4 338/2/4 343/2/4
f 343/2/4 339/2/4 344/2/4
f 341/3/4 342/3/4 345/3/4
f 342/3/4 343/3/4 345/3/4
f 345/3/4 343/3/4 346/3/4
f 347/3/4 348/3/4 349/3/4
f 349/3/4 348/3/4 350/3/4
f 350/3/4 351/3/4 352/3/4
f 352/3/4 351/3/4 353/3/4
f 353/2/4 354/2/4 355/2/4
f 353/2/4 355/2/4 357/2/4
f 355/3/4 356/3/4 358/3/4
f 357/2/4 355/2/4 358/2/4
f 358/3/4 356/3/4 359/3/4
f 352/1/4 353/1/4 360/1/4
f 353/2/4 357/2/4 361/2/4
f 360/1/4 353/1/4 361/1/4
f 357/3/4 358/3/4 362/3/4
f 361/2/4 357/2/4 362/2/4
f 362/3/4 358/3/4 363/3/4
f 360/3/4 361/3/4 365/3/4
f 365/3/4 361/3/4 366/3/4
f 364/3/4 365/3/4 367/3/4
f 367/3/4 365/3/4 368/3/4
f 369/3/4 370/3/4 371/3/4
f 371/3/4 370/3/4 372/3/4
f 376/3/5 374/3/5 373/3/5
f 377/3/5 374/3/5 376/3/5
f 379/3/5 376/3/5 375/3/5
f 380/3/5 376/3/5 379/3/5
f 381/3/5 378/3/5 377/3/5
f 382/3/5 378/3/5 381/3/5
f 383/3/5 381/3/5 380/3/5
f 384/3/5 381/3/5 383/3/5
f 389/3/5 386/3/5 385/3/5
f 390/1/5 387/1/5 386/1/5
f 390/3/5 386/3/5 389/3/5
f 391/3/5 388/3/5 387/3/5
f 391/1/5 387/1/5 390/1/5
f 392/3/5 388/3/5 391/3/5
f 393/1/5 390/1/5 389/1/5
f 394/1/5 390/1/5 393/1/5
f 395/1/5 392/1/5 391/1/5
f 396/1/5 392/1/5 395/1/5
f 397/3/5 394/3/5 393/3/5
f 398/1/5 395/1/5 394/1/5
f 398/3/5 394/3/5 397/3/5
f 399/3/5 396/3/5 395/3/5
f 399/1/5 395/1/5 398/1/5
f 400/3/5 396/3/5 399/3/5
f 405/2/5 402/2/5 401/2/5
f 405/1/5 403/1/5 402/1/5
f 406/2/5 404/2/5 403/2/5
f 406/1/5 403/1/5 405/1/5
f 407/2/5 405/2/5 401/2/5
f 408/2/5 404/2/5 406/2/5
f 409/2/5 407/2/5 401/2/5
f 410/1/5 408/1/5 407/1/5
f 410/2/5 407/2/5 409/2/5
f 411/2/5 404/2/5 408/2/5
f 411/1/5 408/1/5 410/1/5
f 412/2/5 404/2/5 411/2/5
f 415/2/5 414/2/5 413/2/5
f 416/2/5 414/2/5 415/2/5
f 417/3/6 418/3/6 420/3/6
f 420/3/6 418/3/6 421/3/6
f 421/3/6 418/3/6 422/3/6
f 422/3/6 418/3/6 423/3/6
f 419/3/6 420/3/6 425/3/6
f 423/3/6 424/3/6 426/3/6
f 419/3/6 425/3/6 427/3/6
f 426/3/6 424/3/6 428/3/6
f 419/3/6 427/3/6 429/3/6
f 429/3/6 427/3/6 430/3/6
f 428/3/6 424/3/6 433/3/6
f 433/3/6 424/3/6 434/3/6
f 431/3/6 432/3/6 435/3/6
f 432/3/6 433/3/6 435/3/6
f 430/3/6 431/3/6 435/3/6
f 435/3/6 433/3/6 436/3/6
f 437/3/6 438/3/6 441/3/6
f 441/3/6 438/3/6 442/3/6
f 439/2/6 440/2/6 443/2/6
f 443/2/6 440/2/6 444/2/6
f 445/3/6 446/3/6 449/3/6
f 449/3/6 446/3/6 450/3/6
f 447/3/6 448/3/6 451/3/6
f 451/3/6 448/3/6 452/3/6
f 453/3/6 454/3/6 458/3/6
f 458/3/6 454/3/6 459/3/6
f 455/2/6 456/2/6 460/2/6
f 460/2/6 456/2/6 461/2/6
f 457/2/6 458/2/6 463/2/6
f 463/2/6 458/2/6 464/2/6
f 461/2/6 462/2/6 465/2/6
f 465/2/6 462/2/6 466/2/6
f 467/2/6 468/2/6 471/2/6
f 471/2/6 468/2/6 472/2/6
f 469/3/6 470/3/6 475/3/6
f 475/3/6 470/3/6 476/3/6
f 472/2/6 473/2/6 477/2/6
f 477/2/6 473/2/6 478/2/6
f 474/3/6 475/3/6 479/3/6
f 479/3/6 475/3/6 480/3/6
f 481/3/6 482/3/6 483/3/6
f 483/3/6 482/3/6 484/3/6
f 485/2/6 486/2/6 489/2/6
f 489/2/6 486/2/6 490/2/6
f 489/3/6 490/3/6 491/3/6
f 491/3/6 490/3/6 492/3/6
f 487/3/6 488/3/6 493/3/6
f 493/3/6 488/3/6 494/3/6
f 495/3/6 496/3/6 497/3/6
f 497/3/6 496/3/6 498/3/6
f 499/2/6 500/2/6 503/2/6
f 503/2/6 500/2/6 504/2/6
f 501/2/6 502/2/6 505/2/6
f 505/2/6 502/2/6 506/2/6
f 507/2/6 508/2/6 511/2/6
f 511/2/6 508/2/6 512/2/6
f 509/2/6 510/2/6 513/2/6
f 513/2/6 510/2/6 514/2/6
f 515/3/6 516/3/6 519/3/6
f 516/2/6 517/2/6 520/2/6
f 519/3/6 516/3/6 520/3/6
f 520/2/6 517/2/6 521/2/6
f 521/2/6 522/2/6 523/2/6
f 523/2/6 522/2/6 524/2/6
f 518/3/6 519/3/6 525/3/6
f 525/3/6 519/3/6 526/3/6
f 523/3/6 524/3/6 527/3/6
f 527/3/6 524/3/6 528/3/6
f 526/3/6 527/3/6 529/3/6
f 529/3/6 527/3/6 530/3/6
f 531/3/6 532/3/6 533/3/6
f 533/3/6 532/3/6 534/3/6
