# MagicaVoxel @ Ephtracy

# material
mtllib gun.mtl
usemtl palette

# normals
vn -1 0 0
vn 1 0 0
vn 0 0 1
vn 0 0 -1
vn 0 -1 0
vn 0 1 0

# texcoords
vt 0.306641 0.5
vt 0.474609 0.5
vt 0.974609 0.5
vt 0.982422 0.5
vt 0.986328 0.5
vt 0.994141 0.5

# verts
v 6 30 9
v 6 30 8
v 6 30 6
v 6 31 7
v 6 31 6
v 6 31 3
v 6 33 6
v 6 33 5
v 6 34 6
v 6 34 5
v 6 36 9
v 6 36 8
v 6 36 7
v 6 36 3
v 7 31 11
v 7 31 10
v 7 31 3
v 7 31 1
v 7 31 -0
v 7 31 -4
v 7 33 1
v 7 33 -0
v 7 34 1
v 7 34 -0
v 7 35 11
v 7 35 10
v 7 35 3
v 7 35 1
v 7 35 -0
v 7 35 -4
v 8 30 6
v 8 30 4
v 8 31 6
v 8 31 4
v 8 32 12
v 8 32 11
v 8 34 12
v 8 34 11
v 11 30 4
v 11 30 3
v 11 31 4
v 11 31 3
v 10 32 12
v 10 32 11
v 10 34 12
v 10 34 11
v 11 31 11
v 11 31 10
v 11 31 3
v 11 31 1
v 11 31 -0
v 11 31 -4
v 11 35 11
v 11 35 10
v 11 35 3
v 11 35 1
v 11 35 -0
v 11 35 -4
v 12 30 9
v 12 30 8
v 12 30 4
v 12 30 3
v 12 31 7
v 12 31 4
v 12 32 6
v 12 32 4
v 12 34 6
v 12 34 4
v 12 36 9
v 12 36 8
v 12 36 7
v 12 36 3
v 8 32 12
v 8 34 12
v 10 32 12
v 10 34 12
v 7 31 11
v 7 35 11
v 8 32 11
v 8 34 11
v 10 32 11
v 10 34 11
v 11 31 11
v 11 35 11
v 6 30 9
v 6 36 9
v 12 30 9
v 12 36 9
v 7 31 10
v 7 35 10
v 11 31 10
v 11 35 10
v 6 30 6
v 6 31 6
v 7 30 6
v 7 31 6
v 8 30 6
v 8 31 6
v 8 30 4
v 8 31 4
v 11 30 4
v 11 31 4
v 6 31 3
v 6 36 3
v 7 31 3
v 7 35 3
v 11 30 3
v 11 31 3
v 11 35 3
v 12 30 3
v 12 36 3
v 7 31 -4
v 7 35 -4
v 11 31 -4
v 11 35 -4
v 6 30 9
v 12 30 9
v 6 30 8
v 7 30 8
v 11 30 8
v 12 30 8
v 6 30 6
v 7 30 6
v 8 30 6
v 8 30 4
v 11 30 4
v 12 30 4
v 11 30 3
v 12 30 3
v 7 31 11
v 11 31 11
v 7 31 10
v 11 31 10
v 6 31 6
v 7 31 6
v 8 31 6
v 7 31 4
v 8 31 4
v 11 31 4
v 6 31 3
v 7 31 3
v 11 31 3
v 7 31 1
v 11 31 1
v 7 31 -0
v 11 31 -0
v 7 31 -4
v 11 31 -4
v 8 32 12
v 10 32 12
v 8 32 11
v 10 32 11
v 8 34 12
v 10 34 12
v 8 34 11
v 10 34 11
v 7 35 11
v 11 35 11
v 7 35 10
v 11 35 10
v 7 35 3
v 11 35 3
v 7 35 1
v 11 35 1
v 7 35 -0
v 11 35 -0
v 7 35 -4
v 11 35 -4
v 6 36 9
v 12 36 9
v 6 36 8
v 12 36 8
v 6 36 7
v 7 36 7
v 11 36 7
v 12 36 7
v 7 36 4
v 11 36 4
v 6 36 3
v 12 36 3

# faces
f 4/6/1 3/6/1 2/6/1
f 5/6/1 3/6/1 4/6/1
f 7/4/1 5/4/1 4/4/1
f 7/4/1 6/4/1 5/4/1
f 8/4/1 6/4/1 7/4/1
f 9/4/1 7/4/1 4/4/1
f 9/6/1 8/6/1 7/6/1
f 10/4/1 6/4/1 8/4/1
f 10/6/1 8/6/1 9/6/1
f 11/5/1 2/5/1 1/5/1
f 12/6/1 4/6/1 2/6/1
f 12/5/1 2/5/1 11/5/1
f 13/4/1 9/4/1 4/4/1
f 13/6/1 4/6/1 12/6/1
f 13/4/1 10/4/1 9/4/1
f 14/4/1 6/4/1 10/4/1
f 14/4/1 10/4/1 13/4/1
f 21/1/1 18/1/1 17/1/1
f 21/2/1 19/2/1 18/2/1
f 22/1/1 20/1/1 19/1/1
f 22/2/1 19/2/1 21/2/1
f 23/1/1 21/1/1 17/1/1
f 23/1/1 22/1/1 21/1/1
f 24/1/1 20/1/1 22/1/1
f 24/1/1 22/1/1 23/1/1
f 25/4/1 16/4/1 15/4/1
f 26/4/1 16/4/1 25/4/1
f 27/1/1 23/1/1 17/1/1
f 28/2/1 24/2/1 23/2/1
f 28/1/1 23/1/1 27/1/1
f 29/1/1 20/1/1 24/1/1
f 29/2/1 24/2/1 28/2/1
f 30/1/1 20/1/1 29/1/1
f 33/4/1 32/4/1 31/4/1
f 34/4/1 32/4/1 33/4/1
f 37/3/1 36/3/1 35/3/1
f 38/3/1 36/3/1 37/3/1
f 41/4/1 40/4/1 39/4/1
f 42/4/1 40/4/1 41/4/1
f 43/3/2 44/3/2 45/3/2
f 45/3/2 44/3/2 46/3/2
f 47/4/2 48/4/2 53/4/2
f 53/4/2 48/4/2 54/4/2
f 49/1/2 50/1/2 55/1/2
f 50/2/2 51/2/2 56/2/2
f 55/1/2 50/1/2 56/1/2
f 51/1/2 52/1/2 57/1/2
f 56/2/2 51/2/2 57/2/2
f 57/1/2 52/1/2 58/1/2
f 60/6/2 61/6/2 63/6/2
f 61/4/2 62/4/2 64/4/2
f 63/6/2 61/6/2 64/6/2
f 63/4/2 64/4/2 65/4/2
f 64/4/2 62/4/2 66/4/2
f 65/4/2 64/4/2 66/4/2
f 63/4/2 65/4/2 67/4/2
f 65/6/2 66/6/2 67/6/2
f 66/4/2 62/4/2 68/4/2
f 67/6/2 66/6/2 68/6/2
f 59/5/2 60/5/2 69/5/2
f 60/6/2 63/6/2 70/6/2
f 69/5/2 60/5/2 70/5/2
f 63/4/2 67/4/2 71/4/2
f 70/6/2 63/6/2 71/6/2
f 67/4/2 68/4/2 71/4/2
f 68/4/2 62/4/2 72/4/2
f 71/4/2 68/4/2 72/4/2
f 75/3/3 74/3/3 73/3/3
f 76/3/3 74/3/3 75/3/3
f 79/4/3 78/4/3 77/4/3
f 80/4/3 78/4/3 79/4/3
f 81/4/3 79/4/3 77/4/3
f 82/4/3 78/4/3 80/4/3
f 83/4/3 81/4/3 77/4/3
f 83/4/3 82/4/3 81/4/3
f 84/4/3 78/4/3 82/4/3
f 84/4/3 82/4/3 83/4/3
f 87/5/3 86/5/3 85/5/3
f 88/5/3 86/5/3 87/5/3
f 89/4/4 90/4/4 91/4/4
f 91/4/4 90/4/4 92/4/4
f 93/6/4 94/6/4 95/6/4
f 95/6/4 94/6/4 96/6/4
f 95/4/4 96/4/4 97/4/4
f 97/4/4 96/4/4 98/4/4
f 99/4/4 100/4/4 101/4/4
f 101/4/4 100/4/4 102/4/4
f 103/4/4 104/4/4 105/4/4
f 105/4/4 104/4/4 106/4/4
f 106/4/4 104/4/4 109/4/4
f 107/4/4 108/4/4 110/4/4
f 108/4/4 109/4/4 110/4/4
f 109/4/4 104/4/4 111/4/4
f 110/4/4 109/4/4 111/4/4
f 112/1/4 113/1/4 114/1/4
f 114/1/4 113/1/4 115/1/4
f 118/5/5 117/5/5 116/5/5
f 119/5/5 117/5/5 118/5/5
f 120/5/5 117/5/5 119/5/5
f 121/5/5 117/5/5 120/5/5
f 122/6/5 119/6/5 118/6/5
f 123/4/5 120/4/5 119/4/5
f 123/6/5 119/6/5 122/6/5
f 124/4/5 120/4/5 123/4/5
f 125/4/5 120/4/5 124/4/5
f 126/6/5 121/6/5 120/6/5
f 126/4/5 120/4/5 125/4/5
f 127/6/5 121/6/5 126/6/5
f 128/4/5 127/4/5 126/4/5
f 129/4/5 127/4/5 128/4/5
f 132/4/5 131/4/5 130/4/5
f 133/4/5 131/4/5 132/4/5
f 137/4/5 135/4/5 134/4/5
f 137/4/5 136/4/5 135/4/5
f 138/4/5 136/4/5 137/4/5
f 140/4/5 137/4/5 134/4/5
f 141/1/5 139/1/5 138/1/5
f 141/4/5 137/4/5 140/4/5
f 141/1/5 138/1/5 137/1/5
f 142/1/5 139/1/5 141/1/5
f 143/1/5 142/1/5 141/1/5
f 144/1/5 142/1/5 143/1/5
f 145/2/5 144/2/5 143/2/5
f 146/2/5 144/2/5 145/2/5
f 147/1/5 146/1/5 145/1/5
f 148/1/5 146/1/5 147/1/5
f 151/3/5 150/3/5 149/3/5
f 152/3/5 150/3/5 151/3/5
f 153/3/6 154/3/6 155/3/6
f 155/3/6 154/3/6 156/3/6
f 157/4/6 158/4/6 159/4/6
f 159/4/6 158/4/6 160/4/6
f 161/1/6 162/1/6 163/1/6
f 163/1/6 162/1/6 164/1/6
f 163/2/6 164/2/6 165/2/6
f 165/2/6 164/2/6 166/2/6
f 165/1/6 166/1/6 167/1/6
f 167/1/6 166/1/6 168/1/6
f 169/5/6 170/5/6 171/5/6
f 171/5/6 170/5/6 172/5/6
f 171/6/6 172/6/6 173/6/6
f 173/6/6 172/6/6 174/6/6
f 174/6/6 172/6/6 175/6/6
f 175/6/6 172/6/6 176/6/6
f 173/4/6 174/4/6 177/4/6
f 174/6/6 175/6/6 177/6/6
f 175/4/6 176/4/6 178/4/6
f 177/6/6 175/6/6 178/6/6
f 173/4/6 177/4/6 179/4/6
f 177/4/6 178/4/6 179/4/6
f 178/4/6 176/4/6 180/4/6
f 179/4/6 178/4/6 180/4/6
