# MagicaVoxel @ Ephtracy

# material
mtllib rightleg.mtl
usemtl palette

# normals
vn -1 0 0
vn 1 0 0
vn 0 0 1
vn 0 0 -1
vn 0 -1 0
vn 0 1 0

# texcoords
vt 0.0214844 0.5
vt 0.306641 0.5
vt 0.978516 0.5
vt 0.986328 0.5
vt 0.990234 0.5
vt 0.994141 0.5

# verts
v -5 0 10
v -5 0 8
v -5 0 7
v -5 0 4
v -5 0 2
v -5 0 -2
v -5 2 10
v -5 2 8
v -5 2 7
v -5 2 2
v -5 2 -2
v -5 4 7
v -5 4 4
v -5 6 5
v -5 6 4
v -5 6 3
v -5 6 -0
v -5 9 7
v -5 9 5
v -5 9 4
v -5 9 3
v -5 10 6
v -5 10 4
v -5 12 6
v -5 12 4
v -5 13 7
v -5 13 6
v -5 13 5
v -5 13 3
v -5 14 7
v -5 14 6
v -5 14 3
v -5 14 1
v -5 14 -0
v -5 15 7
v -5 15 5
v -5 18 7
v -5 18 1
v -4 2 4
v -4 2 2
v -4 2 -0
v -4 3 3
v -4 3 1
v -4 4 4
v -4 5 3
v -4 5 1
v -4 6 4
v -4 6 3
v -4 6 -0
v -3 6 4
v -3 6 3
v -3 6 2
v -3 9 4
v -3 9 3
v -3 9 2
v -4 6 4
v -4 6 3
v -4 6 2
v -4 9 4
v -4 9 3
v -4 9 2
v -3 2 4
v -3 2 3
v -3 3 4
v -3 3 3
v -2 2 3
v -2 2 2
v -2 2 -0
v -2 3 4
v -2 3 3
v -2 3 1
v -2 4 4
v -2 5 3
v -2 5 1
v -2 6 4
v -2 6 3
v -2 6 -0
v -2 17 6
v -2 17 2
v -2 18 6
v -2 18 2
v -1 0 10
v -1 0 8
v -1 0 7
v -1 0 4
v -1 0 2
v -1 0 -2
v -1 2 10
v -1 2 8
v -1 2 7
v -1 2 2
v -1 2 -2
v -1 4 7
v -1 4 4
v -1 6 5
v -1 6 4
v -1 6 3
v -1 6 -0
v -1 9 7
v -1 9 5
v -1 9 4
v -1 9 3
v -1 10 6
v -1 10 4
v -1 12 6
v -1 12 4
v -1 13 7
v -1 13 6
v -1 13 5
v -1 13 3
v -1 14 7
v -1 14 6
v -1 14 3
v -1 14 1
v -1 14 -0
v -1 15 7
v -1 15 5
v -1 17 6
v -1 17 2
v -1 18 7
v -1 18 6
v -1 18 2
v -1 18 1
v -5 0 10
v -5 2 10
v -1 0 10
v -1 2 10
v -5 2 7
v -5 4 7
v -5 9 7
v -5 13 7
v -5 14 7
v -5 15 7
v -5 18 7
v -1 2 7
v -1 4 7
v -1 9 7
v -1 13 7
v -1 14 7
v -1 15 7
v -1 18 7
v -5 6 5
v -5 9 5
v -1 6 5
v -1 9 5
v -4 4 4
v -4 6 4
v -2 4 4
v -2 6 4
v -3 2 3
v -3 3 3
v -2 2 3
v -2 3 3
v -5 0 2
v -5 2 2
v -4 2 2
v -4 6 2
v -4 9 2
v -3 6 2
v -3 9 2
v -2 2 2
v -2 17 2
v -2 18 2
v -1 0 2
v -1 2 2
v -1 17 2
v -1 18 2
v -2 17 6
v -2 18 6
v -1 17 6
v -1 18 6
v -5 0 4
v -5 4 4
v -4 2 4
v -4 4 4
v -4 6 4
v -4 9 4
v -3 2 4
v -3 3 4
v -3 6 4
v -3 9 4
v -2 3 4
v -2 4 4
v -1 0 4
v -1 4 4
v -5 14 1
v -5 18 1
v -1 14 1
v -1 18 1
v -5 6 -0
v -5 14 -0
v -4 2 -0
v -4 6 -0
v -2 2 -0
v -2 6 -0
v -1 6 -0
v -1 14 -0
v -5 0 -2
v -5 2 -2
v -1 0 -2
v -1 2 -2
v -5 0 10
v -1 0 10
v -5 0 8
v -4 0 8
v -2 0 8
v -1 0 8
v -5 0 7
v -4 0 7
v -2 0 7
v -1 0 7
v -5 0 4
v -1 0 4
v -5 0 2
v -1 0 2
v -5 0 -2
v -1 0 -2
v -4 2 4
v -3 2 4
v -3 2 3
v -2 2 3
v -4 2 2
v -2 2 2
v -3 3 4
v -2 3 4
v -3 3 3
v -2 3 3
v -5 6 5
v -1 6 5
v -5 6 4
v -4 6 4
v -2 6 4
v -1 6 4
v -5 6 3
v -4 6 3
v -2 6 3
v -1 6 3
v -5 6 -0
v -4 6 -0
v -2 6 -0
v -1 6 -0
v -5 9 7
v -1 9 7
v -5 9 5
v -1 9 5
v -4 9 4
v -3 9 4
v -4 9 3
v -3 9 3
v -4 9 2
v -3 9 2
v -5 2 10
v -1 2 10
v -5 2 8
v -1 2 8
v -5 2 7
v -1 2 7
v -5 2 2
v -4 2 2
v -2 2 2
v -1 2 2
v -4 2 -0
v -2 2 -0
v -5 2 -2
v -1 2 -2
v -5 4 7
v -1 4 7
v -5 4 4
v -4 4 4
v -2 4 4
v -1 4 4
v -4 6 4
v -3 6 4
v -4 6 3
v -3 6 3
v -4 6 2
v -3 6 2
v -5 14 1
v -1 14 1
v -5 14 -0
v -1 14 -0
v -2 17 6
v -1 17 6
v -2 17 2
v -1 17 2
v -5 18 7
v -1 18 7
v -2 18 6
v -1 18 6
v -2 18 2
v -1 18 2
v -5 18 1
v -1 18 1

# faces
f 7/2/1 2/2/1 1/2/1
f 8/1/1 3/1/1 2/1/1
f 8/2/1 2/2/1 7/2/1
f 9/2/1 4/2/1 3/2/1
f 9/1/1 3/1/1 8/1/1
f 10/2/1 6/2/1 5/2/1
f 11/2/1 6/2/1 10/2/1
f 12/2/1 4/2/1 9/2/1
f 13/2/1 4/2/1 12/2/1
f 19/2/1 15/2/1 14/2/1
f 20/4/1 16/4/1 15/4/1
f 20/2/1 15/2/1 19/2/1
f 21/6/1 17/6/1 16/6/1
f 21/4/1 16/4/1 20/4/1
f 22/3/1 20/3/1 19/3/1
f 22/3/1 19/3/1 18/3/1
f 22/3/1 21/3/1 20/3/1
f 23/3/1 21/3/1 22/3/1
f 24/3/1 22/3/1 18/3/1
f 24/6/1 23/6/1 22/6/1
f 25/3/1 21/3/1 23/3/1
f 25/6/1 23/6/1 24/6/1
f 26/3/1 24/3/1 18/3/1
f 26/3/1 25/3/1 24/3/1
f 27/3/1 25/3/1 26/3/1
f 28/3/1 25/3/1 27/3/1
f 29/6/1 17/6/1 21/6/1
f 29/3/1 25/3/1 28/3/1
f 29/3/1 21/3/1 25/3/1
f 30/2/1 27/2/1 26/2/1
f 31/1/1 28/1/1 27/1/1
f 31/2/1 27/2/1 30/2/1
f 32/6/1 17/6/1 29/6/1
f 32/2/1 29/2/1 28/2/1
f 33/6/1 17/6/1 32/6/1
f 34/6/1 17/6/1 33/6/1
f 35/1/1 31/1/1 30/1/1
f 36/1/1 28/1/1 31/1/1
f 36/1/1 31/1/1 35/1/1
f 36/2/1 32/2/1 28/2/1
f 36/2/1 33/2/1 32/2/1
f 37/2/1 36/2/1 35/2/1
f 38/2/1 33/2/1 36/2/1
f 38/2/1 36/2/1 37/2/1
f 42/3/1 40/3/1 39/3/1
f 42/3/1 41/3/1 40/3/1
f 43/3/1 41/3/1 42/3/1
f 44/3/1 42/3/1 39/3/1
f 45/5/1 43/5/1 42/5/1
f 45/3/1 42/3/1 44/3/1
f 46/3/1 41/3/1 43/3/1
f 46/5/1 43/5/1 45/5/1
f 47/3/1 45/3/1 44/3/1
f 47/3/1 46/3/1 45/3/1
f 48/3/1 46/3/1 47/3/1
f 49/3/1 41/3/1 46/3/1
f 49/3/1 46/3/1 48/3/1
f 53/4/1 51/4/1 50/4/1
f 54/6/1 52/6/1 51/6/1
f 54/4/1 51/4/1 53/4/1
f 55/6/1 52/6/1 54/6/1
f 56/4/2 57/4/2 59/4/2
f 57/6/2 58/6/2 60/6/2
f 59/4/2 57/4/2 60/4/2
f 60/6/2 58/6/2 61/6/2
f 62/3/2 63/3/2 64/3/2
f 64/3/2 63/3/2 65/3/2
f 66/3/2 67/3/2 70/3/2
f 67/3/2 68/3/2 70/3/2
f 70/3/2 68/3/2 71/3/2
f 69/3/2 70/3/2 72/3/2
f 70/5/2 71/5/2 73/5/2
f 72/3/2 70/3/2 73/3/2
f 71/3/2 68/3/2 74/3/2
f 73/5/2 71/5/2 74/5/2
f 72/3/2 73/3/2 75/3/2
f 73/3/2 74/3/2 75/3/2
f 75/3/2 74/3/2 76/3/2
f 74/3/2 68/3/2 77/3/2
f 76/3/2 74/3/2 77/3/2
f 78/2/2 79/2/2 80/2/2
f 80/2/2 79/2/2 81/2/2
f 82/2/2 83/2/2 88/2/2
f 83/1/2 84/1/2 89/1/2
f 88/2/2 83/2/2 89/2/2
f 84/2/2 85/2/2 90/2/2
f 89/1/2 84/1/2 90/1/2
f 86/2/2 87/2/2 91/2/2
f 91/2/2 87/2/2 92/2/2
f 90/2/2 85/2/2 93/2/2
f 93/2/2 85/2/2 94/2/2
f 95/2/2 96/2/2 100/2/2
f 96/4/2 97/4/2 101/4/2
f 100/2/2 96/2/2 101/2/2
f 97/6/2 98/6/2 102/6/2
f 101/4/2 97/4/2 102/4/2
f 100/3/2 101/3/2 103/3/2
f 99/3/2 100/3/2 103/3/2
f 101/3/2 102/3/2 103/3/2
f 103/3/2 102/3/2 104/3/2
f 99/3/2 103/3/2 105/3/2
f 103/6/2 104/6/2 105/6/2
f 104/3/2 102/3/2 106/3/2
f 105/6/2 104/6/2 106/6/2
f 99/3/2 105/3/2 107/3/2
f 105/3/2 106/3/2 107/3/2
f 107/3/2 106/3/2 108/3/2
f 108/3/2 106/3/2 109/3/2
f 102/6/2 98/6/2 110/6/2
f 109/3/2 106/3/2 110/3/2
f 106/3/2 102/3/2 110/3/2
f 107/2/2 108/2/2 111/2/2
f 108/1/2 109/1/2 112/1/2
f 111/2/2 108/2/2 112/2/2
f 110/6/2 98/6/2 113/6/2
f 109/2/2 110/2/2 113/2/2
f 113/6/2 98/6/2 114/6/2
f 114/6/2 98/6/2 115/6/2
f 111/1/2 112/1/2 116/1/2
f 112/1/2 109/1/2 117/1/2
f 116/1/2 112/1/2 117/1/2
f 109/2/2 113/2/2 117/2/2
f 113/2/2 114/2/2 117/2/2
f 116/2/2 117/2/2 118/2/2
f 117/2/2 114/2/2 119/2/2
f 118/2/2 117/2/2 119/2/2
f 116/2/2 118/2/2 120/2/2
f 120/2/2 118/2/2 121/2/2
f 119/2/2 114/2/2 122/2/2
f 122/2/2 114/2/2 123/2/2
f 126/2/3 125/2/3 124/2/3
f 127/2/3 125/2/3 126/2/3
f 135/2/3 129/2/3 128/2/3
f 136/2/3 129/2/3 135/2/3
f 137/3/3 131/3/3 130/3/3
f 138/2/3 132/2/3 131/2/3
f 138/3/3 131/3/3 137/3/3
f 139/1/3 133/1/3 132/1/3
f 139/2/3 132/2/3 138/2/3
f 140/2/3 134/2/3 133/2/3
f 140/1/3 133/1/3 139/1/3
f 141/2/3 134/2/3 140/2/3
f 144/2/3 143/2/3 142/2/3
f 145/2/3 143/2/3 144/2/3
f 148/3/3 147/3/3 146/3/3
f 149/3/3 147/3/3 148/3/3
f 152/3/3 151/3/3 150/3/3
f 153/3/3 151/3/3 152/3/3
f 156/2/3 155/2/3 154/2/3
f 159/6/3 158/6/3 157/6/3
f 160/6/3 158/6/3 159/6/3
f 161/2/3 156/2/3 154/2/3
f 164/2/3 161/2/3 154/2/3
f 165/2/3 161/2/3 164/2/3
f 166/2/3 163/2/3 162/2/3
f 167/2/3 163/2/3 166/2/3
f 168/2/4 169/2/4 170/2/4
f 170/2/4 169/2/4 171/2/4
f 172/2/4 173/2/4 174/2/4
f 174/2/4 173/2/4 175/2/4
f 172/2/4 174/2/4 178/2/4
f 176/2/4 177/2/4 180/2/4
f 180/2/4 177/2/4 181/2/4
f 178/2/4 179/2/4 182/2/4
f 172/2/4 178/2/4 184/2/4
f 182/2/4 183/2/4 184/2/4
f 178/2/4 182/2/4 184/2/4
f 184/2/4 183/2/4 185/2/4
f 186/2/4 187/2/4 188/2/4
f 188/2/4 187/2/4 189/2/4
f 190/6/4 191/6/4 193/6/4
f 192/3/4 193/3/4 194/3/4
f 193/6/4 191/6/4 195/6/4
f 194/3/4 193/3/4 195/3/4
f 195/6/4 191/6/4 196/6/4
f 196/6/4 191/6/4 197/6/4
f 198/2/4 199/2/4 200/2/4
f 200/2/4 199/2/4 201/2/4
f 204/2/5 203/2/5 202/2/5
f 205/2/5 203/2/5 204/2/5
f 206/2/5 203/2/5 205/2/5
f 207/2/5 203/2/5 206/2/5
f 208/1/5 205/1/5 204/1/5
f 209/2/5 206/2/5 205/2/5
f 209/1/5 205/1/5 208/1/5
f 210/1/5 207/1/5 206/1/5
f 210/2/5 206/2/5 209/2/5
f 211/1/5 207/1/5 210/1/5
f 212/2/5 209/2/5 208/2/5
f 212/2/5 210/2/5 209/2/5
f 212/2/5 211/2/5 210/2/5
f 213/2/5 211/2/5 212/2/5
f 216/2/5 215/2/5 214/2/5
f 217/2/5 215/2/5 216/2/5
f 220/3/5 219/3/5 218/3/5
f 222/3/5 220/3/5 218/3/5
f 222/3/5 221/3/5 220/3/5
f 223/3/5 221/3/5 222/3/5
f 226/3/5 225/3/5 224/3/5
f 227/3/5 225/3/5 226/3/5
f 230/2/5 229/2/5 228/2/5
f 231/2/5 229/2/5 230/2/5
f 232/2/5 229/2/5 231/2/5
f 233/2/5 229/2/5 232/2/5
f 234/4/5 231/4/5 230/4/5
f 235/4/5 231/4/5 234/4/5
f 236/4/5 233/4/5 232/4/5
f 237/4/5 233/4/5 236/4/5
f 238/6/5 235/6/5 234/6/5
f 239/6/5 235/6/5 238/6/5
f 240/6/5 237/6/5 236/6/5
f 241/6/5 237/6/5 240/6/5
f 244/3/5 243/3/5 242/3/5
f 245/3/5 243/3/5 244/3/5
f 248/3/5 247/3/5 246/3/5
f 249/3/5 247/3/5 248/3/5
f 250/6/5 249/6/5 248/6/5
f 251/6/5 249/6/5 250/6/5
f 252/2/6 253/2/6 254/2/6
f 254/2/6 253/2/6 255/2/6
f 254/1/6 255/1/6 256/1/6
f 256/1/6 255/1/6 257/1/6
f 258/2/6 259/2/6 262/2/6
f 260/2/6 261/2/6 263/2/6
f 258/2/6 262/2/6 264/2/6
f 262/2/6 263/2/6 264/2/6
f 263/2/6 261/2/6 265/2/6
f 264/2/6 263/2/6 265/2/6
f 266/2/6 267/2/6 268/2/6
f 268/2/6 267/2/6 269/2/6
f 269/2/6 267/2/6 270/2/6
f 270/2/6 267/2/6 271/2/6
f 272/3/6 273/3/6 274/3/6
f 274/3/6 273/3/6 275/3/6
f 274/3/6 275/3/6 276/3/6
f 276/3/6 275/3/6 277/3/6
f 278/6/6 279/6/6 280/6/6
f 280/6/6 279/6/6 281/6/6
f 282/2/6 283/2/6 284/2/6
f 284/2/6 283/2/6 285/2/6
f 286/2/6 287/2/6 288/2/6
f 288/2/6 287/2/6 289/2/6
f 286/2/6 288/2/6 290/2/6
f 286/2/6 290/2/6 292/2/6
f 290/2/6 291/2/6 292/2/6
f 292/2/6 291/2/6 293/2/6
