# MagicaVoxel @ Ephtracy

# material
mtllib mouth.mtl
usemtl palette

# normals
vn -1 0 0
vn 1 0 0
vn 0 0 1
vn 0 0 -1
vn 0 -1 0
vn 0 1 0

# texcoords
vt 0.0253906 0.5
vt 0.146484 0.5
vt 0.166016 0.5
vt 0.763672 0.5
vt 0.873047 0.5
vt 0.900391 0.5

# verts
v -2 26 15
v -2 26 14
v -2 26 13
v -2 26 11
v -2 26 2
v -2 27 14
v -2 27 13
v -2 27 12
v -2 27 11
v -2 27 9
v -2 28 15
v -2 28 13
v -2 28 12
v -2 28 11
v -2 28 9
v -2 28 4
v -2 30 16
v -2 30 15
v -2 30 14
v -2 30 4
v -2 31 12
v -2 31 10
v -2 32 16
v -2 32 15
v -2 32 14
v -2 32 12
v -2 32 10
v -2 32 2
v 8 26 15
v 8 26 12
v 8 26 2
v 8 27 15
v 8 27 14
v 8 28 15
v 8 28 14
v 8 28 12
v 8 28 4
v 8 30 16
v 8 30 4
v 8 32 16
v 8 32 2
v -2 30 16
v -2 32 16
v -1 30 16
v -1 31 16
v -1 32 16
v 0 30 16
v 0 31 16
v 5 30 16
v 5 32 16
v 6 31 16
v 6 32 16
v 7 31 16
v 7 32 16
v 8 30 16
v 8 32 16
v -2 26 15
v -2 28 15
v 0 26 15
v 0 27 15
v 1 26 15
v 1 27 15
v 3 26 15
v 3 28 15
v 4 27 15
v 4 28 15
v 5 26 15
v 5 27 15
v 5 28 15
v 7 26 15
v 7 27 15
v 7 28 15
v 8 26 15
v 8 27 15
v 8 28 15
v -2 28 4
v -2 30 4
v 8 28 4
v 8 30 4
v -2 26 2
v -2 32 2
v 8 26 2
v 8 32 2
v -2 26 15
v 0 26 15
v 1 26 15
v 3 26 15
v 5 26 15
v 7 26 15
v 8 26 15
v -2 26 14
v 0 26 14
v 1 26 14
v 3 26 14
v 5 26 14
v -2 26 13
v -1 26 13
v 7 26 12
v 8 26 12
v -2 26 11
v -1 26 11
v -2 26 2
v 8 26 2
v -2 30 16
v -1 30 16
v 0 30 16
v 5 30 16
v 8 30 16
v -2 30 15
v -1 30 15
v 0 30 15
v 1 30 15
v 3 30 15
v 5 30 15
v -2 30 14
v 0 30 14
v 1 30 14
v 3 30 14
v -2 30 4
v 8 30 4
v -2 28 15
v 3 28 15
v 4 28 15
v 5 28 15
v 7 28 15
v 8 28 15
v -1 28 14
v 1 28 14
v 3 28 14
v 4 28 14
v 5 28 14
v 7 28 14
v 8 28 14
v -2 28 13
v -1 28 13
v -2 28 12
v 1 28 12
v 3 28 12
v 6 28 12
v 7 28 12
v 8 28 12
v -2 28 11
v -1 28 11
v -2 28 9
v -1 28 9
v 3 28 7
v 6 28 7
v -2 28 4
v 8 28 4
v -2 32 16
v -1 32 16
v 5 32 16
v 6 32 16
v 7 32 16
v 8 32 16
v -2 32 15
v -1 32 15
v 0 32 15
v 4 32 15
v 5 32 15
v 6 32 15
v 7 32 15
v -2 32 14
v 0 32 14
v 4 32 14
v 5 32 14
v 6 32 14
v -2 32 12
v 0 32 12
v 2 32 12
v -1 32 11
v 0 32 11
v -2 32 10
v -1 32 10
v 2 32 10
v 3 32 10
v -1 32 9
v 0 32 9
v 1 32 9
v 3 32 9
v 4 32 9
v -1 32 8
v 0 32 8
v 1 32 8
v 2 32 8
v 4 32 8
v 1 32 7
v 2 32 7
v -2 32 2
v 8 32 2

# faces
f 6/6/1 2/6/1 1/6/1
f 6/4/1 3/4/1 2/4/1
f 7/6/1 4/6/1 3/6/1
f 7/4/1 3/4/1 6/4/1
f 8/6/1 4/6/1 7/6/1
f 9/4/1 5/4/1 4/4/1
f 9/6/1 4/6/1 8/6/1
f 10/4/1 5/4/1 9/4/1
f 11/6/1 6/6/1 1/6/1
f 11/6/1 7/6/1 6/6/1
f 12/3/1 8/3/1 7/3/1
f 12/6/1 7/6/1 11/6/1
f 13/4/1 9/4/1 8/4/1
f 13/3/1 8/3/1 12/3/1
f 14/6/1 10/6/1 9/6/1
f 14/4/1 9/4/1 13/4/1
f 15/4/1 5/4/1 10/4/1
f 15/6/1 10/6/1 14/6/1
f 16/4/1 5/4/1 15/4/1
f 20/4/1 5/4/1 16/4/1
f 21/4/1 20/4/1 19/4/1
f 22/4/1 20/4/1 21/4/1
f 23/4/1 18/4/1 17/4/1
f 24/6/1 19/6/1 18/6/1
f 24/4/1 18/4/1 23/4/1
f 25/4/1 21/4/1 19/4/1
f 25/6/1 19/6/1 24/6/1
f 26/5/1 22/5/1 21/5/1
f 26/4/1 21/4/1 25/4/1
f 27/4/1 20/4/1 22/4/1
f 27/5/1 22/5/1 26/5/1
f 28/4/1 5/4/1 20/4/1
f 28/4/1 20/4/1 27/4/1
f 29/3/2 30/3/2 32/3/2
f 32/3/2 30/3/2 33/3/2
f 32/4/2 33/4/2 34/4/2
f 33/3/2 30/3/2 35/3/2
f 34/4/2 33/4/2 35/4/2
f 30/4/2 31/4/2 36/4/2
f 35/3/2 30/3/2 36/3/2
f 36/4/2 31/4/2 37/4/2
f 37/4/2 31/4/2 39/4/2
f 38/4/2 39/4/2 40/4/2
f 39/4/2 31/4/2 41/4/2
f 40/4/2 39/4/2 41/4/2
f 44/4/3 43/4/3 42/4/3
f 45/4/3 43/4/3 44/4/3
f 46/4/3 43/4/3 45/4/3
f 47/3/3 45/3/3 44/3/3
f 48/6/3 46/6/3 45/6/3
f 48/3/3 45/3/3 47/3/3
f 49/6/3 48/6/3 47/6/3
f 50/6/3 46/6/3 48/6/3
f 50/6/3 48/6/3 49/6/3
f 51/4/3 50/4/3 49/4/3
f 52/4/3 50/4/3 51/4/3
f 53/4/3 51/4/3 49/4/3
f 53/3/3 52/3/3 51/3/3
f 54/3/3 52/3/3 53/3/3
f 55/4/3 53/4/3 49/4/3
f 55/4/3 54/4/3 53/4/3
f 56/4/3 54/4/3 55/4/3
f 59/6/3 58/6/3 57/6/3
f 60/6/3 58/6/3 59/6/3
f 61/3/3 60/3/3 59/3/3
f 62/6/3 58/6/3 60/6/3
f 62/3/3 60/3/3 61/3/3
f 63/6/3 62/6/3 61/6/3
f 64/6/3 58/6/3 62/6/3
f 64/6/3 62/6/3 63/6/3
f 65/3/3 64/3/3 63/3/3
f 66/3/3 64/3/3 65/3/3
f 67/3/3 65/3/3 63/3/3
f 68/6/3 66/6/3 65/6/3
f 68/3/3 65/3/3 67/3/3
f 69/6/3 66/6/3 68/6/3
f 70/4/3 68/4/3 67/4/3
f 71/3/3 69/3/3 68/3/3
f 71/4/3 68/4/3 70/4/3
f 72/3/3 69/3/3 71/3/3
f 73/3/3 71/3/3 70/3/3
f 74/4/3 72/4/3 71/4/3
f 74/3/3 71/3/3 73/3/3
f 75/4/3 72/4/3 74/4/3
f 78/4/3 77/4/3 76/4/3
f 79/4/3 77/4/3 78/4/3
f 80/4/4 81/4/4 82/4/4
f 82/4/4 81/4/4 83/4/4
f 91/6/5 85/6/5 84/6/5
f 92/3/5 86/3/5 85/3/5
f 92/6/5 85/6/5 91/6/5
f 93/6/5 87/6/5 86/6/5
f 93/3/5 86/3/5 92/3/5
f 94/3/5 88/3/5 87/3/5
f 94/6/5 87/6/5 93/6/5
f 95/4/5 89/4/5 88/4/5
f 95/3/5 88/3/5 94/3/5
f 96/4/5 92/4/5 91/4/5
f 96/4/5 93/4/5 92/4/5
f 96/4/5 95/4/5 94/4/5
f 96/4/5 94/4/5 93/4/5
f 97/4/5 95/4/5 96/4/5
f 98/3/5 90/3/5 89/3/5
f 98/4/5 95/4/5 97/4/5
f 98/4/5 89/4/5 95/4/5
f 99/3/5 90/3/5 98/3/5
f 100/6/5 97/6/5 96/6/5
f 101/4/5 98/4/5 97/4/5
f 101/6/5 97/6/5 100/6/5
f 101/4/5 99/4/5 98/4/5
f 102/4/5 101/4/5 100/4/5
f 103/4/5 99/4/5 101/4/5
f 103/4/5 101/4/5 102/4/5
f 109/4/5 105/4/5 104/4/5
f 110/3/5 106/3/5 105/3/5
f 110/4/5 105/4/5 109/4/5
f 111/6/5 107/6/5 106/6/5
f 111/3/5 106/3/5 110/3/5
f 112/6/5 107/6/5 111/6/5
f 113/6/5 107/6/5 112/6/5
f 114/4/5 108/4/5 107/4/5
f 114/6/5 107/6/5 113/6/5
f 115/6/5 110/6/5 109/6/5
f 115/6/5 111/6/5 110/6/5
f 116/4/5 112/4/5 111/4/5
f 116/6/5 111/6/5 115/6/5
f 117/6/5 113/6/5 112/6/5
f 117/4/5 112/4/5 116/4/5
f 118/4/5 114/4/5 113/4/5
f 118/6/5 113/6/5 117/6/5
f 119/4/5 116/4/5 115/4/5
f 119/4/5 117/4/5 116/4/5
f 119/4/5 118/4/5 117/4/5
f 120/4/5 114/4/5 118/4/5
f 120/4/5 118/4/5 119/4/5
f 120/4/5 108/4/5 114/4/5
f 121/6/6 122/6/6 127/6/6
f 127/6/6 122/6/6 128/6/6
f 122/3/6 123/3/6 129/3/6
f 128/6/6 122/6/6 129/6/6
f 123/6/6 124/6/6 130/6/6
f 129/3/6 123/3/6 130/3/6
f 124/3/6 125/3/6 131/3/6
f 130/6/6 124/6/6 131/6/6
f 125/4/6 126/4/6 132/4/6
f 131/3/6 125/3/6 132/3/6
f 132/4/6 126/4/6 133/4/6
f 121/6/6 127/6/6 134/6/6
f 127/3/6 128/3/6 135/3/6
f 134/6/6 127/6/6 135/6/6
f 134/3/6 135/3/6 136/3/6
f 130/4/6 131/4/6 137/4/6
f 136/3/6 135/3/6 137/3/6
f 128/4/6 129/4/6 137/4/6
f 135/3/6 128/3/6 137/3/6
f 129/4/6 130/4/6 137/4/6
f 131/4/6 132/4/6 137/4/6
f 137/4/6 132/4/6 138/4/6
f 138/4/6 132/4/6 139/4/6
f 132/3/6 133/3/6 140/3/6
f 139/4/6 132/4/6 140/4/6
f 140/3/6 133/3/6 141/3/6
f 136/4/6 137/4/6 142/4/6
f 137/4/6 138/4/6 142/4/6
f 142/4/6 138/4/6 143/4/6
f 142/6/6 143/6/6 144/6/6
f 143/4/6 138/4/6 145/4/6
f 144/6/6 143/6/6 145/6/6
f 138/3/6 139/3/6 146/3/6
f 145/4/6 138/4/6 146/4/6
f 144/4/6 145/4/6 146/4/6
f 140/4/6 141/4/6 147/4/6
f 146/3/6 139/3/6 147/3/6
f 139/4/6 140/4/6 147/4/6
f 144/4/6 146/4/6 148/4/6
f 146/4/6 147/4/6 148/4/6
f 147/4/6 141/4/6 149/4/6
f 148/4/6 147/4/6 149/4/6
f 150/4/6 151/4/6 156/4/6
f 151/6/6 152/6/6 157/6/6
f 156/4/6 151/4/6 157/4/6
f 157/6/6 152/6/6 158/6/6
f 158/6/6 152/6/6 159/6/6
f 152/4/6 153/4/6 160/4/6
f 159/6/6 152/6/6 160/6/6
f 153/3/6 154/3/6 161/3/6
f 160/4/6 153/4/6 161/4/6
f 154/4/6 155/4/6 162/4/6
f 161/3/6 154/3/6 162/3/6
f 156/6/6 157/6/6 163/6/6
f 157/6/6 158/6/6 163/6/6
f 158/4/6 159/4/6 164/4/6
f 163/6/6 158/6/6 164/6/6
f 159/6/6 160/6/6 165/6/6
f 164/4/6 159/4/6 165/4/6
f 160/3/6 161/3/6 166/3/6
f 165/6/6 160/6/6 166/6/6
f 161/4/6 162/4/6 167/4/6
f 166/3/6 161/3/6 167/3/6
f 164/4/6 165/4/6 168/4/6
f 163/4/6 164/4/6 168/4/6
f 166/4/6 167/4/6 168/4/6
f 165/4/6 166/4/6 168/4/6
f 168/4/6 167/4/6 169/4/6
f 169/4/6 167/4/6 170/4/6
f 168/5/6 169/5/6 171/5/6
f 169/1/6 170/1/6 172/1/6
f 171/5/6 169/5/6 172/5/6
f 168/5/6 171/5/6 173/5/6
f 171/1/6 172/1/6 174/1/6
f 173/5/6 171/5/6 174/5/6
f 170/4/6 167/4/6 175/4/6
f 174/1/6 172/1/6 175/1/6
f 172/1/6 170/1/6 175/1/6
f 175/4/6 167/4/6 176/4/6
f 173/4/6 174/4/6 177/4/6
f 174/1/6 175/1/6 177/1/6
f 177/1/6 175/1/6 178/1/6
f 178/1/6 175/1/6 179/1/6
f 176/4/6 167/4/6 180/4/6
f 175/2/6 176/2/6 180/2/6
f 180/4/6 167/4/6 181/4/6
f 173/4/6 177/4/6 182/4/6
f 177/2/6 178/2/6 182/2/6
f 178/5/6 179/5/6 183/5/6
f 182/2/6 178/2/6 183/2/6
f 179/1/6 175/1/6 184/1/6
f 183/5/6 179/5/6 184/5/6
f 180/2/6 181/2/6 185/2/6
f 184/1/6 175/1/6 185/1/6
f 175/2/6 180/2/6 185/2/6
f 181/4/6 167/4/6 186/4/6
f 185/2/6 181/2/6 186/2/6
f 182/4/6 183/4/6 187/4/6
f 184/1/6 185/1/6 187/1/6
f 183/4/6 184/4/6 187/4/6
f 185/4/6 186/4/6 188/4/6
f 187/1/6 185/1/6 188/1/6
f 173/4/6 182/4/6 189/4/6
f 182/4/6 187/4/6 189/4/6
f 187/4/6 188/4/6 189/4/6
f 167/4/6 162/4/6 190/4/6
f 189/4/6 188/4/6 190/4/6
f 162/4/6 155/4/6 190/4/6
f 188/4/6 186/4/6 190/4/6
f 186/4/6 167/4/6 190/4/6
