# MagicaVoxel @ Ephtracy

# material
mtllib Axe.mtl
usemtl palette

# normals
vn -1 0 0
vn 1 0 0
vn 0 0 1
vn 0 0 -1
vn 0 -1 0
vn 0 1 0

# texcoords
vt 0.0605469 0.5
vt 0.912109 0.5
vt 0.916016 0.5
vt 0.919922 0.5
vt 0.935547 0.5
vt 0.939453 0.5
vt 0.958984 0.5
vt 0.962891 0.5
vt 0.966797 0.5

# verts
v -4 13 0.5
v -4 13 -0.5
v -4 14 0.5
v -4 14 -0.5
v -4 15 0.5
v -4 15 -0.5
v -4 16 0.5
v -4 16 -0.5
v -4 19 0.5
v -4 19 -0.5
v -3 15 0.5
v -3 15 -0.5
v -3 16 0.5
v -3 16 -0.5
v -3 19 0.5
v -3 19 -0.5
v -3 20 0.5
v -3 20 -0.5
v -1 0 0.5
v -1 0 -0.5
v -1 1 0.5
v -1 1 -0.5
v -1 2 0.5
v -1 2 -0.5
v -1 3 0.5
v -1 3 -0.5
v -1 6 0.5
v -1 6 -0.5
v -1 14 0.5
v -1 14 -0.5
v -1 16 0.5
v -1 16 -0.5
v -1 18 0.5
v -1 18 -0.5
v -1 20 0.5
v -1 20 -0.5
v -1 21 0.5
v -1 21 -0.5
v 1 13 0.5
v 1 13 -0.5
v 1 14 0.5
v 1 14 -0.5
v 1 15 0.5
v 1 15 -0.5
v 1 21 0.5
v 1 21 -0.5
v 1 22 0.5
v 1 22 -0.5
v 2 11 0.5
v 2 11 -0.5
v 2 13 0.5
v 2 13 -0.5
v 2 16 0.5
v 2 16 -0.5
v 2 17 0.5
v 2 17 -0.5
v 2 19 0.5
v 2 19 -0.5
v 2 20 0.5
v 2 20 -0.5
v 2 21 0.5
v 2 21 -0.5
v -3 13 0.5
v -3 13 -0.5
v -3 14 0.5
v -3 14 -0.5
v -2 14 0.5
v -2 14 -0.5
v -2 15 0.5
v -2 15 -0.5
v -2 16 0.5
v -2 16 -0.5
v -2 18 0.5
v -2 18 -0.5
v -2 19 0.5
v -2 19 -0.5
v -2 20 0.5
v -2 20 -0.5
v 0 0 0.5
v 0 0 -0.5
v 0 1 0.5
v 0 1 -0.5
v 0 2 0.5
v 0 2 -0.5
v 0 3 0.5
v 0 3 -0.5
v 0 6 0.5
v 0 6 -0.5
v 0 14 0.5
v 0 14 -0.5
v 0 15 0.5
v 0 15 -0.5
v 0 16 0.5
v 0 16 -0.5
v 0 17 0.5
v 0 17 -0.5
v 0 19 0.5
v 0 19 -0.5
v 0 20 0.5
v 0 20 -0.5
v 0 21 0.5
v 0 21 -0.5
v 3 11 0.5
v 3 11 -0.5
v 3 12 0.5
v 3 12 -0.5
v 3 21 0.5
v 3 21 -0.5
v 3 22 0.5
v 3 22 -0.5
v 4 12 0.5
v 4 12 -0.5
v 4 14 0.5
v 4 14 -0.5
v 4 20 0.5
v 4 20 -0.5
v 4 21 0.5
v 4 21 -0.5
v 5 14 0.5
v 5 14 -0.5
v 5 15 0.5
v 5 15 -0.5
v 5 16 0.5
v 5 16 -0.5
v 5 19 0.5
v 5 19 -0.5
v 5 20 0.5
v 5 20 -0.5
v 6 16 0.5
v 6 16 -0.5
v 6 19 0.5
v 6 19 -0.5
v -4 13 0.5
v -4 14 0.5
v -4 15 0.5
v -4 16 0.5
v -4 19 0.5
v -3 13 0.5
v -3 14 0.5
v -3 15 0.5
v -3 16 0.5
v -3 18 0.5
v -3 19 0.5
v -3 20 0.5
v -2 14 0.5
v -2 15 0.5
v -2 16 0.5
v -2 18 0.5
v -2 19 0.5
v -2 20 0.5
v -1 0 0.5
v -1 1 0.5
v -1 2 0.5
v -1 3 0.5
v -1 6 0.5
v -1 14 0.5
v -1 16 0.5
v -1 18 0.5
v -1 20 0.5
v -1 21 0.5
v 0 0 0.5
v 0 1 0.5
v 0 2 0.5
v 0 3 0.5
v 0 6 0.5
v 0 14 0.5
v 0 15 0.5
v 0 16 0.5
v 0 17 0.5
v 0 18 0.5
v 0 19 0.5
v 0 20 0.5
v 0 21 0.5
v 1 13 0.5
v 1 14 0.5
v 1 15 0.5
v 1 16 0.5
v 1 17 0.5
v 1 19 0.5
v 1 21 0.5
v 1 22 0.5
v 2 11 0.5
v 2 13 0.5
v 2 16 0.5
v 2 17 0.5
v 2 19 0.5
v 2 20 0.5
v 2 21 0.5
v 3 11 0.5
v 3 12 0.5
v 3 13 0.5
v 3 14 0.5
v 3 15 0.5
v 3 19 0.5
v 3 20 0.5
v 3 21 0.5
v 3 22 0.5
v 4 12 0.5
v 4 14 0.5
v 4 15 0.5
v 4 19 0.5
v 4 20 0.5
v 4 21 0.5
v 5 14 0.5
v 5 15 0.5
v 5 16 0.5
v 5 19 0.5
v 5 20 0.5
v 6 16 0.5
v 6 19 0.5
v -4 13 -0.5
v -4 14 -0.5
v -4 15 -0.5
v -4 16 -0.5
v -4 19 -0.5
v -3 13 -0.5
v -3 14 -0.5
v -3 15 -0.5
v -3 16 -0.5
v -3 18 -0.5
v -3 19 -0.5
v -3 20 -0.5
v -2 14 -0.5
v -2 15 -0.5
v -2 16 -0.5
v -2 18 -0.5
v -2 19 -0.5
v -2 20 -0.5
v -1 0 -0.5
v -1 1 -0.5
v -1 2 -0.5
v -1 3 -0.5
v -1 6 -0.5
v -1 14 -0.5
v -1 16 -0.5
v -1 18 -0.5
v -1 20 -0.5
v -1 21 -0.5
v 0 0 -0.5
v 0 1 -0.5
v 0 2 -0.5
v 0 3 -0.5
v 0 6 -0.5
v 0 14 -0.5
v 0 15 -0.5
v 0 16 -0.5
v 0 17 -0.5
v 0 18 -0.5
v 0 19 -0.5
v 0 20 -0.5
v 0 21 -0.5
v 1 13 -0.5
v 1 14 -0.5
v 1 15 -0.5
v 1 16 -0.5
v 1 17 -0.5
v 1 19 -0.5
v 1 21 -0.5
v 1 22 -0.5
v 2 11 -0.5
v 2 13 -0.5
v 2 16 -0.5
v 2 17 -0.5
v 2 19 -0.5
v 2 20 -0.5
v 2 21 -0.5
v 3 11 -0.5
v 3 12 -0.5
v 3 13 -0.5
v 3 14 -0.5
v 3 15 -0.5
v 3 19 -0.5
v 3 20 -0.5
v 3 21 -0.5
v 3 22 -0.5
v 4 12 -0.5
v 4 14 -0.5
v 4 15 -0.5
v 4 19 -0.5
v 4 20 -0.5
v 4 21 -0.5
v 5 14 -0.5
v 5 15 -0.5
v 5 16 -0.5
v 5 19 -0.5
v 5 20 -0.5
v 6 16 -0.5
v 6 19 -0.5
v -1 0 0.5
v 0 0 0.5
v -1 0 -0.5
v 0 0 -0.5
v 2 11 0.5
v 3 11 0.5
v 2 11 -0.5
v 3 11 -0.5
v 3 12 0.5
v 4 12 0.5
v 3 12 -0.5
v 4 12 -0.5
v -4 13 0.5
v -3 13 0.5
v 1 13 0.5
v 2 13 0.5
v -4 13 -0.5
v -3 13 -0.5
v 1 13 -0.5
v 2 13 -0.5
v -3 14 0.5
v -2 14 0.5
v 4 14 0.5
v 5 14 0.5
v -3 14 -0.5
v -2 14 -0.5
v 4 14 -0.5
v 5 14 -0.5
v 0 15 0.5
v 1 15 0.5
v 0 15 -0.5
v 1 15 -0.5
v -4 16 0.5
v -3 16 0.5
v -2 16 0.5
v -1 16 0.5
v 5 16 0.5
v 6 16 0.5
v -4 16 -0.5
v -3 16 -0.5
v -2 16 -0.5
v -1 16 -0.5
v 5 16 -0.5
v 6 16 -0.5
v 0 17 0.5
v 1 17 0.5
v 2 17 0.5
v 0 17 -0.5
v 1 17 -0.5
v 2 17 -0.5
v 1 21 0.5
v 2 21 0.5
v 1 21 -0.5
v 2 21 -0.5
v -4 15 0.5
v -3 15 0.5
v -4 15 -0.5
v -3 15 -0.5
v 0 16 0.5
v 1 16 0.5
v 2 16 0.5
v 0 16 -0.5
v 1 16 -0.5
v 2 16 -0.5
v -2 18 0.5
v -1 18 0.5
v -2 18 -0.5
v -1 18 -0.5
v -4 19 0.5
v -3 19 0.5
v 0 19 0.5
v 1 19 0.5
v 2 19 0.5
v 5 19 0.5
v 6 19 0.5
v -4 19 -0.5
v -3 19 -0.5
v 0 19 -0.5
v 1 19 -0.5
v 2 19 -0.5
v 5 19 -0.5
v 6 19 -0.5
v -3 20 0.5
v -2 20 0.5
v 4 20 0.5
v 5 20 0.5
v -3 20 -0.5
v -2 20 -0.5
v 4 20 -0.5
v 5 20 -0.5
v -1 21 0.5
v 0 21 0.5
v 3 21 0.5
v 4 21 0.5
v -1 21 -0.5
v 0 21 -0.5
v 3 21 -0.5
v 4 21 -0.5
v 1 22 0.5
v 3 22 0.5
v 1 22 -0.5
v 3 22 -0.5

# faces
f 3/4/1 2/4/1 1/4/1
f 4/4/1 2/4/1 3/4/1
f 5/2/1 4/2/1 3/2/1
f 6/2/1 4/2/1 5/2/1
f 9/2/1 8/2/1 7/2/1
f 10/2/1 8/2/1 9/2/1
f 13/2/1 12/2/1 11/2/1
f 14/2/1 12/2/1 13/2/1
f 17/4/1 16/4/1 15/4/1
f 18/4/1 16/4/1 17/4/1
f 21/2/1 20/2/1 19/2/1
f 22/2/1 20/2/1 21/2/1
f 23/1/1 22/1/1 21/1/1
f 24/1/1 22/1/1 23/1/1
f 25/9/1 24/9/1 23/9/1
f 26/9/1 24/9/1 25/9/1
f 27/6/1 26/6/1 25/6/1
f 28/6/1 26/6/1 27/6/1
f 29/5/1 28/5/1 27/5/1
f 30/5/1 28/5/1 29/5/1
f 31/6/1 30/6/1 29/6/1
f 32/6/1 30/6/1 31/6/1
f 35/7/1 34/7/1 33/7/1
f 36/7/1 34/7/1 35/7/1
f 37/2/1 36/2/1 35/2/1
f 38/2/1 36/2/1 37/2/1
f 41/8/1 40/8/1 39/8/1
f 42/8/1 40/8/1 41/8/1
f 43/9/1 42/9/1 41/9/1
f 44/9/1 42/9/1 43/9/1
f 47/3/1 46/3/1 45/3/1
f 48/3/1 46/3/1 47/3/1
f 51/2/1 50/2/1 49/2/1
f 52/2/1 50/2/1 51/2/1
f 55/9/1 54/9/1 53/9/1
f 56/9/1 54/9/1 55/9/1
f 59/9/1 58/9/1 57/9/1
f 60/9/1 58/9/1 59/9/1
f 61/7/1 60/7/1 59/7/1
f 62/7/1 60/7/1 61/7/1
f 63/4/2 64/4/2 65/4/2
f 65/4/2 64/4/2 66/4/2
f 67/4/2 68/4/2 69/4/2
f 69/4/2 68/4/2 70/4/2
f 69/2/2 70/2/2 71/2/2
f 71/2/2 70/2/2 72/2/2
f 73/7/2 74/7/2 75/7/2
f 75/7/2 74/7/2 76/7/2
f 75/4/2 76/4/2 77/4/2
f 77/4/2 76/4/2 78/4/2
f 79/2/2 80/2/2 81/2/2
f 81/2/2 80/2/2 82/2/2
f 81/1/2 82/1/2 83/1/2
f 83/1/2 82/1/2 84/1/2
f 83/9/2 84/9/2 85/9/2
f 85/9/2 84/9/2 86/9/2
f 85/6/2 86/6/2 87/6/2
f 87/6/2 86/6/2 88/6/2
f 87/5/2 88/5/2 89/5/2
f 89/5/2 88/5/2 90/5/2
f 89/6/2 90/6/2 91/6/2
f 91/6/2 90/6/2 92/6/2
f 93/6/2 94/6/2 95/6/2
f 95/6/2 94/6/2 96/6/2
f 97/7/2 98/7/2 99/7/2
f 99/7/2 98/7/2 100/7/2
f 99/2/2 100/2/2 101/2/2
f 101/2/2 100/2/2 102/2/2
f 103/2/2 104/2/2 105/2/2
f 105/2/2 104/2/2 106/2/2
f 107/3/2 108/3/2 109/3/2
f 109/3/2 108/3/2 110/3/2
f 111/2/2 112/2/2 113/2/2
f 113/2/2 112/2/2 114/2/2
f 115/2/2 116/2/2 117/2/2
f 117/2/2 116/2/2 118/2/2
f 119/2/2 120/2/2 121/2/2
f 121/2/2 120/2/2 122/2/2
f 121/8/2 122/8/2 123/8/2
f 123/8/2 122/8/2 124/8/2
f 125/2/2 126/2/2 127/2/2
f 127/2/2 126/2/2 128/2/2
f 129/2/2 130/2/2 131/2/2
f 131/2/2 130/2/2 132/2/2
f 138/4/3 134/4/3 133/4/3
f 139/2/3 135/2/3 134/2/3
f 139/4/3 134/4/3 138/4/3
f 140/2/3 135/2/3 139/2/3
f 141/2/3 137/2/3 136/2/3
f 142/2/3 137/2/3 141/2/3
f 143/2/3 137/2/3 142/2/3
f 145/4/3 140/4/3 139/4/3
f 146/2/3 141/2/3 140/2/3
f 146/4/3 140/4/3 145/4/3
f 147/9/3 142/9/3 141/9/3
f 147/2/3 141/2/3 146/2/3
f 148/7/3 143/7/3 142/7/3
f 148/9/3 142/9/3 147/9/3
f 149/4/3 144/4/3 143/4/3
f 149/7/3 143/7/3 148/7/3
f 150/4/3 144/4/3 149/4/3
f 157/9/3 148/9/3 147/9/3
f 158/9/3 148/9/3 157/9/3
f 161/2/3 152/2/3 151/2/3
f 162/1/3 153/1/3 152/1/3
f 162/2/3 152/2/3 161/2/3
f 163/9/3 154/9/3 153/9/3
f 163/1/3 153/1/3 162/1/3
f 164/6/3 155/6/3 154/6/3
f 164/9/3 154/9/3 163/9/3
f 165/5/3 156/5/3 155/5/3
f 165/6/3 155/6/3 164/6/3
f 166/6/3 157/6/3 156/6/3
f 166/5/3 156/5/3 165/5/3
f 166/6/3 158/6/3 157/6/3
f 167/6/3 158/6/3 166/6/3
f 168/6/3 158/6/3 167/6/3
f 169/6/3 158/6/3 168/6/3
f 170/7/3 159/7/3 158/7/3
f 170/6/3 158/6/3 169/6/3
f 171/7/3 159/7/3 170/7/3
f 172/2/3 160/2/3 159/2/3
f 172/7/3 159/7/3 171/7/3
f 173/2/3 160/2/3 172/2/3
f 176/6/3 168/6/3 167/6/3
f 177/6/3 168/6/3 176/6/3
f 178/6/3 170/6/3 169/6/3
f 178/6/3 171/6/3 170/6/3
f 179/6/3 171/6/3 178/6/3
f 183/8/3 175/8/3 174/8/3
f 184/9/3 177/9/3 176/9/3
f 184/9/3 176/9/3 175/9/3
f 185/9/3 179/9/3 178/9/3
f 186/9/3 179/9/3 185/9/3
f 188/3/3 181/3/3 180/3/3
f 189/2/3 183/2/3 182/2/3
f 190/2/3 183/2/3 189/2/3
f 191/8/3 175/8/3 183/8/3
f 191/2/3 183/2/3 190/2/3
f 192/9/3 184/9/3 175/9/3
f 192/8/3 175/8/3 191/8/3
f 192/9/3 187/9/3 186/9/3
f 192/9/3 185/9/3 184/9/3
f 192/9/3 186/9/3 185/9/3
f 193/9/3 187/9/3 192/9/3
f 194/9/3 187/9/3 193/9/3
f 195/7/3 188/7/3 187/7/3
f 195/9/3 187/9/3 194/9/3
f 196/3/3 181/3/3 188/3/3
f 196/7/3 188/7/3 195/7/3
f 197/3/3 181/3/3 196/3/3
f 198/2/3 191/2/3 190/2/3
f 198/2/3 192/2/3 191/2/3
f 199/8/3 193/8/3 192/8/3
f 199/2/3 192/2/3 198/2/3
f 200/9/3 194/9/3 193/9/3
f 200/8/3 193/8/3 199/8/3
f 201/8/3 195/8/3 194/8/3
f 201/9/3 194/9/3 200/9/3
f 202/2/3 196/2/3 195/2/3
f 202/8/3 195/8/3 201/8/3
f 203/2/3 196/2/3 202/2/3
f 204/2/3 200/2/3 199/2/3
f 205/8/3 201/8/3 200/8/3
f 205/2/3 200/2/3 204/2/3
f 206/8/3 201/8/3 205/8/3
f 207/2/3 202/2/3 201/2/3
f 207/8/3 201/8/3 206/8/3
f 208/2/3 202/2/3 207/2/3
f 209/2/3 207/2/3 206/2/3
f 210/2/3 207/2/3 209/2/3
f 211/4/4 212/4/4 216/4/4
f 212/2/4 213/2/4 217/2/4
f 216/4/4 212/4/4 217/4/4
f 217/2/4 213/2/4 218/2/4
f 214/2/4 215/2/4 219/2/4
f 219/2/4 215/2/4 220/2/4
f 220/2/4 215/2/4 221/2/4
f 217/4/4 218/4/4 223/4/4
f 218/2/4 219/2/4 224/2/4
f 223/4/4 218/4/4 224/4/4
f 219/9/4 220/9/4 225/9/4
f 224/2/4 219/2/4 225/2/4
f 220/7/4 221/7/4 226/7/4
f 225/9/4 220/9/4 226/9/4
f 221/4/4 222/4/4 227/4/4
f 226/7/4 221/7/4 227/7/4
f 227/4/4 222/4/4 228/4/4
f 225/9/4 226/9/4 235/9/4
f 235/9/4 226/9/4 236/9/4
f 229/2/4 230/2/4 239/2/4
f 230/1/4 231/1/4 240/1/4
f 239/2/4 230/2/4 240/2/4
f 231/9/4 232/9/4 241/9/4
f 240/1/4 231/1/4 241/1/4
f 232/6/4 233/6/4 242/6/4
f 241/9/4 232/9/4 242/9/4
f 233/5/4 234/5/4 243/5/4
f 242/6/4 233/6/4 243/6/4
f 234/6/4 235/6/4 244/6/4
f 243/5/4 234/5/4 244/5/4
f 235/6/4 236/6/4 244/6/4
f 244/6/4 236/6/4 245/6/4
f 245/6/4 236/6/4 246/6/4
f 246/6/4 236/6/4 247/6/4
f 236/7/4 237/7/4 248/7/4
f 247/6/4 236/6/4 248/6/4
f 248/7/4 237/7/4 249/7/4
f 237/2/4 238/2/4 250/2/4
f 249/7/4 237/7/4 250/7/4
f 250/2/4 238/2/4 251/2/4
f 245/6/4 246/6/4 254/6/4
f 254/6/4 246/6/4 255/6/4
f 247/6/4 248/6/4 256/6/4
f 248/6/4 249/6/4 256/6/4
f 256/6/4 249/6/4 257/6/4
f 252/8/4 253/8/4 261/8/4
f 254/9/4 255/9/4 262/9/4
f 253/9/4 254/9/4 262/9/4
f 256/9/4 257/9/4 263/9/4
f 263/9/4 257/9/4 264/9/4
f 258/3/4 259/3/4 266/3/4
f 260/2/4 261/2/4 267/2/4
f 267/2/4 261/2/4 268/2/4
f 261/8/4 253/8/4 269/8/4
f 268/2/4 261/2/4 269/2/4
f 253/9/4 262/9/4 270/9/4
f 269/8/4 253/8/4 270/8/4
f 264/9/4 265/9/4 270/9/4
f 262/9/4 263/9/4 270/9/4
f 263/9/4 264/9/4 270/9/4
f 270/9/4 265/9/4 271/9/4
f 271/9/4 265/9/4 272/9/4
f 265/7/4 266/7/4 273/7/4
f 272/9/4 265/9/4 273/9/4
f 266/3/4 259/3/4 274/3/4
f 273/7/4 266/7/4 274/7/4
f 274/3/4 259/3/4 275/3/4
f 268/2/4 269/2/4 276/2/4
f 269/2/4 270/2/4 276/2/4
f 270/8/4 271/8/4 277/8/4
f 276/2/4 270/2/4 277/2/4
f 271/9/4 272/9/4 278/9/4
f 277/8/4 271/8/4 278/8/4
f 272/8/4 273/8/4 279/8/4
f 278/9/4 272/9/4 279/9/4
f 273/2/4 274/2/4 280/2/4
f 279/8/4 273/8/4 280/8/4
f 280/2/4 274/2/4 281/2/4
f 277/2/4 278/2/4 282/2/4
f 278/8/4 279/8/4 283/8/4
f 282/2/4 278/2/4 283/2/4
f 283/8/4 279/8/4 284/8/4
f 279/2/4 280/2/4 285/2/4
f 284/8/4 279/8/4 285/8/4
f 285/2/4 280/2/4 286/2/4
f 284/2/4 285/2/4 287/2/4
f 287/2/4 285/2/4 288/2/4
f 291/2/5 290/2/5 289/2/5
f 292/2/5 290/2/5 291/2/5
f 295/2/5 294/2/5 293/2/5
f 296/2/5 294/2/5 295/2/5
f 299/2/5 298/2/5 297/2/5
f 300/2/5 298/2/5 299/2/5
f 305/4/5 302/4/5 301/4/5
f 306/4/5 302/4/5 305/4/5
f 307/8/5 304/8/5 303/8/5
f 308/8/5 304/8/5 307/8/5
f 313/4/5 310/4/5 309/4/5
f 314/4/5 310/4/5 313/4/5
f 315/2/5 312/2/5 311/2/5
f 316/2/5 312/2/5 315/2/5
f 319/6/5 318/6/5 317/6/5
f 320/6/5 318/6/5 319/6/5
f 327/2/5 322/2/5 321/2/5
f 328/2/5 322/2/5 327/2/5
f 329/9/5 324/9/5 323/9/5
f 330/9/5 324/9/5 329/9/5
f 331/2/5 326/2/5 325/2/5
f 332/2/5 326/2/5 331/2/5
f 336/6/5 334/6/5 333/6/5
f 337/9/5 335/9/5 334/9/5
f 337/6/5 334/6/5 336/6/5
f 338/9/5 335/9/5 337/9/5
f 341/3/5 340/3/5 339/3/5
f 342/3/5 340/3/5 341/3/5
f 343/2/6 344/2/6 345/2/6
f 345/2/6 344/2/6 346/2/6
f 347/6/6 348/6/6 350/6/6
f 348/9/6 349/9/6 351/9/6
f 350/6/6 348/6/6 351/6/6
f 351/9/6 349/9/6 352/9/6
f 353/9/6 354/9/6 355/9/6
f 355/9/6 354/9/6 356/9/6
f 357/2/6 358/2/6 364/2/6
f 364/2/6 358/2/6 365/2/6
f 359/6/6 360/6/6 366/6/6
f 360/9/6 361/9/6 367/9/6
f 366/6/6 360/6/6 367/6/6
f 367/9/6 361/9/6 368/9/6
f 362/2/6 363/2/6 369/2/6
f 369/2/6 363/2/6 370/2/6
f 371/4/6 372/4/6 375/4/6
f 375/4/6 372/4/6 376/4/6
f 373/2/6 374/2/6 377/2/6
f 377/2/6 374/2/6 378/2/6
f 379/2/6 380/2/6 383/2/6
f 383/2/6 380/2/6 384/2/6
f 381/2/6 382/2/6 385/2/6
f 385/2/6 382/2/6 386/2/6
f 387/3/6 388/3/6 389/3/6
f 389/3/6 388/3/6 390/3/6
