# MagicaVoxel @ Ephtracy

# material
mtllib bottle.mtl
usemtl palette

# normals
vn -1 0 0
vn 1 0 0
vn 0 0 1
vn 0 0 -1
vn 0 -1 0
vn 0 1 0

# texcoords
vt 0.505859 0.5
vt 0.595703 0.5
vt 0.623047 0.5
vt 0.650391 0.5
vt 0.876953 0.5
vt 0.955078 0.5

# verts
v -18 15 6
v -18 15 5
v -18 15 3
v -18 15 2
v -18 17 8
v -18 17 6
v -18 17 5
v -18 17 3
v -18 17 2
v -18 17 1
v -18 18 8
v -18 18 6
v -18 18 3
v -18 18 1
v -17 12 9
v -17 12 8
v -17 14 9
v -17 14 8
v -17 14 6
v -17 14 3
v -17 14 1
v -17 14 -0
v -17 15 8
v -17 15 6
v -17 15 5
v -17 15 3
v -17 15 2
v -17 17 8
v -17 17 6
v -17 17 5
v -17 17 4
v -17 17 3
v -17 17 2
v -17 17 1
v -17 18 9
v -17 18 8
v -17 18 6
v -17 18 5
v -17 18 4
v -17 18 3
v -17 18 1
v -17 18 -0
v -16 15 13
v -16 15 11
v -16 15 9
v -16 17 13
v -16 17 11
v -16 17 9
v -16 18 4
v -16 18 3
v -16 19 4
v -16 19 3
v -15 14 8
v -15 14 7
v -15 14 2
v -15 14 1
v -15 16 7
v -15 16 2
v -15 17 8
v -15 17 5
v -15 17 3
v -15 17 1
v -16 13 9
v -16 13 8
v -16 14 9
v -16 14 8
v -16 14 7
v -16 14 2
v -16 14 1
v -16 15 8
v -16 15 7
v -16 16 7
v -16 16 6
v -16 16 2
v -16 17 8
v -16 17 6
v -16 17 5
v -16 17 3
v -16 17 1
v -15 12 9
v -15 12 8
v -15 13 9
v -15 13 8
v -15 15 13
v -15 15 11
v -15 15 9
v -15 17 13
v -15 17 11
v -15 17 9
v -15 18 4
v -15 18 3
v -15 19 4
v -15 19 3
v -14 14 9
v -14 14 1
v -14 14 -0
v -14 17 9
v -14 17 5
v -14 18 9
v -14 18 5
v -14 18 1
v -14 18 -0
v -16 15 13
v -16 17 13
v -15 15 13
v -15 17 13
v -17 12 9
v -17 14 9
v -17 18 9
v -16 13 9
v -16 14 9
v -16 15 9
v -16 17 9
v -15 12 9
v -15 13 9
v -15 15 9
v -15 17 9
v -15 18 9
v -14 14 9
v -14 17 9
v -14 18 9
v -18 17 8
v -18 18 8
v -17 17 8
v -17 18 8
v -16 14 7
v -16 15 7
v -16 16 7
v -15 14 7
v -15 16 7
v -18 15 6
v -18 17 6
v -17 15 6
v -17 17 6
v -16 18 4
v -16 19 4
v -15 18 4
v -15 19 4
v -18 15 3
v -18 17 3
v -18 18 3
v -17 15 3
v -17 17 3
v -17 18 3
v -16 14 1
v -16 17 1
v -15 14 1
v -15 17 1
v -17 12 8
v -17 14 8
v -16 13 8
v -16 14 8
v -16 15 8
v -16 17 8
v -15 12 8
v -15 13 8
v -15 14 8
v -15 17 8
v -18 17 6
v -18 18 6
v -17 17 6
v -17 18 6
v -18 15 5
v -18 17 5
v -17 15 5
v -17 17 5
v -16 18 3
v -16 19 3
v -15 18 3
v -15 19 3
v -18 15 2
v -18 17 2
v -17 15 2
v -17 17 2
v -16 14 2
v -16 16 2
v -15 14 2
v -15 16 2
v -18 17 1
v -18 18 1
v -17 17 1
v -17 18 1
v -17 14 -0
v -17 18 -0
v -14 14 -0
v -14 18 -0
v -17 12 9
v -15 12 9
v -17 12 8
v -15 12 8
v -16 14 9
v -14 14 9
v -17 14 8
v -16 14 8
v -15 14 8
v -16 14 7
v -15 14 7
v -17 14 6
v -16 14 6
v -17 14 3
v -16 14 3
v -16 14 2
v -15 14 2
v -17 14 1
v -16 14 1
v -15 14 1
v -14 14 1
v -17 14 -0
v -14 14 -0
v -16 15 13
v -15 15 13
v -16 15 11
v -15 15 11
v -16 15 9
v -15 15 9
v -18 15 6
v -17 15 6
v -18 15 5
v -17 15 5
v -18 15 3
v -17 15 3
v -18 15 2
v -17 15 2
v -18 17 8
v -17 17 8
v -16 17 8
v -15 17 8
v -18 17 6
v -17 17 6
v -16 17 6
v -16 17 5
v -15 17 5
v -16 17 3
v -15 17 3
v -18 17 2
v -17 17 2
v -18 17 1
v -17 17 1
v -16 17 1
v -15 17 1
v -16 13 9
v -15 13 9
v -16 13 8
v -15 13 8
v -16 16 7
v -15 16 7
v -16 16 6
v -16 16 2
v -15 16 2
v -16 17 13
v -15 17 13
v -16 17 11
v -15 17 11
v -16 17 9
v -15 17 9
v -18 17 6
v -17 17 6
v -18 17 5
v -17 17 5
v -17 18 9
v -15 18 9
v -14 18 9
v -18 18 8
v -17 18 8
v -16 18 8
v -15 18 8
v -18 18 6
v -17 18 6
v -17 18 5
v -16 18 5
v -14 18 5
v -17 18 4
v -16 18 4
v -15 18 4
v -18 18 3
v -17 18 3
v -16 18 3
v -15 18 3
v -18 18 1
v -17 18 1
v -16 18 1
v -15 18 1
v -14 18 1
v -17 18 -0
v -14 18 -0
v -16 19 4
v -15 19 4
v -16 19 3
v -15 19 3

# faces
f 6/5/1 2/5/1 1/5/1
f 7/5/1 2/5/1 6/5/1
f 8/4/1 4/4/1 3/4/1
f 9/4/1 4/4/1 8/4/1
f 11/5/1 6/5/1 5/5/1
f 12/5/1 6/5/1 11/5/1
f 13/5/1 10/5/1 9/5/1
f 13/5/1 9/5/1 8/5/1
f 14/5/1 10/5/1 13/5/1
f 17/1/1 16/1/1 15/1/1
f 18/1/1 16/1/1 17/1/1
f 23/4/1 18/4/1 17/4/1
f 23/4/1 19/4/1 18/4/1
f 24/2/1 20/2/1 19/2/1
f 24/4/1 19/4/1 23/4/1
f 25/2/1 20/2/1 24/2/1
f 26/4/1 21/4/1 20/4/1
f 26/2/1 20/2/1 25/2/1
f 27/4/1 21/4/1 26/4/1
f 28/4/1 23/4/1 17/4/1
f 28/2/1 24/2/1 23/2/1
f 29/2/1 24/2/1 28/2/1
f 30/4/1 26/4/1 25/4/1
f 31/4/1 26/4/1 30/4/1
f 32/4/1 26/4/1 31/4/1
f 33/4/1 21/4/1 27/4/1
f 34/2/1 22/2/1 21/2/1
f 34/4/1 21/4/1 33/4/1
f 35/4/1 28/4/1 17/4/1
f 36/4/1 28/4/1 35/4/1
f 37/4/1 30/4/1 29/4/1
f 38/2/1 31/2/1 30/2/1
f 38/4/1 30/4/1 37/4/1
f 39/4/1 32/4/1 31/4/1
f 39/2/1 31/2/1 38/2/1
f 40/4/1 32/4/1 39/4/1
f 41/2/1 22/2/1 34/2/1
f 42/2/1 22/2/1 41/2/1
f 46/6/1 44/6/1 43/6/1
f 47/3/1 45/3/1 44/3/1
f 47/6/1 44/6/1 46/6/1
f 48/3/1 45/3/1 47/3/1
f 51/5/1 50/5/1 49/5/1
f 52/5/1 50/5/1 51/5/1
f 57/4/1 54/4/1 53/4/1
f 58/4/1 56/4/1 55/4/1
f 59/4/1 57/4/1 53/4/1
f 59/4/1 58/4/1 57/4/1
f 60/4/1 58/4/1 59/4/1
f 61/4/1 58/4/1 60/4/1
f 62/4/1 56/4/1 58/4/1
f 62/4/1 58/4/1 61/4/1
f 63/1/2 64/1/2 65/1/2
f 65/1/2 64/1/2 66/1/2
f 66/4/2 67/4/2 70/4/2
f 70/4/2 67/4/2 71/4/2
f 70/2/2 71/2/2 72/2/2
f 68/4/2 69/4/2 74/4/2
f 72/2/2 73/2/2 75/2/2
f 70/2/2 72/2/2 75/2/2
f 73/4/2 74/4/2 76/4/2
f 75/2/2 73/2/2 76/2/2
f 76/4/2 74/4/2 77/4/2
f 77/4/2 74/4/2 78/4/2
f 74/4/2 69/4/2 79/4/2
f 78/4/2 74/4/2 79/4/2
f 80/1/2 81/1/2 82/1/2
f 82/1/2 81/1/2 83/1/2
f 84/6/2 85/6/2 87/6/2
f 85/3/2 86/3/2 88/3/2
f 87/6/2 85/6/2 88/6/2
f 88/3/2 86/3/2 89/3/2
f 90/5/2 91/5/2 92/5/2
f 92/5/2 91/5/2 93/5/2
f 94/4/2 95/4/2 97/4/2
f 97/4/2 95/4/2 98/4/2
f 97/2/2 98/2/2 99/2/2
f 98/4/2 95/4/2 100/4/2
f 99/2/2 98/2/2 100/2/2
f 95/2/2 96/2/2 101/2/2
f 100/4/2 95/4/2 101/4/2
f 101/2/2 96/2/2 102/2/2
f 105/6/3 104/6/3 103/6/3
f 106/6/3 104/6/3 105/6/3
f 110/1/3 108/1/3 107/1/3
f 111/4/3 109/4/3 108/4/3
f 111/1/3 108/1/3 110/1/3
f 112/4/3 109/4/3 111/4/3
f 113/4/3 109/4/3 112/4/3
f 114/1/3 110/1/3 107/1/3
f 115/1/3 110/1/3 114/1/3
f 116/4/3 112/4/3 111/4/3
f 117/4/3 109/4/3 113/4/3
f 118/4/3 109/4/3 117/4/3
f 119/4/3 116/4/3 111/4/3
f 119/4/3 117/4/3 116/4/3
f 120/2/3 118/2/3 117/2/3
f 120/4/3 117/4/3 119/4/3
f 121/2/3 118/2/3 120/2/3
f 124/5/3 123/5/3 122/5/3
f 125/5/3 123/5/3 124/5/3
f 129/4/3 127/4/3 126/4/3
f 129/4/3 128/4/3 127/4/3
f 130/4/3 128/4/3 129/4/3
f 133/5/3 132/5/3 131/5/3
f 134/5/3 132/5/3 133/5/3
f 137/5/3 136/5/3 135/5/3
f 138/5/3 136/5/3 137/5/3
f 142/4/3 140/4/3 139/4/3
f 143/5/3 141/5/3 140/5/3
f 143/4/3 140/4/3 142/4/3
f 144/5/3 141/5/3 143/5/3
f 147/2/3 146/2/3 145/2/3
f 148/2/3 146/2/3 147/2/3
f 149/1/4 150/1/4 151/1/4
f 151/1/4 150/1/4 152/1/4
f 149/1/4 151/1/4 155/1/4
f 155/1/4 151/1/4 156/1/4
f 153/4/4 154/4/4 157/4/4
f 152/4/4 153/4/4 157/4/4
f 157/4/4 154/4/4 158/4/4
f 159/5/4 160/5/4 161/5/4
f 161/5/4 160/5/4 162/5/4
f 163/5/4 164/5/4 165/5/4
f 165/5/4 164/5/4 166/5/4
f 167/5/4 168/5/4 169/5/4
f 169/5/4 168/5/4 170/5/4
f 171/4/4 172/4/4 173/4/4
f 173/4/4 172/4/4 174/4/4
f 175/4/4 176/4/4 177/4/4
f 177/4/4 176/4/4 178/4/4
f 179/5/4 180/5/4 181/5/4
f 181/5/4 180/5/4 182/5/4
f 183/2/4 184/2/4 185/2/4
f 185/2/4 184/2/4 186/2/4
f 189/1/5 188/1/5 187/1/5
f 190/1/5 188/1/5 189/1/5
f 194/4/5 192/4/5 191/4/5
f 195/4/5 192/4/5 194/4/5
f 196/4/5 194/4/5 193/4/5
f 197/4/5 192/4/5 195/4/5
f 198/4/5 196/4/5 193/4/5
f 198/4/5 197/4/5 196/4/5
f 199/4/5 197/4/5 198/4/5
f 200/2/5 199/2/5 198/2/5
f 201/4/5 197/4/5 199/4/5
f 201/2/5 199/2/5 200/2/5
f 202/4/5 201/4/5 200/4/5
f 202/4/5 197/4/5 201/4/5
f 203/4/5 192/4/5 197/4/5
f 203/4/5 197/4/5 202/4/5
f 204/4/5 202/4/5 200/4/5
f 205/4/5 202/4/5 204/4/5
f 206/4/5 192/4/5 203/4/5
f 207/4/5 192/4/5 206/4/5
f 208/2/5 205/2/5 204/2/5
f 208/2/5 206/2/5 205/2/5
f 208/2/5 207/2/5 206/2/5
f 209/2/5 207/2/5 208/2/5
f 212/6/5 211/6/5 210/6/5
f 213/6/5 211/6/5 212/6/5
f 214/3/5 213/3/5 212/3/5
f 215/3/5 213/3/5 214/3/5
f 218/5/5 217/5/5 216/5/5
f 219/5/5 217/5/5 218/5/5
f 222/4/5 221/4/5 220/4/5
f 223/4/5 221/4/5 222/4/5
f 228/5/5 225/5/5 224/5/5
f 229/5/5 225/5/5 228/5/5
f 230/2/5 227/2/5 226/2/5
f 231/2/5 227/2/5 230/2/5
f 232/2/5 227/2/5 231/2/5
f 233/4/5 232/4/5 231/4/5
f 234/4/5 232/4/5 233/4/5
f 237/5/5 236/5/5 235/5/5
f 238/5/5 236/5/5 237/5/5
f 239/2/5 234/2/5 233/2/5
f 240/2/5 234/2/5 239/2/5
f 241/1/6 242/1/6 243/1/6
f 243/1/6 242/1/6 244/1/6
f 245/4/6 246/4/6 247/4/6
f 247/4/6 246/4/6 248/4/6
f 248/4/6 246/4/6 249/4/6
f 250/6/6 251/6/6 252/6/6
f 252/6/6 251/6/6 253/6/6
f 252/3/6 253/3/6 254/3/6
f 254/3/6 253/3/6 255/3/6
f 256/5/6 257/5/6 258/5/6
f 258/5/6 257/5/6 259/5/6
f 260/4/6 261/4/6 264/4/6
f 264/4/6 261/4/6 265/4/6
f 261/2/6 262/2/6 266/2/6
f 265/4/6 261/4/6 266/4/6
f 263/5/6 264/5/6 267/5/6
f 264/4/6 265/4/6 268/4/6
f 267/5/6 264/5/6 268/5/6
f 268/4/6 265/4/6 269/4/6
f 265/2/6 266/2/6 270/2/6
f 269/4/6 265/4/6 270/4/6
f 266/2/6 262/2/6 271/2/6
f 270/2/6 266/2/6 271/2/6
f 269/2/6 270/2/6 272/2/6
f 270/4/6 271/4/6 273/4/6
f 272/2/6 270/2/6 273/2/6
f 273/4/6 271/4/6 274/4/6
f 272/4/6 273/4/6 276/4/6
f 276/4/6 273/4/6 277/4/6
f 274/4/6 271/4/6 278/4/6
f 275/5/6 276/5/6 279/5/6
f 276/4/6 277/4/6 280/4/6
f 279/5/6 276/5/6 280/5/6
f 277/2/6 278/2/6 281/2/6
f 280/4/6 277/4/6 281/4/6
f 278/4/6 271/4/6 282/4/6
f 281/2/6 278/2/6 282/2/6
f 282/4/6 271/4/6 283/4/6
f 280/2/6 281/2/6 284/2/6
f 282/2/6 283/2/6 284/2/6
f 281/2/6 282/2/6 284/2/6
f 284/2/6 283/2/6 285/2/6
f 286/5/6 287/5/6 288/5/6
f 288/5/6 287/5/6 289/5/6
