# MagicaVoxel @ Ephtracy

# material
mtllib rightarm.mtl
usemtl palette

# normals
vn -1 0 0
vn 1 0 0
vn 0 0 1
vn 0 0 -1
vn 0 -1 0
vn 0 1 0

# texcoords
vt 0.505859 0.5
vt 0.541016 0.5
vt 0.595703 0.5

# verts
v -16 10 3
v -16 10 1
v -16 12 7
v -16 12 3
v -16 13 4
v -16 13 3
v -16 14 7
v -16 14 4
v -16 14 3
v -16 14 1
v -14 7 7
v -14 7 3
v -14 12 7
v -14 12 3
v -15 10 3
v -15 10 1
v -15 12 3
v -15 14 3
v -15 14 1
v -12 9 7
v -12 9 3
v -12 14 7
v -12 14 3
v -10 7 7
v -10 7 3
v -10 9 7
v -10 9 3
v -16 12 7
v -16 14 7
v -14 7 7
v -14 12 7
v -12 9 7
v -12 14 7
v -10 7 7
v -10 9 7
v -16 10 3
v -16 12 3
v -15 10 3
v -15 12 3
v -15 12 3
v -15 14 3
v -14 7 3
v -14 12 3
v -12 9 3
v -12 14 3
v -10 7 3
v -10 9 3
v -16 10 1
v -16 14 1
v -15 10 1
v -15 14 1
v -14 7 7
v -10 7 7
v -14 7 3
v -10 7 3
v -16 10 3
v -15 10 3
v -16 10 1
v -15 10 1
v -16 12 7
v -14 12 7
v -16 12 3
v -15 12 3
v -14 12 3
v -12 9 7
v -10 9 7
v -12 9 3
v -10 9 3
v -16 14 7
v -12 14 7
v -16 14 4
v -15 14 4
v -16 14 3
v -15 14 3
v -12 14 3
v -16 14 1
v -15 14 1

# faces
f 4/1/1 2/1/1 1/1/1
f 5/2/1 4/2/1 3/2/1
f 6/1/1 2/1/1 4/1/1
f 6/2/1 4/2/1 5/2/1
f 7/2/1 5/2/1 3/2/1
f 8/3/1 6/3/1 5/3/1
f 8/2/1 5/2/1 7/2/1
f 9/1/1 2/1/1 6/1/1
f 9/3/1 6/3/1 8/3/1
f 10/1/1 2/1/1 9/1/1
f 13/2/1 12/2/1 11/2/1
f 14/2/1 12/2/1 13/2/1
f 15/1/2 16/1/2 17/1/2
f 17/1/2 16/1/2 18/1/2
f 18/1/2 16/1/2 19/1/2
f 20/2/2 21/2/2 22/2/2
f 22/2/2 21/2/2 23/2/2
f 24/2/2 25/2/2 26/2/2
f 26/2/2 25/2/2 27/2/2
f 31/2/3 29/2/3 28/2/3
f 32/2/3 31/2/3 30/2/3
f 33/2/3 29/2/3 31/2/3
f 33/2/3 31/2/3 32/2/3
f 34/2/3 32/2/3 30/2/3
f 35/2/3 32/2/3 34/2/3
f 38/1/3 37/1/3 36/1/3
f 39/1/3 37/1/3 38/1/3
f 40/2/4 41/2/4 43/2/4
f 42/2/4 43/2/4 44/2/4
f 43/2/4 41/2/4 45/2/4
f 44/2/4 43/2/4 45/2/4
f 42/2/4 44/2/4 46/2/4
f 46/2/4 44/2/4 47/2/4
f 48/1/4 49/1/4 50/1/4
f 50/1/4 49/1/4 51/1/4
f 54/2/5 53/2/5 52/2/5
f 55/2/5 53/2/5 54/2/5
f 58/1/5 57/1/5 56/1/5
f 59/1/5 57/1/5 58/1/5
f 62/2/5 61/2/5 60/2/5
f 63/2/5 61/2/5 62/2/5
f 64/2/5 61/2/5 63/2/5
f 65/2/6 66/2/6 67/2/6
f 67/2/6 66/2/6 68/2/6
f 69/2/6 70/2/6 71/2/6
f 71/2/6 70/2/6 72/2/6
f 71/3/6 72/3/6 73/3/6
f 72/2/6 70/2/6 74/2/6
f 73/3/6 72/3/6 74/3/6
f 74/2/6 70/2/6 75/2/6
f 73/1/6 74/1/6 76/1/6
f 76/1/6 74/1/6 77/1/6
