# MagicaVoxel @ Ephtracy

# material
mtllib body.mtl
usemtl palette

# normals
vn -1 0 0
vn 1 0 0
vn 0 0 1
vn 0 0 -1
vn 0 -1 0
vn 0 1 0

# texcoords
vt 0.267578 0.5
vt 0.287109 0.5
vt 0.388672 0.5
vt 0.400391 0.5
vt 0.478516 0.5
vt 0.486328 0.5
vt 0.568359 0.5
vt 0.693359 0.5

# verts
v -4 14 3
v -4 14 -1
v -4 15 3
v -4 15 -1
v -2 6 5
v -2 6 -3
v -2 13 5
v -2 13 -3
v -2 15 3
v -2 15 -1
v -2 18 3
v -2 18 -1
v -1 13 3
v -1 13 -1
v -1 14 3
v -1 14 2
v -1 14 -0
v -1 14 -1
v 2 6 5
v 2 6 4
v 2 6 3
v 2 6 -1
v 2 6 -2
v 2 6 -3
v 2 7 2
v 2 7 -0
v 2 8 3
v 2 8 2
v 2 8 -0
v 2 8 -1
v 2 9 4
v 2 9 3
v 2 9 2
v 2 9 -0
v 2 9 -1
v 2 9 -2
v 2 10 4
v 2 10 3
v 2 10 -1
v 2 10 -2
v 2 11 5
v 2 11 4
v 2 11 3
v 2 11 2
v 2 11 -0
v 2 11 -1
v 2 11 -2
v 2 11 -3
v 2 12 3
v 2 12 2
v 2 12 -0
v 2 12 -1
v 2 13 4
v 2 13 3
v 2 13 -1
v 2 13 -2
v 2 14 2
v 2 14 -0
v 2 15 2
v 2 15 -0
v 2 16 3
v 2 16 -1
v 3 11 5
v 3 11 4
v 3 11 -2
v 3 11 -3
v 3 13 5
v 3 13 4
v 3 13 -2
v 3 13 -3
v 4 16 3
v 4 16 -1
v 4 18 3
v 4 18 -1
v -2 6 5
v -2 13 5
v 2 6 5
v 2 11 5
v 3 11 5
v 3 13 5
v -4 14 3
v -4 15 3
v -2 15 3
v -2 18 3
v -1 13 3
v -1 14 3
v 0 14 3
v 0 16 3
v 1 13 3
v 2 13 3
v 2 16 3
v 4 16 3
v 4 18 3
v 2 11 -2
v 2 13 -2
v 3 11 -2
v 3 13 -2
v 2 11 4
v 2 13 4
v 3 11 4
v 3 13 4
v -4 14 -1
v -4 15 -1
v -2 15 -1
v -2 18 -1
v -1 13 -1
v -1 14 -1
v 0 14 -1
v 0 17 -1
v 1 13 -1
v 1 16 -1
v 1 17 -1
v 2 13 -1
v 2 16 -1
v 4 16 -1
v 4 18 -1
v -2 6 -3
v -2 13 -3
v 2 6 -3
v 2 11 -3
v 3 11 -3
v 3 13 -3
v -2 6 5
v 2 6 5
v 1 6 4
v 2 6 4
v 1 6 3
v 2 6 3
v 1 6 -1
v 2 6 -1
v 1 6 -2
v 2 6 -2
v -2 6 -3
v 2 6 -3
v 2 11 5
v 3 11 5
v 2 11 4
v 3 11 4
v 2 11 -2
v 3 11 -2
v 2 11 -3
v 3 11 -3
v -4 14 3
v -1 14 3
v -2 14 2
v -1 14 2
v -2 14 -0
v -1 14 -0
v -4 14 -1
v -1 14 -1
v 2 16 3
v 4 16 3
v 2 16 -1
v 4 16 -1
v -2 13 5
v 3 13 5
v 1 13 4
v 2 13 4
v 3 13 4
v -1 13 3
v 1 13 3
v 2 13 3
v -1 13 -1
v 1 13 -1
v 2 13 -1
v 1 13 -2
v 2 13 -2
v 3 13 -2
v -2 13 -3
v 3 13 -3
v -4 15 3
v -2 15 3
v -4 15 -1
v -2 15 -1
v -2 18 3
v 4 18 3
v -2 18 -1
v 4 18 -1

# faces
f 3/8/1 2/8/1 1/8/1
f 4/8/1 2/8/1 3/8/1
f 7/4/1 6/4/1 5/4/1
f 8/4/1 6/4/1 7/4/1
f 11/8/1 10/8/1 9/8/1
f 12/8/1 10/8/1 11/8/1
f 15/3/1 14/3/1 13/3/1
f 16/3/1 14/3/1 15/3/1
f 17/3/1 14/3/1 16/3/1
f 18/3/1 14/3/1 17/3/1
f 21/6/2 22/6/2 25/6/2
f 25/6/2 22/6/2 26/6/2
f 20/7/2 21/7/2 27/7/2
f 21/6/2 25/6/2 27/6/2
f 25/1/2 26/1/2 28/1/2
f 27/6/2 25/6/2 28/6/2
f 26/6/2 22/6/2 29/6/2
f 28/1/2 26/1/2 29/1/2
f 22/7/2 23/7/2 30/7/2
f 29/6/2 22/6/2 30/6/2
f 19/4/2 20/4/2 31/4/2
f 20/7/2 27/7/2 31/7/2
f 27/1/2 28/1/2 32/1/2
f 31/7/2 27/7/2 32/7/2
f 28/6/2 29/6/2 33/6/2
f 32/1/2 28/1/2 33/1/2
f 29/1/2 30/1/2 34/1/2
f 33/6/2 29/6/2 34/6/2
f 30/7/2 23/7/2 35/7/2
f 34/1/2 30/1/2 35/1/2
f 23/4/2 24/4/2 36/4/2
f 35/7/2 23/7/2 36/7/2
f 33/6/2 34/6/2 37/6/2
f 19/4/2 31/4/2 37/4/2
f 35/6/2 36/6/2 37/6/2
f 32/6/2 33/6/2 37/6/2
f 31/6/2 32/6/2 37/6/2
f 34/6/2 35/6/2 37/6/2
f 37/6/2 36/6/2 38/6/2
f 38/6/2 36/6/2 39/6/2
f 36/4/2 24/4/2 40/4/2
f 39/6/2 36/6/2 40/6/2
f 19/4/2 37/4/2 41/4/2
f 37/7/2 38/7/2 42/7/2
f 41/4/2 37/4/2 42/4/2
f 38/6/2 39/6/2 43/6/2
f 42/7/2 38/7/2 43/7/2
f 43/6/2 39/6/2 44/6/2
f 44/6/2 39/6/2 45/6/2
f 39/7/2 40/7/2 46/7/2
f 45/6/2 39/6/2 46/6/2
f 40/4/2 24/4/2 47/4/2
f 46/7/2 40/7/2 47/7/2
f 47/4/2 24/4/2 48/4/2
f 42/7/2 43/7/2 49/7/2
f 43/5/2 44/5/2 49/5/2
f 44/6/2 45/6/2 50/6/2
f 49/5/2 44/5/2 50/5/2
f 45/5/2 46/5/2 51/5/2
f 50/6/2 45/6/2 51/6/2
f 46/7/2 47/7/2 52/7/2
f 51/5/2 46/5/2 52/5/2
f 42/7/2 49/7/2 53/7/2
f 49/6/2 50/6/2 54/6/2
f 53/7/2 49/7/2 54/7/2
f 50/6/2 51/6/2 54/6/2
f 51/6/2 52/6/2 54/6/2
f 52/7/2 47/7/2 55/7/2
f 54/6/2 52/6/2 55/6/2
f 55/7/2 47/7/2 56/7/2
f 54/3/2 55/3/2 57/3/2
f 57/3/2 55/3/2 58/3/2
f 54/3/2 57/3/2 59/3/2
f 57/2/2 58/2/2 59/2/2
f 58/3/2 55/3/2 60/3/2
f 59/2/2 58/2/2 60/2/2
f 54/3/2 59/3/2 61/3/2
f 59/3/2 60/3/2 61/3/2
f 60/3/2 55/3/2 62/3/2
f 61/3/2 60/3/2 62/3/2
f 63/4/2 64/4/2 67/4/2
f 67/4/2 64/4/2 68/4/2
f 65/4/2 66/4/2 69/4/2
f 69/4/2 66/4/2 70/4/2
f 71/8/2 72/8/2 73/8/2
f 73/8/2 72/8/2 74/8/2
f 77/4/3 76/4/3 75/4/3
f 78/4/3 76/4/3 77/4/3
f 79/4/3 76/4/3 78/4/3
f 80/4/3 76/4/3 79/4/3
f 83/8/3 82/8/3 81/8/3
f 86/8/3 83/8/3 81/8/3
f 86/8/3 84/8/3 83/8/3
f 87/8/3 84/8/3 86/8/3
f 87/3/3 86/3/3 85/3/3
f 88/8/3 84/8/3 87/8/3
f 89/3/3 87/3/3 85/3/3
f 89/3/3 88/3/3 87/3/3
f 90/3/3 88/3/3 89/3/3
f 91/8/3 84/8/3 88/8/3
f 91/3/3 88/3/3 90/3/3
f 92/8/3 84/8/3 91/8/3
f 93/8/3 84/8/3 92/8/3
f 96/4/3 95/4/3 94/4/3
f 97/4/3 95/4/3 96/4/3
f 98/4/4 99/4/4 100/4/4
f 100/4/4 99/4/4 101/4/4
f 102/8/4 103/8/4 104/8/4
f 102/8/4 104/8/4 107/8/4
f 104/8/4 105/8/4 107/8/4
f 107/8/4 105/8/4 108/8/4
f 106/3/4 107/3/4 108/3/4
f 108/8/4 105/8/4 109/8/4
f 106/3/4 108/3/4 110/3/4
f 108/3/4 109/3/4 110/3/4
f 110/3/4 109/3/4 111/3/4
f 109/8/4 105/8/4 112/8/4
f 111/3/4 109/3/4 112/3/4
f 110/3/4 111/3/4 113/3/4
f 111/8/4 112/8/4 114/8/4
f 113/3/4 111/3/4 114/3/4
f 114/8/4 112/8/4 115/8/4
f 112/8/4 105/8/4 116/8/4
f 115/8/4 112/8/4 116/8/4
f 117/4/4 118/4/4 119/4/4
f 119/4/4 118/4/4 120/4/4
f 120/4/4 118/4/4 121/4/4
f 121/4/4 118/4/4 122/4/4
f 125/4/5 124/4/5 123/4/5
f 126/4/5 124/4/5 125/4/5
f 127/4/5 125/4/5 123/4/5
f 127/7/5 126/7/5 125/7/5
f 128/7/5 126/7/5 127/7/5
f 129/4/5 127/4/5 123/4/5
f 129/6/5 128/6/5 127/6/5
f 130/6/5 128/6/5 129/6/5
f 131/4/5 129/4/5 123/4/5
f 131/7/5 130/7/5 129/7/5
f 132/7/5 130/7/5 131/7/5
f 133/4/5 131/4/5 123/4/5
f 133/4/5 132/4/5 131/4/5
f 134/4/5 132/4/5 133/4/5
f 137/4/5 136/4/5 135/4/5
f 138/4/5 136/4/5 137/4/5
f 141/4/5 140/4/5 139/4/5
f 142/4/5 140/4/5 141/4/5
f 145/8/5 144/8/5 143/8/5
f 146/8/5 144/8/5 145/8/5
f 147/8/5 145/8/5 143/8/5
f 147/3/5 146/3/5 145/3/5
f 148/3/5 146/3/5 147/3/5
f 149/8/5 147/8/5 143/8/5
f 149/8/5 148/8/5 147/8/5
f 150/8/5 148/8/5 149/8/5
f 153/8/5 152/8/5 151/8/5
f 154/8/5 152/8/5 153/8/5
f 155/4/6 156/4/6 157/4/6
f 157/4/6 156/4/6 158/4/6
f 158/4/6 156/4/6 159/4/6
f 155/4/6 157/4/6 160/4/6
f 157/7/6 158/7/6 161/7/6
f 160/4/6 157/4/6 161/4/6
f 161/7/6 158/7/6 162/7/6
f 155/4/6 160/4/6 163/4/6
f 163/4/6 164/4/6 166/4/6
f 164/7/6 165/7/6 166/7/6
f 166/7/6 165/7/6 167/7/6
f 166/4/6 167/4/6 169/4/6
f 167/4/6 168/4/6 169/4/6
f 163/4/6 166/4/6 169/4/6
f 155/4/6 163/4/6 169/4/6
f 169/4/6 168/4/6 170/4/6
f 171/8/6 172/8/6 173/8/6
f 173/8/6 172/8/6 174/8/6
f 175/8/6 176/8/6 177/8/6
f 177/8/6 176/8/6 178/8/6
