# MagicaVoxel @ Ephtracy

# material
mtllib body.mtl
usemtl palette

# normals
vn -1 0 0
vn 1 0 0
vn 0 0 1
vn 0 0 -1
vn 0 -1 0
vn 0 1 0

# texcoords
vt 0.267578 0.5
vt 0.287109 0.5
vt 0.388672 0.5
vt 0.400391 0.5
vt 0.478516 0.5
vt 0.486328 0.5
vt 0.568359 0.5
vt 0.693359 0.5

# verts
v -3 6 -0
v -3 6 -4
v -3 11 1
v -3 11 -0
v -3 13 1
v -3 13 -4
v -1 13 -0
v -1 13 -1
v -1 13 -3
v -1 14 -2
v -1 14 -3
v -1 14 -6
v -1 15 -4
v -1 15 -6
v -1 16 2
v -1 16 1
v -1 16 -0
v -1 16 -2
v -1 17 1
v -1 17 -0
v -1 18 2
v -1 18 -4
v 4 11 1
v 4 11 -0
v 4 13 1
v 4 13 -0
v -2 11 1
v -2 11 -0
v -2 13 1
v -2 13 -0
v 2 17 1
v 2 17 -0
v 2 18 1
v 2 18 -0
v 3 13 -0
v 3 13 -1
v 3 13 -3
v 3 14 -2
v 3 14 -3
v 3 14 -6
v 3 15 -4
v 3 15 -6
v 3 16 2
v 3 16 1
v 3 16 -0
v 3 16 -1
v 3 17 -1
v 3 17 -2
v 3 18 2
v 3 18 1
v 3 18 -0
v 3 18 -4
v 5 6 -0
v 5 6 -4
v 5 11 1
v 5 11 -0
v 5 13 1
v 5 13 -4
v -1 16 2
v -1 18 2
v 3 16 2
v 3 18 2
v -3 11 1
v -3 13 1
v -2 11 1
v -2 13 1
v 4 11 1
v 4 13 1
v 5 11 1
v 5 13 1
v -3 6 -0
v -3 11 -0
v -2 6 -0
v -2 9 -0
v -2 10 -0
v -2 11 -0
v -2 13 -0
v -1 6 -0
v -1 8 -0
v -1 9 -0
v -1 10 -0
v -1 11 -0
v -1 12 -0
v -1 13 -0
v -1 16 -0
v -1 17 -0
v 0 7 -0
v 0 8 -0
v 0 9 -0
v 0 11 -0
v 0 12 -0
v 0 14 -0
v 0 15 -0
v 2 7 -0
v 2 8 -0
v 2 9 -0
v 2 11 -0
v 2 12 -0
v 2 14 -0
v 2 15 -0
v 2 17 -0
v 2 18 -0
v 3 6 -0
v 3 8 -0
v 3 9 -0
v 3 10 -0
v 3 11 -0
v 3 12 -0
v 3 13 -0
v 3 16 -0
v 3 18 -0
v 4 6 -0
v 4 9 -0
v 4 10 -0
v 4 11 -0
v 4 13 -0
v 5 6 -0
v 5 11 -0
v -1 16 1
v -1 17 1
v 2 17 1
v 2 18 1
v 3 16 1
v 3 18 1
v -1 13 -3
v -1 14 -3
v 0 14 -3
v 2 14 -3
v 3 13 -3
v 3 14 -3
v -3 6 -4
v -3 13 -4
v -1 15 -4
v -1 18 -4
v 3 15 -4
v 3 18 -4
v 5 6 -4
v 5 13 -4
v -1 14 -6
v -1 15 -6
v 3 14 -6
v 3 15 -6
v -3 6 -0
v -2 6 -0
v -1 6 -0
v 3 6 -0
v 4 6 -0
v 5 6 -0
v -2 6 -1
v -1 6 -1
v 3 6 -1
v 4 6 -1
v -3 6 -4
v 5 6 -4
v -3 11 1
v -2 11 1
v 4 11 1
v 5 11 1
v -3 11 -0
v -2 11 -0
v 4 11 -0
v 5 11 -0
v -1 14 -3
v 0 14 -3
v 2 14 -3
v 3 14 -3
v 0 14 -4
v 2 14 -4
v -1 14 -6
v 3 14 -6
v -1 16 2
v 3 16 2
v -1 16 1
v 3 16 1
v -1 17 1
v 2 17 1
v -1 17 -0
v 2 17 -0
v -3 13 1
v -2 13 1
v 4 13 1
v 5 13 1
v -2 13 -0
v -1 13 -0
v 3 13 -0
v 4 13 -0
v -2 13 -1
v -1 13 -1
v 3 13 -1
v 4 13 -1
v -1 13 -3
v 3 13 -3
v -3 13 -4
v 5 13 -4
v -1 15 -4
v 3 15 -4
v -1 15 -6
v 3 15 -6
v -1 18 2
v 3 18 2
v 2 18 1
v 3 18 1
v 2 18 -0
v 3 18 -0
v -1 18 -4
v 3 18 -4

# faces
f 4/4/1 2/4/1 1/4/1
f 5/4/1 4/4/1 3/4/1
f 6/4/1 2/4/1 4/4/1
f 6/4/1 4/4/1 5/4/1
f 10/3/1 8/3/1 7/3/1
f 10/3/1 9/3/1 8/3/1
f 11/3/1 9/3/1 10/3/1
f 13/8/1 11/8/1 10/8/1
f 13/8/1 12/8/1 11/8/1
f 14/8/1 12/8/1 13/8/1
f 17/3/1 10/3/1 7/3/1
f 18/8/1 13/8/1 10/8/1
f 18/3/1 10/3/1 17/3/1
f 19/8/1 16/8/1 15/8/1
f 20/8/1 18/8/1 17/8/1
f 21/8/1 19/8/1 15/8/1
f 21/8/1 20/8/1 19/8/1
f 22/8/1 13/8/1 18/8/1
f 22/8/1 20/8/1 21/8/1
f 22/8/1 18/8/1 20/8/1
f 25/4/1 24/4/1 23/4/1
f 26/4/1 24/4/1 25/4/1
f 27/4/2 28/4/2 29/4/2
f 29/4/2 28/4/2 30/4/2
f 31/8/2 32/8/2 33/8/2
f 33/8/2 32/8/2 34/8/2
f 35/3/2 36/3/2 38/3/2
f 36/3/2 37/3/2 38/3/2
f 38/3/2 37/3/2 39/3/2
f 38/8/2 39/8/2 41/8/2
f 39/8/2 40/8/2 41/8/2
f 41/8/2 40/8/2 42/8/2
f 35/3/2 38/3/2 45/3/2
f 45/3/2 38/3/2 46/3/2
f 45/8/2 46/8/2 47/8/2
f 46/3/2 38/3/2 47/3/2
f 38/8/2 41/8/2 48/8/2
f 47/3/2 38/3/2 48/3/2
f 43/8/2 44/8/2 49/8/2
f 49/8/2 44/8/2 50/8/2
f 45/8/2 47/8/2 51/8/2
f 47/8/2 48/8/2 51/8/2
f 48/8/2 41/8/2 52/8/2
f 51/8/2 48/8/2 52/8/2
f 53/4/2 54/4/2 56/4/2
f 55/4/2 56/4/2 57/4/2
f 56/4/2 54/4/2 58/4/2
f 57/4/2 56/4/2 58/4/2
f 61/8/3 60/8/3 59/8/3
f 62/8/3 60/8/3 61/8/3
f 65/4/3 64/4/3 63/4/3
f 66/4/3 64/4/3 65/4/3
f 69/4/3 68/4/3 67/4/3
f 70/4/3 68/4/3 69/4/3
f 73/4/3 72/4/3 71/4/3
f 74/4/3 72/4/3 73/4/3
f 75/4/3 72/4/3 74/4/3
f 76/4/3 72/4/3 75/4/3
f 78/7/3 74/7/3 73/7/3
f 79/7/3 74/7/3 78/7/3
f 80/6/3 75/6/3 74/6/3
f 80/7/3 74/7/3 79/7/3
f 81/7/3 77/7/3 76/7/3
f 81/6/3 75/6/3 80/6/3
f 81/7/3 76/7/3 75/7/3
f 82/7/3 77/7/3 81/7/3
f 83/7/3 77/7/3 82/7/3
f 84/7/3 77/7/3 83/7/3
f 87/6/3 79/6/3 78/6/3
f 88/1/3 80/1/3 79/1/3
f 88/6/3 79/6/3 87/6/3
f 89/6/3 81/6/3 80/6/3
f 89/1/3 80/1/3 88/1/3
f 89/6/3 82/6/3 81/6/3
f 90/5/3 83/5/3 82/5/3
f 90/6/3 82/6/3 89/6/3
f 91/6/3 84/6/3 83/6/3
f 91/5/3 83/5/3 90/5/3
f 92/3/3 85/3/3 84/3/3
f 93/3/3 85/3/3 92/3/3
f 94/6/3 87/6/3 78/6/3
f 94/1/3 88/1/3 87/1/3
f 95/6/3 89/6/3 88/6/3
f 95/1/3 88/1/3 94/1/3
f 95/6/3 90/6/3 89/6/3
f 95/6/3 91/6/3 90/6/3
f 96/6/3 91/6/3 95/6/3
f 97/6/3 91/6/3 96/6/3
f 98/6/3 84/6/3 91/6/3
f 98/6/3 91/6/3 97/6/3
f 99/2/3 93/2/3 92/2/3
f 99/3/3 92/3/3 84/3/3
f 100/3/3 85/3/3 93/3/3
f 100/2/3 93/2/3 99/2/3
f 101/8/3 86/8/3 85/8/3
f 103/6/3 94/6/3 78/6/3
f 103/6/3 95/6/3 94/6/3
f 104/1/3 96/1/3 95/1/3
f 104/6/3 95/6/3 103/6/3
f 105/6/3 97/6/3 96/6/3
f 105/1/3 96/1/3 104/1/3
f 106/6/3 97/6/3 105/6/3
f 107/5/3 98/5/3 97/5/3
f 107/6/3 97/6/3 106/6/3
f 108/6/3 84/6/3 98/6/3
f 108/5/3 98/5/3 107/5/3
f 109/3/3 99/3/3 84/3/3
f 109/6/3 84/6/3 108/6/3
f 109/3/3 100/3/3 99/3/3
f 110/3/3 85/3/3 100/3/3
f 110/3/3 100/3/3 109/3/3
f 110/8/3 102/8/3 101/8/3
f 110/8/3 101/8/3 85/8/3
f 111/8/3 102/8/3 110/8/3
f 112/7/3 104/7/3 103/7/3
f 112/7/3 105/7/3 104/7/3
f 113/6/3 106/6/3 105/6/3
f 113/7/3 105/7/3 112/7/3
f 114/7/3 108/7/3 107/7/3
f 114/6/3 106/6/3 113/6/3
f 114/7/3 109/7/3 108/7/3
f 114/7/3 107/7/3 106/7/3
f 115/7/3 109/7/3 114/7/3
f 116/7/3 109/7/3 115/7/3
f 117/4/3 113/4/3 112/4/3
f 117/4/3 114/4/3 113/4/3
f 117/4/3 115/4/3 114/4/3
f 118/4/3 115/4/3 117/4/3
f 119/8/4 120/8/4 121/8/4
f 119/8/4 121/8/4 123/8/4
f 121/8/4 122/8/4 123/8/4
f 123/8/4 122/8/4 124/8/4
f 125/3/4 126/3/4 127/3/4
f 125/3/4 127/3/4 128/3/4
f 125/3/4 128/3/4 129/3/4
f 129/3/4 128/3/4 130/3/4
f 133/8/4 134/8/4 135/8/4
f 135/8/4 134/8/4 136/8/4
f 131/4/4 132/4/4 137/4/4
f 137/4/4 132/4/4 138/4/4
f 139/8/4 140/8/4 141/8/4
f 141/8/4 140/8/4 142/8/4
f 149/4/5 144/4/5 143/4/5
f 149/7/5 145/7/5 144/7/5
f 150/6/5 146/6/5 145/6/5
f 150/7/5 145/7/5 149/7/5
f 151/7/5 147/7/5 146/7/5
f 151/6/5 146/6/5 150/6/5
f 152/4/5 148/4/5 147/4/5
f 152/7/5 147/7/5 151/7/5
f 153/4/5 151/4/5 150/4/5
f 153/4/5 150/4/5 149/4/5
f 153/4/5 152/4/5 151/4/5
f 153/4/5 149/4/5 143/4/5
f 154/4/5 148/4/5 152/4/5
f 154/4/5 152/4/5 153/4/5
f 159/4/5 156/4/5 155/4/5
f 160/4/5 156/4/5 159/4/5
f 161/4/5 158/4/5 157/4/5
f 162/4/5 158/4/5 161/4/5
f 167/8/5 164/8/5 163/8/5
f 167/3/5 165/3/5 164/3/5
f 168/8/5 166/8/5 165/8/5
f 168/3/5 165/3/5 167/3/5
f 169/8/5 167/8/5 163/8/5
f 169/8/5 168/8/5 167/8/5
f 170/8/5 166/8/5 168/8/5
f 170/8/5 168/8/5 169/8/5
f 173/8/5 172/8/5 171/8/5
f 174/8/5 172/8/5 173/8/5
f 177/8/5 176/8/5 175/8/5
f 178/8/5 176/8/5 177/8/5
f 179/4/6 180/4/6 183/4/6
f 181/4/6 182/4/6 186/4/6
f 183/7/6 184/7/6 187/7/6
f 179/4/6 183/4/6 187/4/6
f 187/7/6 184/7/6 188/7/6
f 185/7/6 186/7/6 189/7/6
f 186/4/6 182/4/6 190/4/6
f 189/7/6 186/7/6 190/7/6
f 187/4/6 188/4/6 191/4/6
f 189/4/6 190/4/6 192/4/6
f 179/4/6 187/4/6 193/4/6
f 191/4/6 192/4/6 193/4/6
f 187/4/6 191/4/6 193/4/6
f 190/4/6 182/4/6 194/4/6
f 193/4/6 192/4/6 194/4/6
f 192/4/6 190/4/6 194/4/6
f 195/8/6 196/8/6 197/8/6
f 197/8/6 196/8/6 198/8/6
f 199/8/6 200/8/6 201/8/6
f 201/8/6 200/8/6 202/8/6
f 199/8/6 201/8/6 203/8/6
f 199/8/6 203/8/6 205/8/6
f 203/8/6 204/8/6 205/8/6
f 205/8/6 204/8/6 206/8/6
