# MagicaVoxel @ Ephtracy

# material
mtllib build_3.mtl
usemtl palette

# normals
vn -1 0 0
vn 1 0 0
vn 0 0 1
vn 0 0 -1
vn 0 -1 0
vn 0 1 0

# texcoords
vt 0.748047 0.5
vt 0.775391 0.5
vt 0.833984 0.5
vt 0.837891 0.5

# verts
v -17 21 12
v -17 21 -25
v -17 23 12
v -17 23 -25
v -14 88 27
v -14 88 -40
v -14 91 27
v -14 91 -40
v -12 0 25
v -12 0 6
v -12 0 -20
v -12 0 -38
v -12 21 12
v -12 21 6
v -12 21 -20
v -12 21 -25
v -12 23 12
v -12 23 -25
v -12 88 25
v -12 88 -38
v -8 0 6
v -8 0 -20
v -8 21 6
v -8 21 -20
v 8 0 25
v 8 0 -38
v 8 88 25
v 8 88 -38
v 10 88 27
v 10 88 -40
v 10 91 27
v 10 91 -40
v -14 88 27
v -14 91 27
v 10 88 27
v 10 91 27
v -12 0 25
v -12 88 25
v 8 0 25
v 8 88 25
v -17 21 12
v -17 23 12
v -12 21 12
v -12 23 12
v -12 0 -20
v -12 21 -20
v -8 0 -20
v -8 21 -20
v -12 0 6
v -12 21 6
v -8 0 6
v -8 21 6
v -17 21 -25
v -17 23 -25
v -12 21 -25
v -12 23 -25
v -12 0 -38
v -12 88 -38
v 8 0 -38
v 8 88 -38
v -14 88 -40
v -14 91 -40
v 10 88 -40
v 10 91 -40
v -12 0 25
v 8 0 25
v -12 0 6
v -8 0 6
v -7 0 6
v -12 0 -20
v -8 0 -20
v -7 0 -20
v -12 0 -38
v 8 0 -38
v -17 21 12
v -12 21 12
v -12 21 6
v -8 21 6
v -12 21 -20
v -8 21 -20
v -17 21 -25
v -12 21 -25
v -14 88 27
v 10 88 27
v -12 88 25
v 8 88 25
v -12 88 -38
v 8 88 -38
v -14 88 -40
v 10 88 -40
v -17 23 12
v -12 23 12
v -17 23 -25
v -12 23 -25
v -14 91 27
v 10 91 27
v -14 91 -40
v 10 91 -40

# faces
f 3/4/1 2/4/1 1/4/1
f 4/4/1 2/4/1 3/4/1
f 7/3/1 6/3/1 5/3/1
f 8/3/1 6/3/1 7/3/1
f 13/1/1 10/1/1 9/1/1
f 14/1/1 10/1/1 13/1/1
f 15/1/1 12/1/1 11/1/1
f 16/1/1 12/1/1 15/1/1
f 17/1/1 13/1/1 9/1/1
f 18/1/1 12/1/1 16/1/1
f 19/1/1 17/1/1 9/1/1
f 19/1/1 18/1/1 17/1/1
f 20/1/1 12/1/1 18/1/1
f 20/1/1 18/1/1 19/1/1
f 23/2/1 22/2/1 21/2/1
f 24/2/1 22/2/1 23/2/1
f 25/1/2 26/1/2 27/1/2
f 27/1/2 26/1/2 28/1/2
f 29/3/2 30/3/2 31/3/2
f 31/3/2 30/3/2 32/3/2
f 35/3/3 34/3/3 33/3/3
f 36/3/3 34/3/3 35/3/3
f 39/1/3 38/1/3 37/1/3
f 40/1/3 38/1/3 39/1/3
f 43/4/3 42/4/3 41/4/3
f 44/4/3 42/4/3 43/4/3
f 47/1/3 46/1/3 45/1/3
f 48/1/3 46/1/3 47/1/3
f 49/1/4 50/1/4 51/1/4
f 51/1/4 50/1/4 52/1/4
f 53/4/4 54/4/4 55/4/4
f 55/4/4 54/4/4 56/4/4
f 57/1/4 58/1/4 59/1/4
f 59/1/4 58/1/4 60/1/4
f 61/3/4 62/3/4 63/3/4
f 63/3/4 62/3/4 64/3/4
f 67/1/5 66/1/5 65/1/5
f 68/1/5 66/1/5 67/1/5
f 69/1/5 66/1/5 68/1/5
f 71/2/5 69/2/5 68/2/5
f 72/1/5 66/1/5 69/1/5
f 72/2/5 69/2/5 71/2/5
f 73/1/5 71/1/5 70/1/5
f 73/1/5 72/1/5 71/1/5
f 74/1/5 66/1/5 72/1/5
f 74/1/5 72/1/5 73/1/5
f 77/4/5 76/4/5 75/4/5
f 79/4/5 77/4/5 75/4/5
f 79/1/5 78/1/5 77/1/5
f 80/1/5 78/1/5 79/1/5
f 81/4/5 79/4/5 75/4/5
f 82/4/5 79/4/5 81/4/5
f 85/3/5 84/3/5 83/3/5
f 86/3/5 84/3/5 85/3/5
f 87/3/5 85/3/5 83/3/5
f 88/3/5 84/3/5 86/3/5
f 89/3/5 87/3/5 83/3/5
f 89/3/5 88/3/5 87/3/5
f 90/3/5 84/3/5 88/3/5
f 90/3/5 88/3/5 89/3/5
f 91/4/6 92/4/6 93/4/6
f 93/4/6 92/4/6 94/4/6
f 95/3/6 96/3/6 97/3/6
f 97/3/6 96/3/6 98/3/6
